{"glyphs":{"0":{"ha":817,"x_min":54,"x_max":760,"o":"m 496 10 q 203 89 325 -35 q 71 369 103 190 q 60 531 54 444 q 85 696 65 618 q 151 844 104 774 q 264 956 199 914 q 290 969 275 963 q 318 979 306 975 l 342 988 q 354 990 353 990 q 424 976 393 1004 q 472 975 440 978 q 514 972 503 972 q 701 789 633 944 q 758 497 757 661 q 703 201 760 328 q 496 10 632 43 l 496 10 m 463 143 q 576 258 533 161 q 619 497 621 358 q 575 733 618 633 q 483 836 535 825 q 453 840 461 840 q 420 837 446 839 q 369 835 394 835 q 342 840 356 835 q 339 839 340 839 q 219 659 256 786 q 207 393 182 532 q 301 188 232 257 q 463 143 368 119 l 463 143 z "},"1":{"ha":538,"x_min":26,"x_max":426,"o":"m 421 72 q 400 24 419 44 q 352 6 381 4 q 303 28 324 7 q 285 78 283 49 q 289 731 296 435 q 246 700 269 713 q 113 656 199 671 q 60 667 83 650 q 31 712 36 683 q 43 764 26 740 q 88 792 60 788 q 175 819 149 803 q 236 882 204 836 l 236 883 q 237 887 236 885 q 238 892 238 889 q 241 901 239 896 q 244 914 243 907 q 343 992 272 996 q 401 956 382 989 q 417 921 411 942 q 424 863 422 899 q 425 746 425 847 q 426 578 425 693 q 426 398 426 463 q 425 242 426 333 q 421 72 424 150 l 421 72 z "},"2":{"ha":819,"x_min":63,"x_max":807,"o":"m 732 -3 q 379 8 526 11 q 362 8 375 8 q 327 6 349 7 q 289 6 306 6 q 232 4 253 4 q 211 4 218 3 l 201 4 q 178 8 190 4 q 110 51 143 22 q 71 124 78 79 q 94 224 63 171 q 156 300 114 257 q 325 451 189 333 q 490 607 440 551 q 553 715 551 678 q 522 816 554 783 q 435 851 489 849 q 323 820 376 853 q 246 731 269 788 q 243 711 244 725 q 240 667 240 668 q 213 622 236 639 q 162 608 190 604 q 116 634 133 611 q 101 686 99 657 q 103 697 103 692 q 104 710 104 703 q 106 722 104 718 q 118 781 108 757 q 249 938 157 882 q 439 990 340 993 q 621 913 547 986 q 692 713 694 840 q 594 515 689 624 q 417 347 542 456 q 254 203 288 236 q 213 151 225 172 q 211 147 211 150 q 219 143 214 144 l 229 143 q 285 144 249 143 q 324 145 301 144 q 359 147 346 146 q 376 147 372 147 q 740 136 531 150 q 788 113 769 135 q 806 62 807 90 q 782 15 804 33 q 732 -3 760 -4 l 732 -3 z "},"3":{"ha":854,"x_min":75,"x_max":789,"o":"m 371 1 q 215 53 281 8 q 122 150 151 94 q 85 250 117 161 q 87 303 75 276 q 126 340 99 331 q 179 338 153 350 q 215 297 206 326 q 244 218 243 219 q 290 172 257 194 q 385 142 328 149 q 500 154 442 136 q 594 206 558 172 q 638 285 631 240 q 576 406 649 360 q 513 433 549 422 q 490 440 501 438 l 483 442 q 479 443 481 442 q 474 444 476 443 q 465 449 469 446 q 451 458 458 451 q 428 506 431 476 q 447 564 425 538 q 464 579 454 572 l 492 597 q 550 642 531 624 q 592 744 608 693 q 468 847 564 835 q 374 840 422 854 q 290 796 326 826 q 272 778 279 785 q 258 761 264 772 q 249 744 251 750 q 238 718 246 739 q 222 685 229 697 q 184 648 211 658 q 131 650 157 638 q 94 690 104 663 q 97 744 85 718 q 110 776 100 751 q 126 810 121 800 q 142 838 131 819 q 167 872 153 856 q 201 904 181 888 q 336 978 260 956 q 488 989 413 1000 q 633 927 568 978 q 725 790 697 876 q 642 533 769 647 l 640 532 l 649 526 q 751 421 713 486 q 774 263 789 356 q 694 106 760 168 q 540 18 628 43 q 371 1 463 -8 l 371 1 z "},"4":{"ha":847,"x_min":50,"x_max":825,"o":"m 543 -7 q 493 11 514 -7 q 472 63 472 29 q 475 265 472 140 l 371 264 q 183 261 269 264 q 88 283 125 258 q 50 357 50 307 q 64 407 50 382 q 113 467 78 432 q 267 675 151 506 q 429 931 383 844 q 471 984 449 968 q 524 1000 493 1000 q 579 976 556 1000 q 606 900 603 953 q 618 404 625 588 q 757 403 717 404 q 807 383 789 403 q 825 336 825 364 q 806 285 825 307 q 754 264 788 264 q 615 265 713 265 q 611 60 611 168 q 591 10 611 28 q 543 -7 571 -7 l 543 -7 m 479 404 q 481 588 482 476 q 475 747 479 699 q 240 401 376 579 l 479 404 z "},"5":{"ha":796,"x_min":65,"x_max":735,"o":"m 514 21 q 408 -3 463 1 q 297 10 354 -7 q 196 68 239 28 q 140 147 165 97 l 125 182 q 111 208 117 199 q 103 261 96 233 q 136 303 111 289 q 189 310 161 318 q 231 278 217 303 q 250 240 240 263 l 265 208 q 290 171 279 181 q 367 138 321 143 q 465 150 414 132 q 548 204 515 169 q 585 278 581 239 q 563 410 594 350 q 471 496 531 469 q 346 504 411 522 l 325 494 l 274 469 q 217 446 239 453 q 183 439 197 440 q 125 453 150 436 q 96 571 65 493 q 101 583 99 578 q 105 592 104 589 q 107 596 106 594 q 108 599 108 597 l 108 600 q 129 903 129 750 q 149 951 129 931 q 208 988 168 986 q 638 990 315 990 q 687 970 667 990 q 707 921 707 950 q 687 872 707 892 q 638 851 667 851 q 267 850 351 851 q 251 613 264 719 l 264 619 q 307 638 296 635 q 481 640 400 665 q 620 561 563 615 q 706 426 678 507 q 724 258 735 344 q 653 113 713 176 q 514 21 594 50 l 514 21 z "},"6":{"ha":849,"x_min":64,"x_max":797,"o":"m 282 46 q 147 173 199 92 q 79 346 94 254 q 72 532 64 438 q 113 710 81 626 q 203 867 146 799 q 335 971 260 936 q 704 899 513 1046 q 731 851 728 881 q 717 799 735 822 q 672 773 700 776 q 621 786 643 769 q 390 842 492 885 q 242 660 294 799 q 210 524 217 594 q 388 625 297 603 q 514 622 442 638 q 632 576 586 606 q 759 447 721 525 q 788 292 797 369 q 733 147 779 214 q 618 41 688 81 q 461 -2 549 1 q 282 46 374 -6 l 282 46 m 457 140 q 551 165 510 142 q 619 226 592 188 q 650 305 644 265 q 634 385 656 344 q 563 456 613 426 q 489 482 535 471 q 421 488 443 493 q 378 474 397 482 q 338 448 360 465 q 304 421 315 431 l 224 340 q 349 169 257 218 q 457 140 406 139 l 457 140 z "},"7":{"ha":682,"x_min":40,"x_max":674,"o":"m 233 32 q 194 -6 221 4 q 142 -2 168 -15 q 106 38 115 11 q 108 93 96 65 q 142 168 115 107 l 176 249 l 211 322 q 249 401 236 378 l 286 478 q 328 556 310 525 l 369 628 q 417 703 393 668 l 464 774 q 482 813 465 776 l 508 847 l 507 847 q 356 850 450 850 q 114 847 172 850 q 65 866 86 846 q 42 916 43 886 q 60 968 40 946 q 106 992 79 990 q 356 994 168 994 q 513 992 447 994 q 569 988 550 990 q 593 985 583 986 q 635 961 617 979 q 661 857 674 919 q 632 769 656 822 q 614 743 625 757 q 599 717 606 726 l 582 697 l 575 686 q 530 622 551 654 q 485 550 508 589 l 446 483 q 408 408 432 456 l 372 339 l 336 261 l 303 189 l 267 107 q 233 32 239 44 l 233 32 z "},"8":{"ha":810,"x_min":32,"x_max":753,"o":"m 350 0 q 186 67 256 14 q 92 199 117 121 q 95 363 65 281 q 207 506 125 444 q 232 522 218 514 q 203 533 215 528 q 83 638 117 575 q 114 857 32 732 q 425 993 211 1006 q 440 994 433 994 q 457 996 446 994 l 482 997 q 556 992 524 1001 q 661 918 619 969 q 719 801 703 867 q 724 676 735 744 q 672 560 713 608 q 610 504 647 528 q 692 414 660 464 q 745 227 753 314 q 669 78 738 140 q 524 6 611 26 q 350 0 438 -14 l 350 0 m 369 136 q 489 141 433 128 q 576 182 544 154 q 575 339 639 238 q 439 444 536 401 q 376 430 394 435 q 331 415 357 425 q 290 394 306 406 q 227 318 242 358 q 224 242 213 278 q 274 175 236 204 q 369 136 311 146 l 369 136 m 451 590 q 564 646 536 611 q 583 768 601 693 q 547 836 574 811 q 531 838 539 836 q 402 855 454 853 q 303 840 350 857 q 231 782 257 824 q 206 701 193 725 q 263 660 217 681 q 393 611 288 647 q 451 590 428 600 l 451 590 z "},"9":{"ha":803,"x_min":39,"x_max":711,"o":"m 678 61 q 653 14 675 32 q 603 -2 632 -4 q 556 22 574 0 q 539 72 538 43 q 558 457 553 301 q 381 368 483 383 q 233 381 300 358 q 125 450 167 404 q 61 554 83 496 q 40 675 39 613 q 68 799 42 740 q 142 902 94 857 q 267 970 190 947 q 435 985 343 993 q 535 960 496 979 q 571 939 549 953 l 593 924 q 618 931 604 929 q 669 913 647 932 q 692 865 690 894 q 678 61 711 538 l 678 61 m 361 507 q 452 549 413 514 q 513 639 492 583 q 539 793 526 674 q 535 796 538 794 l 494 822 l 472 836 q 424 846 457 843 q 311 839 360 851 q 235 798 263 825 q 194 739 208 771 q 179 671 181 707 q 227 544 178 594 q 361 507 276 494 l 361 507 z "},"\r":{"ha":463,"x_min":0,"x_max":0,"o":""}," ":{"ha":375,"x_min":0,"x_max":0,"o":""}," ":{"ha":375,"x_min":0,"x_max":0,"o":""},"A":{"ha":849,"x_min":10,"x_max":846,"o":"m 151 42 q 113 3 140 14 q 59 3 86 -8 q 21 41 32 14 q 21 94 10 68 q 94 301 49 163 q 158 489 139 440 q 238 686 168 517 q 339 957 303 853 q 374 998 349 985 q 428 1001 400 1011 q 450 989 440 997 q 489 951 478 979 l 835 97 q 835 42 846 69 q 797 4 824 15 q 742 4 769 -7 q 704 42 715 15 l 600 311 q 536 308 543 308 q 242 301 349 301 q 151 42 179 118 l 151 42 m 293 443 q 543 449 410 444 l 417 754 l 293 443 l 293 443 z "},"B":{"ha":951,"x_min":121,"x_max":911,"o":"m 192 4 q 143 26 163 6 q 125 76 124 47 q 140 117 126 99 q 139 327 140 185 q 138 543 138 469 q 138 635 138 568 q 138 734 139 703 q 135 816 138 765 q 126 907 132 867 q 138 959 121 936 q 183 986 156 982 q 225 981 206 990 q 240 983 232 983 q 485 985 396 993 q 739 899 654 971 q 816 783 794 851 q 824 646 838 715 q 767 522 810 576 q 813 493 793 510 q 890 381 869 446 q 897 258 911 317 q 844 147 882 199 q 756 64 807 94 q 663 26 714 42 q 567 4 611 11 q 463 -4 524 -3 q 368 -4 403 -6 q 272 0 333 -3 q 192 4 211 3 l 192 4 m 279 139 q 427 134 358 136 q 566 144 496 132 q 686 186 636 157 q 760 285 749 221 q 724 388 771 349 q 571 422 690 415 q 472 415 526 415 q 349 422 431 417 q 315 424 329 424 q 293 429 304 425 l 276 431 q 278 300 276 404 q 279 139 279 196 l 279 139 m 358 561 q 424 563 372 561 q 556 561 510 564 l 564 561 q 628 583 604 568 q 689 685 682 615 q 650 793 696 754 q 472 847 599 836 q 272 846 397 853 q 276 571 278 776 l 281 571 q 358 561 335 564 l 358 561 z "},"C":{"ha":988,"x_min":63,"x_max":943,"o":"m 556 -11 q 406 8 479 -11 q 278 63 332 28 q 167 172 217 101 q 90 327 118 243 q 63 489 63 411 q 107 692 63 593 q 232 871 151 790 q 369 965 293 932 q 551 1003 460 1003 q 710 972 631 1003 q 797 923 761 953 q 876 844 833 893 l 918 793 q 935 750 935 772 q 913 701 935 722 q 861 681 890 681 q 810 707 832 681 l 758 769 q 713 810 739 790 q 660 842 686 831 q 540 863 600 867 q 328 769 414 851 q 201 489 201 647 q 247 312 201 404 q 353 179 292 219 q 443 142 390 156 q 551 128 496 128 q 771 221 719 128 q 794 285 781 238 l 808 329 q 834 364 817 351 q 871 376 851 376 q 921 357 899 376 q 943 307 943 338 q 939 282 943 294 l 929 253 q 893 154 906 181 q 772 39 850 79 q 594 -10 694 -1 q 556 -11 582 -11 l 556 -11 z "},"D":{"ha":1013,"x_min":122,"x_max":954,"o":"m 213 -3 q 174 7 192 -4 q 138 33 151 14 q 125 75 125 51 q 132 510 125 119 q 128 714 133 574 q 126 928 122 851 q 149 976 128 957 q 199 994 171 996 l 204 994 q 231 1003 217 1001 q 332 1010 294 1008 q 438 1013 369 1013 q 554 1003 506 1013 q 662 974 603 994 q 767 919 721 953 q 909 738 864 849 q 950 506 954 628 q 897 278 946 388 q 760 100 847 169 q 478 3 656 17 q 339 -1 425 -1 q 213 -3 246 -1 l 213 -3 m 339 138 q 467 142 421 138 q 665 208 593 151 q 763 338 726 257 q 803 511 800 419 q 775 681 807 603 q 678 806 742 760 q 556 860 626 843 q 415 874 483 876 q 264 865 347 872 q 267 719 263 825 q 271 507 272 568 q 269 391 271 465 q 267 254 268 317 q 265 138 265 192 l 339 138 z "},"E":{"ha":915,"x_min":125,"x_max":860,"o":"m 792 6 q 201 10 604 3 q 153 31 174 10 q 133 79 133 51 q 125 114 125 96 q 128 386 128 208 q 129 628 128 564 q 128 710 129 651 q 128 820 126 769 q 136 915 129 871 q 153 950 139 935 q 186 971 167 965 q 231 989 204 988 q 524 993 333 992 q 785 994 715 994 q 834 974 814 994 q 854 925 854 954 q 834 876 854 896 q 785 856 814 856 q 537 854 711 856 q 268 851 363 853 q 266 745 264 832 q 268 625 268 658 l 268 568 q 413 572 336 572 q 588 571 490 572 q 733 569 686 569 q 783 549 763 569 q 803 500 803 529 q 783 451 803 471 q 733 431 763 431 q 587 432 685 431 q 413 433 489 433 q 267 429 336 433 q 265 147 267 232 q 789 144 604 142 q 839 125 818 144 q 860 76 860 106 q 840 26 860 47 q 792 6 821 6 l 792 6 z "},"F":{"ha":828,"x_min":125,"x_max":826,"o":"m 135 67 q 137 317 135 121 q 137 638 139 513 q 125 894 135 764 q 126 911 125 903 q 125 921 125 917 q 144 971 125 950 q 193 992 164 992 q 758 992 579 999 q 807 969 788 990 q 825 919 826 949 q 803 871 824 890 q 753 853 782 851 q 267 854 578 860 q 276 567 275 724 q 689 571 368 567 q 739 551 718 571 q 760 502 760 531 q 740 453 760 474 q 692 432 719 432 q 276 428 369 428 q 275 258 276 382 q 274 67 274 133 q 253 17 274 38 q 204 -3 233 -3 q 155 17 175 -3 q 135 67 135 38 l 135 67 z "},"G":{"ha":1042,"x_min":54,"x_max":996,"o":"m 683 8 q 376 38 539 -36 q 136 238 213 111 q 67 433 81 331 q 78 612 54 536 q 154 767 103 688 q 275 901 206 846 q 440 985 351 960 q 620 997 528 1010 q 806 922 713 985 q 976 747 900 858 q 988 695 993 724 q 958 650 982 667 q 906 639 933 633 q 861 668 878 644 q 733 802 801 754 q 599 858 664 850 q 474 849 533 865 q 363 789 417 831 q 247 651 289 732 q 206 490 206 582 q 257 311 206 399 q 430 168 311 221 q 643 143 549 115 q 783 244 729 169 q 835 407 836 318 q 571 399 713 406 q 522 417 543 397 q 499 465 500 436 q 517 517 497 494 q 565 540 536 539 q 901 549 742 549 q 951 528 931 549 q 972 478 972 507 l 972 468 q 913 185 996 318 q 683 8 831 53 l 683 8 z "},"H":{"ha":1015,"x_min":122,"x_max":894,"o":"m 272 68 q 251 19 272 39 q 201 0 231 0 q 153 21 172 0 q 133 71 133 42 q 129 481 136 199 q 128 928 122 764 q 150 976 129 956 q 199 994 171 996 q 248 972 228 993 q 267 922 268 951 q 267 571 263 774 q 747 581 594 582 q 754 925 746 769 q 777 973 756 954 q 828 990 799 992 q 876 967 857 989 q 893 917 894 946 q 885 640 886 754 q 888 331 885 503 q 892 69 892 160 q 872 20 892 40 q 822 0 851 0 q 773 20 793 0 q 753 69 753 40 q 749 442 753 118 q 269 432 599 443 q 272 68 275 197 l 272 68 z "},"I":{"ha":431,"x_min":47,"x_max":382,"o":"m 121 -3 q 71 16 92 -4 q 49 65 50 36 q 67 114 47 93 q 115 136 88 135 l 146 138 q 143 856 146 569 l 121 856 q 72 876 92 856 q 53 926 53 897 q 74 975 53 956 q 124 994 94 994 q 296 992 194 993 q 344 971 324 992 q 364 922 364 950 q 343 873 364 893 q 293 853 322 853 l 282 853 q 285 139 285 568 l 313 139 q 362 119 342 139 q 382 69 382 99 q 362 20 382 40 q 313 0 342 0 q 121 -3 206 0 l 121 -3 z "},"J":{"ha":750,"x_min":10,"x_max":746,"o":"m 308 3 q 154 26 228 -7 q 44 138 81 58 q 30 178 36 154 q 20 226 24 203 q 15 251 17 250 q 24 303 10 279 q 67 334 39 328 q 120 326 96 340 q 151 282 144 311 q 158 243 156 261 q 163 216 161 225 q 169 196 165 207 q 217 150 185 165 q 292 140 249 135 q 369 169 335 146 q 414 224 403 193 q 451 409 442 294 q 458 619 461 524 q 446 856 454 714 q 325 850 383 854 q 274 867 296 849 q 251 915 253 886 q 267 965 249 943 q 314 989 286 986 q 506 996 406 994 l 514 996 q 678 993 589 996 q 726 971 706 992 q 744 922 746 950 q 722 873 743 893 q 672 854 701 853 l 585 857 q 544 174 619 368 q 450 57 515 101 q 308 3 385 13 l 308 3 z "},"K":{"ha":896,"x_min":124,"x_max":899,"o":"m 419 474 l 275 354 q 282 72 276 192 q 265 22 283 43 q 217 -1 246 0 q 166 16 188 -3 q 143 64 144 35 q 138 228 139 147 q 136 432 136 328 q 135 594 136 536 q 129 744 135 631 q 125 925 124 857 q 146 974 125 954 q 196 993 167 993 q 244 972 225 993 q 264 922 264 951 q 268 744 263 856 q 274 597 274 633 q 275 532 274 567 q 728 969 493 714 q 776 992 747 990 q 826 974 806 993 q 849 925 847 954 q 831 875 850 896 q 524 565 675 703 l 881 111 q 895 60 899 89 q 869 14 892 32 q 819 -1 847 -4 q 772 25 790 3 l 419 474 z "},"L":{"ha":799,"x_min":125,"x_max":792,"o":"m 463 -3 q 206 -1 282 -6 q 160 19 179 0 q 139 65 140 38 q 138 78 138 72 q 131 451 136 157 q 125 932 125 746 q 145 981 125 961 q 194 1001 165 1001 q 244 981 224 1001 q 264 932 264 961 q 266 663 264 792 q 272 378 268 533 q 275 136 275 224 q 497 138 347 135 q 724 139 646 140 q 772 118 753 139 q 792 68 792 97 q 771 19 792 39 q 721 0 750 0 q 463 -3 646 1 l 463 -3 z "},"M":{"ha":1199,"x_min":122,"x_max":1075,"o":"m 1067 65 q 1044 17 1065 36 q 994 -1 1024 -3 q 946 21 965 0 q 928 71 926 42 q 932 403 933 113 q 931 735 931 693 q 683 379 824 596 q 640 349 668 354 q 588 358 611 343 q 585 360 586 360 q 564 379 572 368 q 367 628 506 461 l 276 736 q 281 497 281 632 q 278 288 281 431 q 276 71 276 144 q 256 22 276 42 q 207 1 236 1 q 158 22 178 1 q 138 71 138 42 q 140 288 138 144 q 142 499 142 431 q 125 917 142 758 q 140 968 122 946 q 188 993 158 990 q 214 990 201 994 q 267 964 246 989 l 474 718 q 621 536 561 614 q 944 968 807 819 q 956 978 950 974 q 1007 997 978 999 q 1056 975 1036 996 q 1074 925 1075 954 q 1070 492 1068 779 q 1067 65 1072 206 l 1067 65 z "},"N":{"ha":1044,"x_min":122,"x_max":921,"o":"m 844 -4 q 826 -1 835 -4 q 760 22 786 -8 q 681 126 722 68 q 614 225 640 183 l 544 335 l 481 435 q 264 742 386 581 q 269 400 263 625 q 275 68 275 175 q 255 19 275 39 q 206 -1 235 -1 q 156 19 176 -1 q 136 68 136 39 q 129 445 136 151 q 128 897 122 739 q 138 940 129 918 q 165 979 144 960 q 217 992 188 994 q 264 967 246 989 q 597 510 461 721 l 654 419 l 719 317 l 776 232 q 779 922 783 694 q 799 972 779 951 q 847 993 818 993 q 897 974 876 993 q 918 925 918 954 q 914 64 921 751 q 893 16 914 36 q 844 -4 872 -4 l 844 -4 z "},"O":{"ha":1058,"x_min":60,"x_max":996,"o":"m 433 -4 q 301 34 361 6 q 200 104 242 63 q 127 199 158 146 q 83 309 96 251 q 65 428 69 367 q 67 546 60 489 q 99 686 75 618 q 165 815 124 754 q 262 917 207 875 q 390 979 317 960 q 538 1001 464 999 q 607 999 571 1003 q 717 976 675 990 q 876 878 813 944 q 967 733 939 813 q 995 563 994 653 q 974 388 996 474 q 908 222 953 301 q 792 87 864 143 q 626 6 719 31 q 433 -4 532 -18 l 433 -4 m 454 138 q 694 192 583 114 q 842 425 807 269 q 851 603 863 519 q 793 751 840 688 q 679 840 746 814 q 628 857 647 853 q 583 861 610 861 q 538 863 563 861 q 468 858 511 864 q 306 760 389 849 q 207 531 222 672 q 217 346 196 432 q 301 207 239 260 q 454 138 363 156 l 454 138 z "},"P":{"ha":874,"x_min":121,"x_max":853,"o":"m 136 65 q 126 475 136 79 q 135 919 121 749 q 159 967 138 949 q 210 983 181 985 q 236 975 224 982 q 529 990 399 1008 q 826 782 758 958 q 847 644 853 697 q 815 548 840 590 q 749 479 789 506 q 669 437 710 453 q 583 413 629 421 q 268 403 442 383 q 275 65 275 136 q 255 16 275 36 q 206 -4 235 -4 q 156 16 176 -4 q 136 65 136 36 l 136 65 m 265 540 q 283 542 274 542 q 556 549 435 524 q 708 660 699 578 q 696 732 711 679 q 511 853 658 832 q 269 840 406 867 q 265 540 263 718 l 265 540 z "},"Q":{"ha":1081,"x_min":56,"x_max":1072,"o":"m 976 -69 q 749 43 856 -29 q 685 17 719 29 q 331 47 519 -43 q 141 212 210 104 q 64 438 72 319 q 98 678 56 557 q 228 886 140 800 q 256 909 242 897 q 289 931 271 921 l 318 949 q 351 965 329 956 l 382 976 q 413 990 389 981 q 438 1000 436 1000 q 503 993 472 1014 q 700 985 608 1014 q 860 885 792 956 q 974 698 935 808 q 1013 467 1014 588 q 988 285 1011 368 q 897 136 964 203 q 881 122 889 131 q 1021 58 947 85 q 1060 24 1047 49 q 1063 -28 1072 -1 q 1028 -67 1053 -54 q 976 -69 1003 -79 l 976 -69 m 622 139 q 563 199 593 167 q 542 246 542 217 q 562 294 542 275 q 610 314 582 314 q 658 294 639 314 q 761 204 711 243 q 801 235 785 218 q 858 331 842 275 q 875 469 874 388 q 847 649 876 565 q 763 789 817 733 q 468 843 646 907 q 417 844 442 833 q 324 788 354 817 q 207 574 232 699 q 231 335 182 449 q 392 169 281 222 q 622 139 518 110 l 622 139 z "},"R":{"ha":988,"x_min":125,"x_max":935,"o":"m 765 147 l 740 217 q 721 276 733 244 q 694 328 708 307 q 619 387 668 365 q 468 414 569 408 q 440 413 454 414 q 385 408 426 413 q 326 403 344 404 q 268 401 288 399 q 271 71 271 199 q 251 22 271 42 q 201 1 231 1 q 152 22 172 1 q 132 71 132 42 q 128 480 132 207 q 125 889 125 753 q 140 932 125 913 q 160 965 144 951 q 196 982 175 979 q 374 997 275 994 q 603 982 472 999 q 691 963 650 975 q 777 928 732 951 q 853 876 822 906 q 904 801 885 846 q 921 700 924 756 q 746 474 915 549 q 808 407 782 446 q 846 335 828 378 q 874 258 864 292 q 901 171 885 224 q 926 86 917 118 q 921 34 935 60 q 880 0 907 8 q 827 6 853 -8 q 793 47 801 19 l 765 147 m 283 551 q 307 553 293 553 q 365 554 329 554 q 454 554 435 556 l 468 554 q 667 592 589 563 q 782 706 779 632 q 581 846 786 811 q 264 851 439 869 q 267 549 264 735 l 283 551 z "},"S":{"ha":840,"x_min":57,"x_max":779,"o":"m 404 -14 q 226 24 306 -14 q 102 130 147 63 q 57 283 57 197 q 78 337 57 317 q 129 357 100 357 q 169 343 151 357 q 192 301 188 329 q 422 122 211 122 q 582 167 524 122 q 640 281 640 211 q 600 351 640 322 q 490 401 560 379 l 447 417 q 250 492 310 463 q 122 593 164 535 q 79 731 79 651 q 124 864 79 800 q 248 967 168 928 q 426 1007 328 1007 q 610 969 529 1007 q 735 869 690 932 q 779 736 779 807 q 759 680 779 700 q 710 660 739 660 q 663 680 682 660 q 643 733 643 700 q 613 801 643 768 q 533 853 583 833 q 422 874 482 874 q 269 838 319 874 q 217 740 219 803 q 238 682 215 707 q 307 631 260 657 q 401 587 351 607 q 535 539 451 567 q 712 441 646 501 q 778 285 778 381 q 725 128 778 196 q 587 23 672 60 q 404 -14 501 -14 l 404 -14 z "},"T":{"ha":835,"x_min":15,"x_max":818,"o":"m 476 69 q 456 21 476 40 q 406 1 435 1 q 357 22 376 1 q 338 72 338 43 q 336 465 339 121 q 344 854 335 717 q 89 851 193 856 q 39 870 60 850 q 17 919 18 890 q 35 968 15 947 q 83 990 56 989 q 415 993 203 994 q 747 993 628 992 q 797 974 776 993 q 818 925 818 954 q 799 875 818 896 q 750 854 779 854 q 483 853 651 853 q 475 467 474 719 q 476 69 478 121 l 476 69 z "},"U":{"ha":1017,"x_min":101,"x_max":924,"o":"m 164 163 q 110 340 124 222 q 106 547 101 428 q 117 757 108 625 q 128 928 126 889 q 149 976 128 957 q 199 996 169 996 q 247 975 228 996 q 267 925 267 954 q 256 754 265 888 q 244 543 247 621 q 249 356 240 432 q 278 240 257 271 q 410 148 326 171 q 576 154 493 125 q 704 254 658 183 q 783 558 779 365 q 779 742 785 628 q 769 925 771 889 q 789 975 769 954 q 838 996 808 996 q 888 976 867 996 q 908 928 908 957 q 917 750 910 894 q 922 554 924 631 q 821 176 917 322 q 680 51 768 97 q 499 0 592 6 q 314 35 406 -6 q 164 163 222 76 l 164 163 z "},"V":{"ha":858,"x_min":21,"x_max":840,"o":"m 400 3 q 296 192 361 18 l 243 331 l 126 628 l 31 904 q 33 957 21 931 q 71 994 44 983 q 124 992 97 1004 q 161 954 150 981 l 279 619 q 425 249 369 381 l 528 515 q 701 954 632 794 q 740 991 714 981 q 793 990 767 1001 q 830 951 819 978 q 829 899 840 925 q 658 467 763 747 q 490 40 542 163 q 453 3 479 14 q 400 3 426 -8 l 400 3 z "},"W":{"ha":1265,"x_min":28,"x_max":1238,"o":"m 306 1 q 257 54 265 13 q 250 72 253 63 q 36 911 163 471 q 42 964 28 939 q 83 997 56 989 q 136 992 111 1006 q 169 950 161 978 q 333 292 258 636 l 442 619 q 547 933 513 824 q 562 973 549 956 q 597 997 575 990 q 610 1000 601 1000 q 629 997 618 1000 q 665 972 651 990 q 678 932 678 954 q 896 257 774 638 l 1096 956 q 1130 997 1104 983 q 1183 1003 1156 1011 q 1224 969 1210 994 q 1229 917 1238 943 l 968 49 q 934 8 960 22 q 881 3 908 -6 q 842 33 856 11 q 826 58 832 44 q 607 728 703 428 l 556 542 l 494 368 l 444 217 q 392 49 414 124 q 358 7 383 21 q 306 1 333 -7 l 306 1 z "},"X":{"ha":786,"x_min":0,"x_max":782,"o":"m 131 31 q 85 2 114 7 q 33 14 57 -3 q 5 59 10 31 q 17 111 0 88 l 308 508 q 67 888 213 649 q 59 940 53 913 q 90 983 65 968 q 143 991 115 997 q 186 960 171 985 q 396 626 332 722 l 642 963 q 687 990 658 985 q 738 977 715 994 q 766 931 761 960 q 753 879 771 903 l 481 507 l 508 474 q 576 392 556 419 q 767 103 683 246 q 774 50 782 78 q 742 8 767 22 q 689 1 717 -7 q 647 33 661 8 q 465 308 565 174 q 404 382 451 326 l 396 392 l 131 31 l 131 31 z "},"Y":{"ha":811,"x_min":1,"x_max":813,"o":"m 342 63 q 335 243 336 103 q 332 363 333 332 l 110 728 q 15 894 58 814 q 10 947 1 919 q 43 989 18 975 q 96 994 68 1003 q 138 961 124 986 q 397 521 200 844 q 476 639 424 564 q 549 746 529 714 q 613 856 558 761 q 682 969 653 926 q 726 999 697 993 q 778 988 754 1004 q 807 944 801 972 q 796 892 813 915 q 733 786 778 864 l 668 674 q 574 535 643 635 q 474 372 504 436 q 471 365 472 368 q 474 244 472 335 q 481 76 475 114 q 465 25 483 47 q 417 0 446 3 q 367 16 389 -3 q 342 63 344 35 l 342 63 z "},"Z":{"ha":851,"x_min":-1,"x_max":849,"o":"m 774 -6 q 231 0 486 13 l 219 -1 q 197 -3 208 -3 q 167 -5 185 -4 q 138 -4 150 -6 q 7 90 33 6 q 14 154 -1 119 q 32 188 19 168 q 82 256 50 215 q 171 365 121 307 l 265 475 l 379 597 l 471 704 l 568 813 l 575 822 l 588 838 l 601 854 l 392 854 q 119 836 214 854 q 67 847 90 831 q 38 891 43 863 q 48 943 32 919 q 92 972 64 967 q 392 993 199 993 l 703 993 q 708 992 706 993 q 718 989 714 990 q 749 969 735 985 q 765 865 785 928 q 732 800 756 836 q 696 750 718 776 l 685 736 q 676 726 678 728 l 371 386 l 276 276 l 192 172 q 164 135 174 149 q 193 137 174 135 q 225 139 213 139 q 782 133 488 151 q 830 110 811 132 q 847 60 849 89 q 824 12 846 31 q 774 -6 803 -7 l 774 -6 z "},"a":{"ha":786,"x_min":36,"x_max":704,"o":"m 476 22 q 363 0 426 3 q 246 15 300 -3 q 150 68 192 32 q 57 217 78 128 q 56 376 36 306 q 115 515 75 447 q 201 628 154 582 q 308 707 247 675 q 436 738 369 739 q 576 701 503 738 q 601 685 588 696 q 624 665 614 674 l 642 647 q 650 638 650 639 q 674 588 672 618 q 697 413 692 504 q 701 240 703 321 q 703 69 699 160 q 685 21 704 42 q 636 -1 665 0 q 586 17 607 -3 q 564 64 565 36 l 564 85 q 476 22 522 42 l 476 22 m 414 147 q 447 158 435 153 q 478 175 460 164 q 518 203 497 186 q 556 244 539 219 q 563 250 558 247 q 539 551 563 438 q 530 562 535 557 q 523 569 525 567 q 517 574 521 572 q 510 579 514 576 q 369 581 443 615 q 240 454 296 547 q 185 290 185 360 q 239 174 186 219 q 318 140 271 147 q 414 147 365 133 l 414 147 z "},"b":{"ha":782,"x_min":89,"x_max":742,"o":"m 157 0 q 108 23 128 1 q 90 72 89 44 q 94 172 93 135 q 97 277 96 221 q 99 372 99 333 q 99 466 100 411 q 99 551 99 521 q 98 656 99 581 q 97 752 97 732 q 94 841 96 772 q 93 924 93 910 q 113 974 93 953 q 161 994 132 994 q 211 975 190 994 q 232 926 232 956 q 236 693 236 740 q 279 715 257 707 q 450 734 374 750 q 588 661 526 718 q 674 539 640 611 q 718 408 708 467 q 657 113 742 232 q 529 14 608 43 q 350 0 451 -17 q 225 44 282 11 q 198 11 217 24 q 157 0 179 -1 l 157 0 m 372 136 q 544 193 490 118 q 581 390 597 268 q 493 560 564 493 q 329 588 424 624 q 312 578 319 583 q 296 564 304 574 l 279 550 q 260 527 274 543 q 238 503 246 511 q 235 221 239 358 l 236 219 q 372 136 283 151 l 372 136 z "},"c":{"ha":739,"x_min":56,"x_max":692,"o":"m 417 -3 q 262 25 338 -4 q 138 110 186 54 q 72 249 88 168 q 70 404 56 331 q 119 546 85 478 q 186 638 147 597 q 277 708 225 679 q 388 738 329 736 q 515 713 447 740 q 589 660 551 696 l 633 615 q 658 568 656 597 q 642 517 661 539 q 594 493 624 496 q 544 510 565 490 q 515 536 532 519 l 492 560 q 460 585 472 579 q 340 584 397 613 q 243 481 283 556 q 202 325 201 403 q 243 201 203 247 q 315 154 268 172 q 415 136 363 136 q 553 213 522 139 l 551 219 l 551 260 q 574 308 553 289 q 625 325 596 326 q 673 302 654 324 q 690 251 692 281 l 690 221 q 681 160 692 186 q 576 39 649 79 q 417 -3 503 -1 l 417 -3 z "},"d":{"ha":796,"x_min":61,"x_max":706,"o":"m 636 0 q 596 13 614 0 q 571 60 578 25 q 446 4 511 17 q 281 14 356 -12 q 154 101 206 40 q 63 376 61 210 q 160 635 64 526 q 463 731 275 764 q 560 701 526 719 l 557 924 q 577 974 557 953 q 626 994 597 994 q 675 974 654 994 q 696 926 696 954 q 706 69 706 293 q 685 20 706 40 q 636 0 665 0 l 636 0 m 421 140 q 476 160 447 146 q 517 183 506 174 q 535 199 529 192 q 550 215 542 206 q 565 243 558 224 q 563 524 565 419 q 560 525 561 524 q 501 576 501 575 q 438 594 486 586 q 264 542 326 614 q 201 376 201 474 q 260 191 200 261 q 421 140 319 121 l 421 140 z "},"e":{"ha":824,"x_min":53,"x_max":783,"o":"m 433 -7 q 254 35 331 0 q 138 122 178 69 q 79 219 97 175 q 57 308 61 264 q 61 421 53 351 q 102 536 71 479 q 185 638 133 593 q 311 708 238 683 q 468 722 385 732 q 606 678 549 713 q 703 592 663 644 q 745 525 738 547 q 759 483 753 503 q 769 450 765 464 q 777 422 774 436 q 782 388 781 407 q 772 339 783 361 q 739 304 761 317 q 700 297 721 297 l 463 293 q 213 288 213 292 l 208 288 q 284 176 226 217 q 442 129 342 136 q 532 135 496 126 q 590 155 572 146 q 635 179 608 164 q 688 176 661 189 q 724 138 714 164 q 722 86 733 111 q 685 47 710 61 q 639 26 663 35 q 569 4 615 17 q 433 -7 524 -8 l 433 -7 m 211 424 q 629 432 292 428 q 589 511 617 474 q 451 585 533 575 q 300 548 365 596 q 211 424 235 500 l 211 424 z "},"f":{"ha":429,"x_min":11,"x_max":413,"o":"m 185 0 q 142 15 160 0 q 121 60 124 31 q 96 476 99 242 l 94 581 l 83 581 q 30 601 49 581 q 11 651 11 621 q 28 701 11 679 q 75 722 44 722 l 100 722 q 124 880 100 804 q 196 982 149 956 q 285 1007 243 1007 q 378 986 343 1007 q 413 926 413 965 q 397 875 413 894 q 354 856 382 856 q 338 857 346 856 q 324 860 331 858 q 283 865 304 865 q 251 827 260 865 q 239 722 243 789 l 299 722 q 349 701 331 722 q 368 653 368 681 q 349 604 368 625 q 299 583 331 583 l 233 583 l 235 478 q 257 85 247 169 q 239 19 261 39 q 185 0 217 0 l 185 0 z "},"g":{"ha":801,"x_min":54,"x_max":719,"o":"m 406 -285 q 251 -267 325 -292 q 128 -179 176 -242 q 98 -121 110 -156 q 100 -60 86 -86 q 141 -26 114 -35 q 194 -32 168 -18 q 228 -72 219 -46 q 235 -102 231 -83 q 265 -139 239 -121 q 403 -158 328 -161 q 507 -130 471 -156 q 553 -71 543 -104 q 575 79 567 -24 q 415 13 522 24 q 251 38 324 8 q 135 124 178 68 q 74 247 93 179 q 60 411 54 313 q 179 657 71 564 q 471 725 300 753 q 569 675 533 704 q 622 743 571 731 q 676 728 656 746 q 700 682 696 710 q 718 268 715 513 q 710 36 719 129 q 644 -172 699 -103 q 536 -259 590 -240 q 406 -285 482 -278 l 406 -285 m 406 154 q 485 167 457 153 q 578 299 565 192 q 571 456 585 381 q 514 538 561 503 q 443 567 486 560 q 272 533 332 586 q 207 399 215 488 q 253 217 200 282 q 406 154 307 153 l 406 154 z "},"h":{"ha":768,"x_min":88,"x_max":696,"o":"m 681 67 q 658 18 679 38 q 609 -1 638 -1 q 561 21 581 0 q 542 69 542 42 q 550 200 542 71 q 553 415 558 342 q 425 597 540 589 q 324 578 364 601 q 247 499 285 556 q 236 479 244 494 q 246 68 246 179 q 226 19 246 39 q 176 -1 206 -1 q 127 19 147 -1 q 107 68 107 39 q 96 500 107 132 q 93 939 88 776 q 115 987 94 967 q 165 1006 136 1007 q 213 983 193 1004 q 232 933 233 963 q 231 643 231 896 q 439 736 319 746 q 692 426 669 717 q 694 286 696 346 q 686 154 692 226 q 681 67 681 82 l 681 67 z "},"i":{"ha":325,"x_min":81,"x_max":244,"o":"m 92 67 q 92 386 89 171 q 96 668 96 601 q 116 717 96 697 q 165 738 136 738 q 215 717 194 738 q 235 668 235 697 q 231 388 235 601 q 231 69 228 174 q 211 19 231 40 q 163 -1 192 -1 q 113 18 133 -1 q 92 67 92 38 l 92 67 m 221 978 q 244 919 244 954 q 221 861 244 885 q 163 838 197 838 q 104 861 128 838 q 81 919 81 885 q 104 978 81 954 q 163 1002 128 1001 q 221 978 199 1003 l 221 978 z "},"j":{"ha":331,"x_min":-31,"x_max":249,"o":"m 79 -247 q 26 -255 54 -262 q -16 -222 -1 -247 q -23 -169 -31 -197 q 10 -128 -15 -142 q 60 -101 11 -126 q 83 -87 76 -93 q 89 -68 86 -81 q 101 10 97 -40 q 108 246 110 99 q 92 669 107 344 q 110 719 90 697 q 158 742 129 740 q 208 724 186 743 q 231 675 229 704 q 247 247 246 349 q 239 -4 249 96 q 224 -101 233 -64 q 183 -185 211 -158 q 122 -225 161 -207 q 105 -234 121 -226 q 79 -247 89 -242 l 79 -247 m 200 972 q 221 924 221 953 q 201 874 221 894 q 151 854 181 854 q 102 874 122 854 q 82 924 82 894 q 102 973 82 953 q 151 993 122 993 q 200 972 181 993 l 200 972 z "},"k":{"ha":681,"x_min":89,"x_max":688,"o":"m 565 22 q 318 353 406 199 l 243 290 q 238 286 240 288 q 229 65 235 178 q 206 17 228 36 q 156 -1 185 -3 q 108 22 128 0 q 90 71 89 43 q 106 925 106 390 q 126 974 106 954 q 175 994 146 994 q 224 974 204 994 q 244 925 244 954 q 242 469 244 653 q 522 714 444 639 q 569 738 540 736 q 620 720 599 739 q 643 672 642 701 q 625 622 644 643 q 426 443 556 554 q 668 114 510 290 q 686 65 688 93 q 663 17 685 36 q 613 -1 642 -3 q 565 22 585 0 l 565 22 z "},"l":{"ha":310,"x_min":82,"x_max":228,"o":"m 222 67 q 200 18 221 38 q 150 0 179 -1 q 101 22 121 1 q 83 72 82 43 q 89 353 89 257 q 86 639 89 449 q 83 925 83 829 q 103 974 83 954 q 153 994 124 994 q 202 974 182 994 q 222 925 222 954 q 225 653 222 829 q 227 333 228 476 q 222 67 226 189 l 222 67 z "},"m":{"ha":1149,"x_min":90,"x_max":1074,"o":"m 933 61 q 930 108 932 86 q 927 140 928 129 q 926 158 926 150 q 925 175 925 165 l 925 254 q 927 333 925 276 q 928 428 929 389 q 921 501 928 467 q 892 572 913 550 q 828 593 871 593 q 636 476 732 592 q 640 315 640 435 q 644 71 640 228 q 626 22 646 43 q 577 0 606 1 q 528 19 549 -1 q 506 68 507 39 q 501 315 501 225 l 501 385 q 501 414 501 392 q 499 447 500 436 q 497 474 499 457 q 492 505 494 492 q 486 531 490 518 q 456 585 475 569 q 393 597 435 601 q 314 572 347 593 q 249 506 282 551 q 233 490 242 497 q 233 67 239 213 q 211 18 232 38 q 161 0 190 -1 q 113 22 132 1 q 94 72 93 43 q 97 270 97 226 q 94 472 97 314 q 90 674 90 629 q 110 715 90 694 q 158 736 131 736 q 208 719 186 736 q 229 654 231 701 q 382 736 292 728 q 542 693 478 744 q 601 619 575 667 q 828 736 688 728 q 993 672 931 738 q 1058 526 1042 615 q 1067 435 1065 485 q 1066 324 1068 386 q 1064 254 1064 263 l 1064 178 q 1065 164 1064 171 q 1066 148 1065 157 q 1068 118 1067 139 q 1072 72 1069 97 q 1055 22 1074 43 q 1008 -2 1036 0 q 958 15 979 -4 q 933 61 936 33 l 933 61 z "},"n":{"ha":783,"x_min":90,"x_max":706,"o":"m 164 0 q 115 19 136 0 q 94 69 94 38 q 93 258 94 179 q 90 668 90 494 q 110 718 90 700 q 157 736 129 736 q 208 717 186 736 q 229 665 229 699 l 229 622 q 456 735 315 735 q 641 650 576 735 q 706 422 706 565 q 701 214 706 264 l 694 121 l 690 61 q 668 17 688 33 q 622 0 649 0 q 574 19 594 0 q 553 69 553 38 q 563 224 553 92 q 569 365 569 314 q 536 540 569 483 q 433 596 503 596 q 330 565 383 596 q 229 488 276 535 l 232 290 l 233 69 q 213 19 233 38 q 164 0 192 0 l 164 0 z "},"o":{"ha":789,"x_min":51,"x_max":738,"o":"m 468 10 q 175 83 285 -35 q 67 315 88 174 q 93 526 51 426 q 251 715 143 654 q 307 733 274 728 q 326 735 308 733 q 338 738 333 736 q 379 733 358 742 q 406 733 385 733 q 433 731 426 732 q 458 728 440 731 q 486 724 475 726 l 513 714 q 544 700 529 708 q 578 681 560 692 q 703 509 668 619 q 721 331 738 399 q 676 191 708 256 q 588 76 644 126 q 468 10 532 26 l 468 10 m 425 154 q 527 216 485 163 q 583 329 569 269 q 573 460 596 389 q 500 564 550 532 q 475 580 485 575 q 452 588 465 585 q 431 592 439 592 q 399 593 424 592 q 354 596 374 594 q 344 597 350 596 q 328 596 329 596 l 318 593 q 224 487 257 560 q 206 336 192 414 q 274 193 221 242 q 425 154 331 140 l 425 154 z "},"p":{"ha":806,"x_min":90,"x_max":744,"o":"m 229 -210 q 208 -258 229 -239 q 158 -278 188 -278 q 110 -257 129 -278 q 90 -207 90 -236 q 96 667 96 67 q 116 716 96 696 q 165 736 136 736 q 203 717 186 736 q 229 671 221 699 l 249 683 q 414 738 332 733 q 561 701 496 742 q 665 604 622 667 q 726 468 707 542 q 743 356 742 415 q 728 244 744 296 q 679 143 711 193 q 590 56 647 93 q 457 4 532 18 q 233 49 328 -19 q 229 -210 232 -81 l 229 -210 m 432 140 q 580 241 538 160 q 593 432 622 322 q 492 581 564 540 q 321 564 418 624 q 269 529 276 538 q 263 522 265 525 q 253 506 260 518 l 235 481 l 235 253 q 246 238 242 246 q 328 153 285 176 q 432 140 371 129 l 432 140 z "},"q":{"ha":811,"x_min":61,"x_max":738,"o":"m 725 -203 q 703 -251 724 -231 q 653 -269 682 -271 q 605 -247 625 -268 q 586 -197 585 -226 q 593 72 590 -76 q 517 22 554 39 q 336 6 439 -14 q 207 58 263 19 q 121 149 151 97 q 76 255 90 201 q 63 356 61 308 q 78 456 65 403 q 148 597 103 535 q 244 694 193 660 q 590 658 411 799 l 594 657 q 619 715 600 699 q 661 731 638 731 q 711 711 690 731 q 732 663 732 692 q 733 507 733 575 q 733 486 736 496 q 725 -203 738 174 l 725 -203 m 361 142 q 458 147 421 131 q 495 172 476 156 q 524 199 514 188 q 560 240 535 210 l 596 282 l 596 472 l 582 488 q 567 506 572 500 q 518 542 556 517 q 322 569 404 611 q 213 418 247 531 q 222 246 182 332 q 361 142 263 160 l 361 142 z "},"r":{"ha":501,"x_min":90,"x_max":518,"o":"m 164 0 q 115 19 136 0 q 94 69 94 38 l 92 353 q 90 592 90 449 l 90 674 q 110 724 90 706 q 157 742 129 742 q 208 723 186 742 q 229 671 229 704 l 229 629 q 286 686 244 663 q 411 721 343 721 q 490 704 463 721 q 518 644 518 688 q 501 598 518 617 q 453 579 485 579 q 292 547 336 579 q 248 507 267 531 q 229 461 229 483 l 232 288 l 233 69 q 213 19 233 38 q 164 0 192 0 l 164 0 z "},"s":{"ha":688,"x_min":39,"x_max":654,"o":"m 239 0 q 90 83 136 18 q 58 161 68 113 l 53 192 q 47 214 50 206 q 53 265 39 240 q 94 297 67 290 q 147 292 122 304 q 181 251 172 279 q 189 217 185 236 q 191 203 190 210 q 196 182 192 197 q 215 151 200 164 q 265 132 232 136 q 385 135 321 121 q 482 175 447 149 q 503 221 507 197 q 454 279 499 260 q 310 313 426 292 q 139 374 189 336 q 79 576 47 442 q 159 691 99 654 q 293 732 219 728 q 420 717 356 735 q 531 669 485 700 q 563 643 546 658 q 595 610 579 628 q 614 590 611 592 q 635 542 635 569 q 615 495 635 515 q 566 475 594 475 q 517 494 538 475 q 489 521 503 507 l 469 544 q 450 558 461 551 q 382 587 424 575 q 300 597 340 599 q 215 546 226 593 q 224 481 203 496 q 336 444 249 463 q 513 401 465 422 q 642 236 626 350 q 572 75 654 143 q 414 4 510 24 q 239 0 322 -17 l 239 0 z "},"t":{"ha":426,"x_min":11,"x_max":418,"o":"m 321 4 q 287 13 313 7 q 242 25 261 18 q 199 45 224 32 q 156 81 175 58 q 122 136 136 104 q 103 283 107 174 q 101 501 99 368 q 103 585 101 526 l 92 583 q 40 599 63 581 q 15 645 18 617 q 29 696 11 674 q 75 722 47 718 l 107 725 q 111 874 108 799 q 133 922 113 903 q 183 940 154 942 q 232 918 213 939 q 250 868 251 897 l 246 736 l 292 739 q 342 722 321 740 q 366 675 364 704 q 350 624 368 646 q 303 600 332 603 l 242 597 q 240 500 240 531 q 242 288 238 369 q 250 192 244 204 q 258 174 256 179 q 269 165 261 169 q 285 158 276 160 q 316 151 293 157 q 365 135 339 144 q 405 101 392 126 q 409 48 418 75 q 374 8 400 21 q 321 4 349 -6 l 321 4 z "},"u":{"ha":774,"x_min":74,"x_max":689,"o":"m 603 0 q 559 19 578 1 q 538 81 540 38 q 406 8 474 25 q 228 40 308 -17 q 106 224 150 96 q 82 315 90 268 q 74 419 74 364 q 76 508 75 474 q 83 601 78 542 q 90 675 89 660 q 115 722 93 703 q 165 738 136 740 q 212 715 193 736 q 229 664 231 693 q 222 585 228 643 q 215 498 215 526 q 213 423 214 469 q 219 340 213 376 q 236 268 225 303 q 314 153 267 183 q 378 140 333 140 q 474 175 438 150 q 543 289 511 200 q 539 664 546 474 q 558 714 538 693 q 606 736 578 735 q 656 717 635 738 q 678 669 676 697 q 676 65 689 342 q 653 18 675 38 q 603 0 632 -1 l 603 0 z "},"v":{"ha":667,"x_min":-8,"x_max":664,"o":"m 315 0 q 268 14 289 -1 q 256 26 261 19 q 246 39 250 32 l 235 58 q 214 104 226 75 l 186 167 q 90 415 164 221 q 1 643 15 608 q 3 696 -8 669 q 42 733 15 722 q 94 731 68 743 q 132 693 121 719 q 219 465 143 663 q 314 219 294 268 l 319 207 q 329 227 325 217 q 336 244 333 238 q 340 256 339 250 l 343 261 q 417 450 353 283 q 528 700 482 617 q 569 733 542 725 q 622 728 597 742 q 656 686 647 714 q 650 633 664 658 q 548 403 606 553 q 471 206 490 253 l 432 121 q 396 57 413 82 q 371 28 383 39 q 315 0 346 3 l 315 0 z "},"w":{"ha":932,"x_min":0,"x_max":919,"o":"m 271 0 q 224 14 244 0 q 196 50 203 28 q 103 340 175 124 q 11 647 40 526 q 22 706 0 679 q 81 733 43 733 q 147 678 133 733 q 238 385 185 540 q 265 276 258 319 l 297 374 l 317 432 q 347 528 315 428 q 364 580 356 553 q 382 635 372 607 q 465 700 406 700 q 513 683 494 700 q 546 628 532 667 q 671 238 611 444 l 701 363 q 726 471 713 413 q 781 678 754 588 q 806 719 788 704 q 846 735 824 735 q 900 708 881 735 q 908 646 919 682 q 897 596 907 643 q 863 457 882 528 l 832 346 q 756 79 779 149 q 671 0 725 0 q 619 18 642 0 q 586 68 597 36 l 564 136 q 453 471 532 231 l 429 388 q 351 106 365 168 q 318 26 339 53 q 271 0 297 0 l 271 0 z "},"x":{"ha":650,"x_min":25,"x_max":629,"o":"m 314 278 q 160 35 236 168 q 118 2 146 10 q 65 9 90 -6 q 33 51 40 24 q 40 104 25 79 q 225 396 131 253 l 53 625 q 40 677 35 649 q 67 723 44 706 q 119 735 90 740 q 164 708 147 731 l 308 518 q 461 711 383 615 q 508 737 479 733 q 558 722 536 740 q 583 676 581 704 q 569 625 588 647 q 396 400 482 519 l 613 108 q 624 57 629 85 q 594 13 618 29 q 543 1 571 -4 q 499 31 515 7 l 314 278 z "},"y":{"ha":628,"x_min":-6,"x_max":619,"o":"m 74 -279 q 22 -263 44 -282 q -3 -216 0 -244 q 13 -165 -6 -187 q 60 -140 32 -143 q 93 -137 74 -139 q 119 -135 113 -136 q 135 -133 125 -135 q 150 -126 144 -131 l 164 -118 q 224 -25 197 -101 q 240 8 232 -1 q 225 35 231 19 q 122 351 200 142 q 19 647 53 536 q 25 700 11 675 q 67 733 39 725 q 119 728 94 742 q 153 686 144 714 q 253 400 179 597 l 306 256 q 483 701 403 553 q 525 735 497 726 q 578 729 553 743 q 611 688 603 715 q 606 635 619 660 q 531 472 569 568 q 469 311 492 376 q 411 129 447 246 q 400 90 403 101 q 381 18 393 72 q 356 -65 365 -33 q 250 -226 317 -174 q 211 -252 231 -242 q 170 -267 192 -262 q 136 -274 149 -272 q 101 -277 124 -276 q 74 -279 78 -278 l 74 -279 z "},"z":{"ha":664,"x_min":8,"x_max":675,"o":"m 326 0 q 157 3 219 -1 q 92 11 117 6 q 60 21 74 15 q 17 65 29 36 q 17 114 8 89 q 24 128 19 122 q 32 140 26 133 l 47 160 l 90 204 l 154 268 q 344 472 268 386 q 429 597 404 547 q 331 599 376 599 q 96 600 147 594 q 50 626 68 604 q 35 677 32 649 q 61 724 39 706 q 113 739 83 742 q 272 735 157 733 q 451 736 386 738 l 511 736 q 517 735 514 735 l 525 732 q 551 717 540 728 q 582 621 589 681 q 557 542 578 586 q 454 400 526 478 q 254 171 374 294 l 222 139 q 325 139 263 138 q 494 144 397 140 q 606 149 594 149 q 655 128 635 149 q 675 79 675 108 q 655 30 675 50 q 606 10 635 10 q 495 6 594 10 q 326 0 396 1 l 326 0 z "},"Á":{"ha":860,"x_min":10,"x_max":857,"o":"m 718 31 q 618 288 679 143 q 594 283 607 283 q 507 285 568 283 q 414 288 446 288 q 335 288 382 289 q 247 282 288 286 l 147 32 q 110 -6 136 6 q 58 -6 85 -17 q 21 31 32 6 q 21 83 10 57 l 372 960 q 409 997 382 986 q 463 997 436 1008 q 496 968 485 989 q 504 924 507 947 q 668 511 549 778 q 847 74 800 215 q 844 22 857 47 q 804 -13 831 -4 q 752 -9 778 -22 q 718 31 726 4 l 718 31 m 543 456 q 428 728 467 628 l 306 424 q 558 422 374 426 l 543 456 m 446 1047 q 399 1035 425 1032 q 354 1057 372 1038 q 339 1104 336 1076 q 363 1151 342 1132 l 503 1258 q 550 1269 522 1272 q 592 1240 578 1265 q 601 1189 606 1215 q 575 1146 596 1163 q 446 1047 511 1097 l 446 1047 z "},"Ă":{"ha":847,"x_min":11,"x_max":844,"o":"m 150 42 q 113 4 139 15 q 60 4 86 -7 q 22 42 33 15 q 22 94 11 68 l 94 286 l 158 461 l 239 658 q 340 922 308 829 q 374 963 349 950 q 428 965 400 975 q 450 954 440 961 q 489 917 476 943 l 833 96 q 834 43 844 69 q 797 6 824 17 q 743 5 769 -6 q 706 43 717 15 l 601 290 q 588 289 594 289 q 240 282 399 282 q 150 42 178 108 l 150 42 m 292 421 q 544 426 410 422 l 417 729 l 292 421 l 292 421 m 386 1040 q 160 1168 263 1042 q 146 1216 143 1190 q 170 1258 149 1242 q 217 1271 192 1274 q 260 1249 243 1268 q 388 1168 324 1167 q 526 1240 450 1167 q 572 1260 546 1260 q 616 1242 597 1261 q 635 1197 635 1224 q 617 1153 635 1171 q 386 1040 503 1039 l 386 1040 z "},"Â":{"ha":831,"x_min":10,"x_max":828,"o":"m 147 38 q 108 3 135 13 q 55 6 81 -7 q 19 45 29 18 q 22 99 10 72 q 124 344 64 199 q 129 361 125 353 l 350 915 q 401 957 364 950 q 410 961 406 960 q 464 961 438 972 q 500 924 490 950 l 636 583 l 696 431 l 763 246 l 819 85 q 815 31 828 57 q 774 -3 801 6 q 722 1 747 -12 q 686 40 696 14 q 608 267 651 147 q 594 265 601 265 q 414 261 533 265 q 238 257 294 257 q 147 38 183 128 l 147 38 m 293 396 q 421 400 332 397 l 557 404 l 426 735 l 293 396 l 293 396 m 321 1031 q 279 1011 304 1013 q 237 1026 254 1010 q 218 1068 219 1043 q 233 1111 217 1093 l 331 1219 q 365 1253 350 1242 q 425 1272 394 1274 q 479 1249 453 1269 q 514 1218 492 1240 q 614 1124 576 1156 q 633 1081 632 1106 q 619 1039 635 1057 q 578 1019 603 1021 q 535 1032 554 1017 q 429 1133 494 1068 l 421 1142 l 418 1140 l 321 1031 l 321 1031 z "},"Ä":{"ha":840,"x_min":10,"x_max":838,"o":"m 149 40 q 111 3 138 14 q 58 3 85 -8 q 21 40 32 14 q 21 93 10 67 q 181 519 83 243 q 340 954 292 835 q 369 988 349 976 q 414 996 390 1000 q 424 1000 418 999 q 476 994 451 1008 q 510 953 501 981 q 685 453 565 768 q 753 283 701 408 q 829 88 806 157 q 824 34 838 60 q 784 -1 811 8 q 731 3 757 -10 q 696 43 706 17 q 601 296 676 104 q 460 302 521 299 q 386 306 400 306 q 348 308 372 307 q 314 308 324 308 l 253 308 q 149 40 199 160 l 149 40 m 542 438 q 419 776 465 639 l 311 474 l 303 447 q 542 438 319 447 l 542 438 m 396 1128 q 367 1078 389 1099 q 303 1062 344 1058 q 242 1089 263 1065 q 219 1140 221 1113 q 233 1192 218 1167 q 285 1231 247 1217 q 308 1237 299 1236 q 326 1236 317 1238 q 356 1228 342 1235 q 393 1188 383 1217 q 396 1128 403 1158 l 396 1128 m 626 1126 q 598 1078 622 1097 q 534 1062 574 1058 q 474 1088 494 1065 q 453 1138 454 1111 q 459 1184 451 1165 q 490 1222 467 1203 q 540 1236 510 1238 q 575 1231 560 1236 q 601 1215 589 1226 q 624 1178 614 1204 q 626 1126 631 1158 l 626 1126 z "},"À":{"ha":851,"x_min":10,"x_max":847,"o":"m 147 31 q 108 -6 135 4 q 55 -3 81 -15 q 19 37 29 10 q 22 89 10 64 q 85 239 46 142 q 143 376 125 336 l 192 482 l 244 600 l 288 701 l 336 821 q 378 929 358 875 q 392 953 382 943 q 443 1000 404 990 q 495 990 471 1006 q 526 947 519 975 q 567 819 536 904 q 615 682 604 715 q 836 90 690 438 q 837 37 847 64 q 800 -1 826 10 q 747 -2 774 -12 q 708 35 719 8 q 611 272 654 160 q 249 271 396 276 l 217 194 l 181 106 q 147 31 165 67 l 147 31 m 311 413 q 558 413 419 414 q 482 640 518 524 q 450 732 471 676 q 311 413 406 621 l 311 413 m 371 1154 q 351 1201 351 1171 q 369 1253 350 1232 q 418 1274 389 1274 q 467 1257 447 1275 l 567 1160 q 591 1114 589 1143 q 574 1062 593 1085 q 523 1038 554 1039 q 475 1056 492 1036 l 371 1154 z "},"Ā":{"ha":849,"x_min":10,"x_max":846,"o":"m 151 42 q 113 3 140 14 q 59 3 86 -8 q 21 41 32 14 q 21 94 10 68 q 94 301 49 163 q 158 489 139 440 q 238 686 168 517 q 339 957 303 853 q 374 998 349 985 q 428 1001 400 1011 q 450 989 440 997 q 489 951 478 979 l 835 97 q 835 42 846 69 q 797 4 824 15 q 742 4 769 -7 q 704 42 715 15 l 600 311 q 536 308 543 308 q 242 301 349 301 q 151 42 179 118 l 151 42 m 293 443 q 543 449 410 444 l 417 754 l 293 443 l 293 443 z "},"Ą":{"ha":849,"x_min":10,"x_max":918,"o":"m 778 -282 q 633 -242 688 -285 q 572 -111 571 -189 q 619 26 572 -36 q 691 84 649 60 q 771 114 733 108 q 822 104 801 118 q 847 64 843 90 q 838 26 850 42 q 781 0 825 11 q 709 -37 733 -12 q 685 -101 685 -62 q 710 -159 685 -137 q 771 -181 735 -181 q 799 -176 788 -181 q 824 -162 811 -171 q 844 -152 833 -157 q 868 -147 856 -147 q 905 -160 892 -147 q 918 -194 918 -172 q 875 -256 918 -231 q 778 -282 832 -282 l 778 -282 m 151 42 q 113 3 140 14 q 59 3 86 -8 q 21 41 32 14 q 21 94 10 68 q 94 301 49 163 q 158 489 139 440 q 238 686 168 517 q 339 957 303 853 q 374 998 349 985 q 428 1001 400 1011 q 450 989 440 997 q 489 951 478 979 l 835 97 q 835 42 846 69 q 797 4 824 15 q 742 4 769 -7 q 704 42 715 15 l 600 311 q 536 308 543 308 q 242 301 349 301 q 151 42 179 118 l 151 42 l 151 42 m 293 443 q 543 449 410 444 l 417 754 l 293 443 l 293 443 l 293 443 z "},"Å":{"ha":851,"x_min":10,"x_max":849,"o":"m 707 29 q 635 194 688 90 l 599 268 q 456 274 517 271 q 383 278 396 278 q 344 280 369 279 q 310 281 319 281 l 247 281 q 149 32 197 147 q 110 -5 138 6 q 57 -4 83 -15 q 20 34 31 7 q 21 88 10 61 q 179 504 88 244 q 338 929 285 801 q 356 965 350 953 q 371 984 365 978 q 391 997 376 990 q 429 1004 406 1004 q 465 994 450 1004 q 490 965 479 985 q 507 925 493 960 q 682 425 563 740 q 760 257 699 381 q 840 74 817 143 q 835 20 849 46 q 795 -15 822 -6 q 742 -10 768 -24 q 707 29 717 3 l 707 29 m 539 410 q 417 750 463 613 l 310 457 l 297 419 q 539 410 317 419 l 539 410 m 561 1146 q 515 1062 551 1097 q 422 1035 479 1026 q 332 1081 365 1043 q 297 1163 299 1119 q 325 1249 294 1207 q 413 1303 356 1290 q 439 1314 422 1314 l 442 1314 q 447 1315 443 1314 q 456 1317 450 1315 q 497 1310 479 1318 q 558 1242 542 1289 q 561 1146 572 1193 l 561 1146 m 433 1114 q 483 1161 474 1108 q 483 1208 490 1188 q 465 1238 476 1229 l 464 1238 l 461 1236 q 454 1236 458 1236 q 447 1235 450 1236 q 431 1226 440 1229 q 382 1192 394 1217 q 384 1142 369 1167 q 433 1114 399 1118 l 433 1114 z "},"Ǻ":{"ha":849,"x_min":10,"x_max":846,"o":"m 442 1361 q 397 1349 422 1347 q 355 1370 372 1351 q 340 1415 338 1389 q 363 1461 343 1442 l 496 1563 q 542 1572 515 1575 q 581 1545 568 1569 q 590 1496 594 1521 q 565 1456 585 1471 q 442 1361 504 1408 l 442 1361 m 151 42 q 113 3 140 14 q 59 3 86 -8 q 21 41 32 14 q 21 94 10 68 q 94 301 49 163 q 158 489 139 440 q 238 686 168 517 q 339 957 303 853 q 374 998 349 985 q 428 1001 400 1011 q 450 989 440 997 q 489 951 478 979 l 835 97 q 835 42 846 69 q 797 4 824 15 q 742 4 769 -7 q 704 42 715 15 l 600 311 q 536 308 543 308 q 242 301 349 301 q 151 42 179 118 l 151 42 l 151 42 m 293 443 q 543 449 410 444 l 417 754 l 293 443 l 293 443 l 293 443 m 565 1144 q 517 1056 554 1093 q 419 1028 479 1019 q 324 1076 360 1036 q 287 1163 289 1117 q 317 1252 285 1208 q 408 1310 349 1296 q 436 1321 419 1321 l 439 1321 q 444 1322 440 1321 q 454 1324 449 1322 q 497 1317 479 1325 q 561 1244 544 1294 q 565 1144 576 1194 l 565 1144 m 431 1111 q 483 1161 472 1106 q 483 1210 490 1189 q 464 1240 476 1232 l 463 1240 l 460 1239 q 453 1239 457 1239 q 446 1238 449 1239 q 428 1229 438 1232 q 377 1193 390 1219 q 379 1141 364 1167 q 431 1111 394 1115 l 431 1111 z "},"Ã":{"ha":835,"x_min":10,"x_max":838,"o":"m 149 26 q 111 -11 138 0 q 58 -11 85 -22 q 21 26 32 0 q 21 79 10 53 q 167 492 69 215 q 326 926 278 807 q 356 960 335 949 q 400 968 376 972 q 410 972 404 971 q 463 967 438 981 q 496 925 488 953 q 671 425 551 740 q 749 257 688 381 q 829 74 806 143 q 824 20 838 46 q 784 -15 811 -6 q 731 -10 757 -24 q 696 29 706 3 q 624 194 676 90 l 588 268 q 447 274 507 271 q 372 278 386 278 q 334 280 358 279 q 300 281 310 281 l 239 281 q 149 26 185 132 l 149 26 m 528 410 q 406 749 451 611 l 297 446 l 289 419 q 528 410 306 419 l 528 410 m 553 1036 q 499 1044 528 1035 q 458 1061 471 1053 q 418 1086 444 1069 q 335 1122 361 1125 q 243 1069 293 1121 q 199 1053 221 1049 q 165 1073 176 1058 q 156 1108 154 1088 q 168 1147 157 1128 q 331 1242 246 1238 q 382 1235 354 1243 q 422 1217 410 1226 l 461 1193 q 547 1156 521 1154 q 619 1221 592 1157 q 659 1240 633 1240 q 697 1222 685 1239 q 707 1182 710 1206 q 693 1140 704 1158 q 553 1036 638 1040 l 553 1036 z "},"Æ":{"ha":1314,"x_min":0,"x_max":1258,"o":"m 665 -1 q 615 17 636 -3 q 593 65 594 36 q 596 88 593 76 q 593 267 596 171 l 251 272 l 138 28 q 98 -8 125 1 q 44 -4 71 -17 q 9 35 18 8 q 13 89 0 63 q 114 306 61 186 l 200 503 l 385 938 q 406 975 389 960 q 446 993 424 990 q 811 1003 583 1007 q 1165 1001 1086 997 q 1215 983 1193 1003 q 1238 935 1236 964 q 1219 885 1239 907 q 1171 863 1200 864 q 810 864 1076 858 l 707 864 q 719 575 710 765 q 947 576 799 574 q 1158 578 1094 578 q 1208 558 1188 578 q 1228 508 1228 538 q 1208 459 1228 479 q 1158 439 1188 439 q 948 437 1093 439 q 725 436 803 435 q 735 140 733 261 q 1189 146 918 146 q 1238 126 1218 146 q 1258 76 1258 106 q 1238 27 1258 47 q 1189 7 1218 7 q 665 -1 872 7 l 665 -1 m 588 406 q 581 550 586 458 q 574 718 576 642 q 568 863 571 794 q 501 858 533 861 l 313 410 q 588 406 453 407 l 588 406 z "},"Ǽ":{"ha":1310,"x_min":-6,"x_max":1254,"o":"m 1129 -14 q 1018 -13 1079 -14 q 903 -11 957 -12 q 733 -3 797 -8 q 668 6 693 0 q 640 13 653 8 q 603 35 617 21 q 593 49 597 42 q 588 60 589 56 l 586 64 q 585 71 585 67 l 583 75 l 583 86 q 582 107 582 93 q 579 179 581 132 l 575 267 q 260 261 454 261 q 193 136 235 210 l 131 29 q 90 -6 118 3 q 37 -1 63 -14 q 3 40 11 13 q 8 93 -6 68 q 72 204 24 124 q 143 338 118 286 q 197 461 169 393 l 240 571 l 289 701 q 332 818 321 790 q 329 836 329 826 q 349 885 329 865 q 399 906 369 906 q 638 909 476 906 q 926 912 800 913 q 1165 903 1053 911 q 1212 878 1193 900 q 1228 828 1231 857 q 1205 781 1226 800 q 1154 764 1183 763 q 693 771 986 776 l 693 767 q 701 563 694 742 q 1153 567 1025 561 q 1203 549 1182 568 q 1225 500 1224 529 q 1207 450 1226 471 q 1158 428 1188 429 q 707 424 1028 422 l 708 403 l 717 185 l 719 138 q 744 136 729 138 q 907 128 804 131 q 1022 126 961 126 q 1131 125 1082 125 l 1186 125 q 1234 104 1214 125 q 1254 55 1254 83 q 1233 6 1254 26 q 1183 -14 1213 -14 l 1129 -14 l 1129 -14 m 322 400 q 569 406 465 401 l 565 483 l 565 497 q 554 758 556 733 l 554 768 q 461 767 503 767 q 322 400 347 461 l 322 400 m 672 993 q 624 975 656 974 q 574 999 593 976 q 556 1051 554 1022 q 581 1097 558 1081 l 681 1194 q 729 1212 700 1213 q 778 1190 758 1211 q 797 1139 797 1169 q 776 1092 796 1108 l 672 993 l 672 993 z "},"Ć":{"ha":988,"x_min":63,"x_max":943,"o":"m 556 -11 q 406 8 479 -11 q 278 63 332 28 q 167 172 217 101 q 90 327 118 243 q 63 489 63 411 q 107 692 63 593 q 232 871 151 790 q 369 965 293 932 q 551 1003 460 1003 q 710 972 631 1003 q 797 923 761 953 q 876 844 833 893 l 918 793 q 935 750 935 772 q 913 701 935 722 q 861 681 890 681 q 810 707 832 681 l 758 769 q 713 810 739 790 q 660 842 686 831 q 540 863 600 867 q 328 769 414 851 q 201 489 201 647 q 247 312 201 404 q 353 179 292 219 q 443 142 390 156 q 551 128 496 128 q 771 221 719 128 q 794 285 781 238 l 808 329 q 834 364 817 351 q 871 376 851 376 q 921 357 899 376 q 943 307 943 338 q 939 282 943 294 l 929 253 q 893 154 906 181 q 772 39 850 79 q 594 -10 694 -1 q 556 -11 582 -11 l 556 -11 m 565 1047 q 518 1035 544 1032 q 474 1057 492 1038 q 458 1104 456 1076 q 482 1151 461 1132 l 622 1258 q 669 1269 642 1272 q 711 1240 697 1265 q 720 1189 725 1215 q 694 1146 715 1163 q 565 1047 631 1097 l 565 1047 z "},"Č":{"ha":988,"x_min":63,"x_max":943,"o":"m 556 -11 q 406 8 479 -11 q 278 63 332 28 q 167 172 217 101 q 90 327 118 243 q 63 489 63 411 q 107 692 63 593 q 232 871 151 790 q 369 965 293 932 q 551 1003 460 1003 q 710 972 631 1003 q 797 923 761 953 q 876 844 833 893 l 918 793 q 935 750 935 772 q 913 701 935 722 q 861 681 890 681 q 810 707 832 681 l 758 769 q 713 810 739 790 q 660 842 686 831 q 540 863 600 867 q 328 769 414 851 q 201 489 201 647 q 247 312 201 404 q 353 179 292 219 q 443 142 390 156 q 551 128 496 128 q 771 221 719 128 q 794 285 781 238 l 808 329 q 834 364 817 351 q 871 376 851 376 q 921 357 899 376 q 943 307 943 338 q 939 282 943 294 l 929 253 q 893 154 906 181 q 772 39 850 79 q 594 -10 694 -1 q 556 -11 582 -11 l 556 -11 z "},"Ç":{"ha":988,"x_min":63,"x_max":943,"o":"m 521 -319 q 419 -293 460 -319 q 379 -228 379 -267 q 392 -195 379 -208 q 424 -182 404 -182 q 447 -188 438 -182 q 469 -207 457 -194 q 522 -229 492 -229 q 553 -217 540 -229 q 568 -185 567 -204 q 536 -144 568 -154 q 478 -137 510 -137 q 440 -124 456 -137 q 425 -90 425 -110 q 535 54 425 -37 q 608 21 568 44 q 551 -37 571 -12 q 529 -87 531 -61 l 493 -68 q 509 -62 501 -65 q 522 -58 517 -58 q 630 -94 588 -57 q 672 -181 672 -131 q 628 -279 672 -239 q 521 -319 585 -319 l 521 -319 m 556 -11 q 406 8 479 -11 q 278 63 332 28 q 167 172 217 101 q 90 327 118 243 q 63 489 63 411 q 107 692 63 593 q 232 871 151 790 q 369 965 293 932 q 551 1003 460 1003 q 710 972 631 1003 q 797 923 761 953 q 876 844 833 893 l 918 793 q 935 750 935 772 q 913 701 935 722 q 861 681 890 681 q 810 707 832 681 l 758 769 q 713 810 739 790 q 660 842 686 831 q 540 863 600 867 q 328 769 414 851 q 201 489 201 647 q 247 312 201 404 q 353 179 292 219 q 443 142 390 156 q 551 128 496 128 q 771 221 719 128 q 794 285 781 238 l 808 329 q 834 364 817 351 q 871 376 851 376 q 921 357 899 376 q 943 307 943 338 q 939 282 943 294 l 929 253 q 893 154 906 181 q 772 39 850 79 q 594 -10 694 -1 q 556 -11 582 -11 l 556 -11 l 556 -11 z "},"Ĉ":{"ha":988,"x_min":63,"x_max":943,"o":"m 556 -11 q 406 8 479 -11 q 278 63 332 28 q 167 172 217 101 q 90 327 118 243 q 63 489 63 411 q 107 692 63 593 q 232 871 151 790 q 369 965 293 932 q 551 1003 460 1003 q 710 972 631 1003 q 797 923 761 953 q 876 844 833 893 l 918 793 q 935 750 935 772 q 913 701 935 722 q 861 681 890 681 q 810 707 832 681 l 758 769 q 713 810 739 790 q 660 842 686 831 q 540 863 600 867 q 328 769 414 851 q 201 489 201 647 q 247 312 201 404 q 353 179 292 219 q 443 142 390 156 q 551 128 496 128 q 771 221 719 128 q 794 285 781 238 l 808 329 q 834 364 817 351 q 871 376 851 376 q 921 357 899 376 q 943 307 943 338 q 939 282 943 294 l 929 253 q 893 154 906 181 q 772 39 850 79 q 594 -10 694 -1 q 556 -11 582 -11 l 556 -11 z "},"Ċ":{"ha":988,"x_min":63,"x_max":943,"o":"m 556 -11 q 406 8 479 -11 q 278 63 332 28 q 167 172 217 101 q 90 327 118 243 q 63 489 63 411 q 107 692 63 593 q 232 871 151 790 q 369 965 293 932 q 551 1003 460 1003 q 710 972 631 1003 q 797 923 761 953 q 876 844 833 893 l 918 793 q 935 750 935 772 q 913 701 935 722 q 861 681 890 681 q 810 707 832 681 l 758 769 q 713 810 739 790 q 660 842 686 831 q 540 863 600 867 q 328 769 414 851 q 201 489 201 647 q 247 312 201 404 q 353 179 292 219 q 443 142 390 156 q 551 128 496 128 q 771 221 719 128 q 794 285 781 238 l 808 329 q 834 364 817 351 q 871 376 851 376 q 921 357 899 376 q 943 307 943 338 q 939 282 943 294 l 929 253 q 893 154 906 181 q 772 39 850 79 q 594 -10 694 -1 q 556 -11 582 -11 l 556 -11 m 554 1075 q 488 1099 518 1075 q 463 1129 471 1111 q 454 1168 454 1147 q 484 1233 454 1206 q 553 1260 514 1260 q 591 1250 571 1260 q 625 1222 611 1240 q 642 1194 638 1210 q 646 1156 646 1179 q 617 1098 646 1121 q 554 1075 589 1075 l 554 1075 z "},"Ď":{"ha":1013,"x_min":122,"x_max":954,"o":"m 213 -3 q 174 7 192 -4 q 138 33 151 14 q 125 75 125 51 q 132 510 125 119 q 128 714 133 574 q 126 928 122 851 q 149 976 128 957 q 199 994 171 996 l 204 994 q 231 1003 217 1001 q 332 1010 294 1008 q 438 1013 369 1013 q 554 1003 506 1013 q 662 974 603 994 q 767 919 721 953 q 909 738 864 849 q 950 506 954 628 q 897 278 946 388 q 760 100 847 169 q 478 3 656 17 q 339 -1 425 -1 q 213 -3 246 -1 l 213 -3 m 339 138 q 467 142 421 138 q 674 208 601 151 q 772 338 735 257 q 811 511 808 419 q 783 681 815 603 q 686 806 750 760 q 564 860 635 843 q 419 874 492 876 q 264 865 347 872 q 267 719 263 825 q 271 507 272 568 q 269 391 271 465 q 267 254 268 317 q 265 138 265 192 l 339 138 m 475 1044 q 415 1064 444 1043 q 381 1097 400 1075 l 283 1206 q 268 1249 267 1224 q 287 1290 269 1274 q 329 1306 304 1307 q 371 1286 354 1304 l 468 1176 l 471 1175 l 479 1183 q 585 1285 544 1249 q 628 1298 604 1300 q 669 1278 653 1296 q 683 1235 685 1260 q 664 1193 682 1211 q 564 1099 626 1161 q 529 1068 542 1076 q 475 1044 503 1047 l 475 1044 z "},"Đ":{"ha":1013,"x_min":42,"x_max":954,"o":"m 115 433 q 64 452 86 433 q 43 500 42 471 q 62 542 43 525 q 110 560 81 560 l 486 561 q 533 542 514 561 q 551 494 551 522 q 531 451 550 468 q 485 435 511 435 l 115 433 l 115 433 m 213 -3 q 174 7 192 -4 q 138 33 151 14 q 125 75 125 51 q 132 510 125 119 q 128 714 133 574 q 126 928 122 851 q 149 976 128 957 q 199 994 171 996 l 204 994 q 231 1003 217 1001 q 332 1010 294 1008 q 438 1013 369 1013 q 554 1003 506 1013 q 662 974 603 994 q 767 919 721 953 q 909 738 864 849 q 950 506 954 628 q 897 278 946 388 q 760 100 847 169 q 478 3 656 17 q 339 -1 425 -1 q 213 -3 246 -1 l 213 -3 l 213 -3 m 339 138 q 467 142 421 138 q 665 208 593 151 q 763 338 726 257 q 803 511 800 419 q 775 681 807 603 q 678 806 742 760 q 556 860 626 843 q 415 874 483 876 q 264 865 347 872 q 267 719 263 825 q 271 507 272 568 q 269 391 271 465 q 267 254 268 317 q 265 138 265 192 l 339 138 l 339 138 z "},"Ð":{"ha":1013,"x_min":42,"x_max":954,"o":"m 115 433 q 64 452 86 433 q 43 500 42 471 q 62 542 43 525 q 110 560 81 560 l 486 561 q 533 542 514 561 q 551 494 551 522 q 531 451 550 468 q 485 435 511 435 l 115 433 l 115 433 m 213 -3 q 174 7 192 -4 q 138 33 151 14 q 125 75 125 51 q 132 510 125 119 q 128 714 133 574 q 126 928 122 851 q 149 976 128 957 q 199 994 171 996 l 204 994 q 231 1003 217 1001 q 332 1010 294 1008 q 438 1013 369 1013 q 554 1003 506 1013 q 662 974 603 994 q 767 919 721 953 q 909 738 864 849 q 950 506 954 628 q 897 278 946 388 q 760 100 847 169 q 478 3 656 17 q 339 -1 425 -1 q 213 -3 246 -1 l 213 -3 l 213 -3 m 339 138 q 467 142 421 138 q 665 208 593 151 q 763 338 726 257 q 803 511 800 419 q 775 681 807 603 q 678 806 742 760 q 556 860 626 843 q 415 874 483 876 q 264 865 347 872 q 267 719 263 825 q 271 507 272 568 q 269 391 271 465 q 267 254 268 317 q 265 138 265 192 l 339 138 l 339 138 z "},"É":{"ha":885,"x_min":107,"x_max":828,"o":"m 217 -10 q 167 4 189 -12 q 140 49 144 21 q 133 72 135 60 q 138 883 107 354 q 160 931 139 911 q 210 949 182 950 q 405 956 335 957 q 587 951 475 956 q 758 946 699 946 q 808 926 788 946 q 828 876 828 906 q 808 827 828 847 q 758 807 788 807 q 509 815 700 807 q 272 814 318 822 q 260 547 264 649 q 412 556 332 554 q 594 554 492 557 q 736 551 696 551 q 785 531 765 551 q 806 482 806 511 q 785 433 806 453 q 736 413 765 413 q 582 415 688 413 q 401 417 476 418 q 258 407 326 415 q 268 136 258 288 q 421 142 340 142 q 603 141 501 143 q 749 139 706 139 q 798 119 778 139 q 818 69 818 99 q 798 20 818 40 q 749 0 778 0 q 581 3 704 0 q 376 3 457 6 q 217 -10 294 1 l 217 -10 m 501 1054 q 454 1042 481 1039 q 412 1065 428 1044 q 399 1112 396 1085 q 422 1153 401 1139 l 553 1253 q 599 1263 572 1267 q 640 1239 625 1260 q 651 1192 656 1218 q 625 1149 646 1165 q 501 1054 557 1100 l 501 1054 z "},"Ĕ":{"ha":915,"x_min":125,"x_max":860,"o":"m 792 3 q 201 7 604 0 q 153 28 174 7 q 133 76 133 49 q 125 111 125 93 q 128 383 128 206 q 129 625 128 561 q 128 708 129 649 q 128 817 126 767 q 136 913 129 868 q 153 947 139 932 q 186 968 167 963 q 231 986 204 985 q 524 983 333 989 q 785 978 715 978 q 834 958 814 978 q 854 908 854 938 q 834 859 854 879 q 785 839 814 839 q 537 844 711 839 q 268 849 363 850 q 266 742 264 829 q 268 622 268 656 l 268 565 q 413 569 336 569 q 588 568 490 569 q 733 567 686 567 q 783 547 763 567 q 803 497 803 526 q 783 448 803 468 q 733 428 763 428 q 587 429 685 428 q 413 431 489 431 q 267 426 336 431 q 265 144 267 229 q 789 142 604 139 q 839 122 818 142 q 860 74 860 103 q 840 24 860 44 q 792 3 821 3 l 792 3 m 508 1038 q 261 1178 374 1039 q 246 1230 243 1201 q 272 1276 249 1258 q 324 1290 296 1293 q 369 1265 351 1288 q 510 1178 440 1176 q 661 1257 578 1176 q 710 1278 682 1278 q 759 1258 739 1279 q 779 1209 779 1238 q 760 1161 779 1181 q 508 1038 635 1036 l 508 1038 z "},"Ě":{"ha":915,"x_min":125,"x_max":860,"o":"m 792 4 q 201 8 604 1 q 153 29 174 8 q 133 78 133 50 q 125 113 125 94 q 128 385 128 207 q 129 626 128 563 q 128 709 129 650 q 128 819 126 768 q 136 914 129 869 q 153 949 139 933 q 186 969 167 964 q 231 988 204 986 q 524 985 333 990 q 785 979 715 979 q 834 959 814 979 q 854 910 854 939 q 834 860 854 881 q 785 840 814 840 q 537 846 711 840 q 268 850 363 851 q 266 744 264 831 q 268 624 268 657 l 268 567 q 413 571 336 571 q 588 569 490 571 q 733 568 686 568 q 783 548 763 568 q 803 499 803 528 q 783 449 803 469 q 733 429 763 429 q 587 431 685 429 q 413 432 489 432 q 267 428 336 432 q 265 146 267 231 q 789 143 604 140 q 839 124 818 143 q 860 75 860 104 q 840 25 860 46 q 792 4 821 4 l 792 4 m 503 1018 q 443 1038 472 1017 q 408 1071 428 1049 l 311 1179 q 296 1222 294 1197 q 315 1264 297 1247 q 357 1279 332 1281 q 399 1260 382 1278 l 496 1150 l 499 1149 l 507 1157 q 613 1258 572 1222 q 656 1272 632 1274 q 697 1251 681 1269 q 711 1209 713 1233 q 692 1167 710 1185 q 592 1072 654 1135 q 557 1042 569 1050 q 503 1018 531 1021 l 503 1018 z "},"Ê":{"ha":926,"x_min":124,"x_max":872,"o":"m 799 -15 q 214 -11 407 3 q 165 6 186 -12 q 140 51 143 24 q 135 74 136 61 q 125 282 126 168 q 126 481 124 396 l 136 692 q 143 886 142 818 q 136 914 136 900 q 154 964 135 943 q 203 986 174 985 q 501 987 253 992 q 800 982 750 982 q 849 962 829 982 q 869 913 869 942 q 849 863 869 883 q 800 843 829 843 q 553 847 731 843 q 281 849 376 851 q 277 760 279 807 q 273 656 275 713 q 269 567 271 599 q 490 571 350 571 q 763 575 699 571 q 813 558 792 576 q 836 510 835 539 q 819 459 838 481 q 771 436 800 438 q 490 432 704 432 q 265 428 342 432 q 269 132 261 260 q 804 124 449 139 q 853 101 833 122 q 871 51 872 79 q 848 3 869 22 q 799 -15 826 -17 l 799 -15 m 411 1049 q 369 1029 394 1031 q 327 1044 344 1028 q 308 1086 310 1061 q 324 1129 307 1111 l 421 1238 q 456 1271 440 1260 q 515 1290 485 1292 q 569 1267 543 1288 q 604 1236 582 1258 q 704 1142 667 1174 q 724 1099 722 1124 q 709 1057 725 1075 q 669 1037 693 1039 q 625 1050 644 1035 q 519 1151 585 1086 l 511 1160 l 508 1158 l 411 1049 l 411 1049 z "},"Ë":{"ha":951,"x_min":125,"x_max":897,"o":"m 822 -11 q 204 -8 678 -3 q 156 13 175 -8 q 136 63 136 33 q 138 71 136 67 q 136 83 136 78 q 131 900 142 371 q 125 928 125 913 q 145 977 125 957 q 194 997 165 997 q 475 992 260 997 q 808 990 690 986 q 858 972 838 992 q 881 924 879 953 q 863 874 882 894 q 814 851 843 853 q 633 849 688 849 q 451 853 578 850 l 271 858 q 275 568 274 685 q 771 572 342 567 q 821 552 800 572 q 842 503 842 532 q 822 454 842 475 q 774 433 801 433 q 276 429 343 428 q 276 129 278 268 q 831 128 664 138 q 878 105 860 126 q 896 54 897 83 q 873 6 894 25 q 822 -11 851 -12 l 822 -11 m 492 1135 q 460 1078 485 1101 q 390 1060 436 1054 q 322 1091 344 1065 q 297 1140 299 1117 q 317 1184 296 1163 q 376 1215 338 1206 q 408 1222 397 1222 l 410 1222 q 414 1222 411 1222 q 419 1224 417 1222 q 447 1219 436 1225 q 489 1172 478 1204 q 492 1135 499 1140 l 492 1135 m 743 1133 q 712 1076 736 1100 q 642 1058 688 1053 q 573 1090 596 1064 q 549 1140 550 1115 q 568 1185 547 1165 q 628 1214 589 1204 q 646 1221 635 1221 l 647 1221 q 658 1221 649 1221 q 671 1222 668 1221 q 699 1218 688 1224 q 740 1171 729 1203 q 743 1133 750 1139 l 743 1133 z "},"Ė":{"ha":915,"x_min":125,"x_max":860,"o":"m 792 6 q 201 10 604 3 q 153 31 174 10 q 133 79 133 51 q 125 114 125 96 q 128 386 128 208 q 129 628 128 564 q 128 710 129 651 q 128 820 126 769 q 136 915 129 871 q 153 950 139 935 q 186 971 167 965 q 231 989 204 988 q 524 993 333 992 q 785 994 715 994 q 834 974 814 994 q 854 925 854 954 q 834 876 854 896 q 785 856 814 856 q 537 854 711 856 q 268 851 363 853 q 266 745 264 832 q 268 625 268 658 l 268 568 q 413 572 336 572 q 588 571 490 572 q 733 569 686 569 q 783 549 763 569 q 803 500 803 529 q 783 451 803 471 q 733 431 763 431 q 587 432 685 431 q 413 433 489 433 q 267 429 336 433 q 265 147 267 232 q 789 144 604 142 q 839 125 818 144 q 860 76 860 106 q 840 26 860 47 q 792 6 821 6 l 792 6 m 501 1075 q 435 1099 465 1075 q 410 1129 418 1111 q 401 1168 401 1147 q 431 1233 401 1206 q 500 1260 461 1260 q 538 1250 518 1260 q 572 1222 558 1240 q 589 1194 585 1210 q 593 1156 593 1179 q 565 1098 593 1121 q 501 1075 536 1075 l 501 1075 z "},"È":{"ha":963,"x_min":125,"x_max":908,"o":"m 211 -11 q 167 1 188 -12 q 137 27 149 10 q 125 67 125 44 q 132 347 126 108 q 137 626 138 586 q 136 907 136 667 q 154 955 136 935 q 199 978 172 975 q 214 982 207 981 q 396 994 300 993 q 611 990 492 994 q 782 986 731 986 q 831 966 811 986 q 851 917 851 946 q 831 867 851 888 q 782 847 811 847 q 607 851 719 847 q 440 855 494 854 q 276 849 385 856 q 275 585 278 729 q 472 589 356 589 q 729 592 671 589 q 779 574 758 593 q 801 525 800 554 q 783 475 803 496 q 735 453 764 454 q 472 450 675 450 q 272 444 347 450 q 269 281 271 388 q 265 132 267 175 q 840 136 547 147 q 889 114 869 135 q 907 64 908 93 q 885 15 906 35 q 835 -3 864 -4 q 211 -11 546 8 l 211 -11 m 399 1153 q 378 1200 379 1169 q 397 1251 378 1231 q 446 1273 417 1272 q 494 1256 475 1274 l 594 1158 q 619 1113 617 1142 q 601 1060 621 1083 q 551 1036 582 1038 q 503 1054 519 1035 l 399 1153 z "},"Ē":{"ha":915,"x_min":125,"x_max":860,"o":"m 792 3 q 201 7 604 0 q 153 28 174 7 q 133 76 133 49 q 125 111 125 93 q 128 383 128 206 q 129 625 128 561 q 128 708 129 649 q 128 817 126 767 q 136 913 129 868 q 153 947 139 932 q 186 968 167 963 q 231 986 204 985 q 524 983 333 989 q 785 978 715 978 q 834 958 814 978 q 854 908 854 938 q 834 859 854 879 q 785 839 814 839 q 537 844 711 839 q 268 849 363 850 q 266 742 264 829 q 268 622 268 656 l 268 565 q 413 569 336 569 q 588 568 490 569 q 733 567 686 567 q 783 547 763 567 q 803 497 803 526 q 783 448 803 468 q 733 428 763 428 q 587 429 685 428 q 413 431 489 431 q 267 426 336 431 q 265 144 267 229 q 789 142 604 139 q 839 122 818 142 q 860 74 860 103 q 840 24 860 44 q 792 3 821 3 l 792 3 m 319 1071 q 269 1090 290 1069 q 247 1138 249 1110 q 266 1188 246 1167 q 314 1210 286 1208 q 679 1210 451 1214 q 728 1189 708 1210 q 747 1139 747 1168 q 726 1090 747 1110 q 676 1071 706 1071 q 319 1071 453 1075 l 319 1071 z "},"Ę":{"ha":915,"x_min":125,"x_max":860,"o":"m 675 -282 q 531 -242 585 -285 q 469 -111 468 -189 q 517 26 469 -36 q 588 84 546 60 q 668 114 631 108 q 719 104 699 118 q 744 64 740 90 q 735 26 747 42 q 678 0 722 11 q 606 -37 631 -12 q 582 -101 582 -62 q 607 -159 582 -137 q 668 -181 632 -181 q 697 -176 685 -181 q 721 -162 708 -171 q 742 -152 731 -157 q 765 -147 753 -147 q 802 -160 789 -147 q 815 -194 815 -172 q 772 -256 815 -231 q 675 -282 729 -282 l 675 -282 m 792 6 q 201 10 604 3 q 153 31 174 10 q 133 79 133 51 q 125 114 125 96 q 128 386 128 208 q 129 628 128 564 q 128 710 129 651 q 128 820 126 769 q 136 915 129 871 q 153 950 139 935 q 186 971 167 965 q 231 989 204 988 q 524 993 333 992 q 785 994 715 994 q 834 974 814 994 q 854 925 854 954 q 834 876 854 896 q 785 856 814 856 q 537 854 711 856 q 268 851 363 853 q 266 745 264 832 q 268 625 268 658 l 268 568 q 413 572 336 572 q 588 571 490 572 q 733 569 686 569 q 783 549 763 569 q 803 500 803 529 q 783 451 803 471 q 733 431 763 431 q 587 432 685 431 q 413 433 489 433 q 267 429 336 433 q 265 147 267 232 q 789 144 604 142 q 839 125 818 144 q 860 76 860 106 q 840 26 860 47 q 792 6 821 6 l 792 6 l 792 6 z "},"Ğ":{"ha":1026,"x_min":54,"x_max":982,"o":"m 674 3 q 371 32 532 -40 q 135 229 210 104 q 67 422 81 321 q 78 611 54 522 q 152 778 101 700 q 272 911 203 856 q 434 992 347 968 q 612 1005 521 1017 q 795 931 703 993 q 963 758 888 868 q 974 707 979 735 q 944 663 968 679 q 893 651 921 646 q 849 681 865 657 q 723 813 790 765 q 591 867 656 860 q 468 858 526 875 q 358 800 411 840 q 244 664 286 743 q 203 485 203 582 q 254 301 203 388 q 424 160 307 213 q 635 136 542 108 q 772 235 719 161 q 824 396 825 308 q 564 388 703 394 q 515 406 536 386 q 492 453 493 425 q 510 503 490 482 q 558 526 529 525 q 889 535 732 535 q 938 515 918 535 q 958 465 958 494 l 958 456 q 901 178 982 308 q 674 3 819 47 l 674 3 m 638 1075 q 447 1086 539 1033 q 339 1206 381 1129 q 334 1255 326 1231 q 365 1292 342 1279 q 413 1297 389 1304 q 450 1267 438 1289 q 515 1192 476 1218 q 575 1185 549 1171 l 581 1192 l 606 1219 l 646 1274 q 688 1297 661 1294 q 735 1285 714 1300 q 758 1244 756 1269 q 746 1197 761 1218 l 703 1140 q 674 1107 688 1121 q 638 1075 654 1085 l 638 1075 z "},"Ǧ":{"ha":1042,"x_min":54,"x_max":996,"o":"m 683 8 q 376 38 539 -36 q 136 238 213 111 q 67 433 81 331 q 78 612 54 536 q 154 767 103 688 q 275 901 206 846 q 440 985 351 960 q 620 997 528 1010 q 806 922 713 985 q 976 747 900 858 q 988 695 993 724 q 958 650 982 667 q 906 639 933 633 q 861 668 878 644 q 733 802 801 754 q 599 858 664 850 q 474 849 533 865 q 363 789 417 831 q 247 651 289 732 q 206 490 206 582 q 257 311 206 399 q 430 168 311 221 q 643 143 549 115 q 783 244 729 169 q 835 407 836 318 q 571 399 713 406 q 522 417 543 397 q 499 465 500 436 q 517 517 497 494 q 565 540 536 539 q 901 549 742 549 q 951 528 931 549 q 972 478 972 507 l 972 468 q 913 185 996 318 q 683 8 831 53 l 683 8 z "},"Ĝ":{"ha":1026,"x_min":54,"x_max":982,"o":"m 674 3 q 371 32 532 -40 q 135 229 210 104 q 67 422 81 321 q 78 611 54 522 q 152 778 101 700 q 272 911 203 856 q 434 992 347 968 q 612 1005 521 1017 q 795 931 703 993 q 963 758 888 868 q 974 707 979 735 q 944 663 968 679 q 893 651 921 646 q 849 681 865 657 q 723 813 790 765 q 591 867 656 860 q 468 858 526 875 q 358 800 411 840 q 244 664 286 743 q 203 485 203 582 q 254 301 203 388 q 424 160 307 213 q 635 136 542 108 q 772 235 719 161 q 824 396 825 308 q 564 388 703 394 q 515 406 536 386 q 492 453 493 425 q 510 503 490 482 q 558 526 529 525 q 889 535 732 535 q 938 515 918 535 q 958 465 958 494 l 958 456 q 901 178 982 308 q 674 3 819 47 l 674 3 m 442 1054 q 401 1035 425 1036 q 361 1050 378 1035 q 343 1090 344 1065 q 358 1131 342 1114 l 450 1233 q 483 1265 469 1256 q 540 1285 511 1285 q 592 1261 567 1282 q 625 1232 604 1254 q 721 1143 685 1174 q 739 1102 738 1125 q 725 1062 740 1079 q 687 1042 710 1044 q 644 1056 664 1040 q 544 1151 607 1090 l 536 1160 l 533 1158 l 442 1054 l 442 1054 z "},"Ģ":{"ha":1026,"x_min":54,"x_max":982,"o":"m 674 3 q 371 32 532 -40 q 135 229 210 104 q 67 422 81 321 q 78 611 54 522 q 152 778 101 700 q 272 911 203 856 q 434 992 347 968 q 612 1005 521 1017 q 795 931 703 993 q 963 758 888 868 q 974 707 979 735 q 944 663 968 679 q 893 651 921 646 q 849 681 865 657 q 723 813 790 765 q 591 867 656 860 q 468 858 526 875 q 358 800 411 840 q 244 664 286 743 q 203 485 203 582 q 254 301 203 388 q 424 160 307 213 q 635 136 542 108 q 772 235 719 161 q 824 396 825 308 q 564 388 703 394 q 515 406 536 386 q 492 453 493 425 q 510 503 490 482 q 558 526 529 525 q 889 535 732 535 q 938 515 918 535 q 958 465 958 494 l 958 456 q 901 178 982 308 q 674 3 819 47 l 674 3 m 576 -450 q 531 -477 560 -474 q 479 -464 503 -481 q 452 -419 456 -447 q 465 -367 449 -390 q 511 -282 497 -325 q 517 -244 518 -260 q 478 -240 492 -243 q 435 -209 450 -233 q 426 -157 419 -185 q 456 -114 432 -129 q 508 -104 481 -99 q 513 -106 511 -106 l 539 -106 q 619 -144 592 -110 q 643 -325 679 -215 q 576 -450 622 -392 l 576 -450 z "},"Ġ":{"ha":1042,"x_min":54,"x_max":996,"o":"m 683 8 q 376 38 539 -36 q 136 238 213 111 q 67 433 81 331 q 78 612 54 536 q 154 767 103 688 q 275 901 206 846 q 440 985 351 960 q 620 997 528 1010 q 806 922 713 985 q 976 747 900 858 q 988 695 993 724 q 958 650 982 667 q 906 639 933 633 q 861 668 878 644 q 733 802 801 754 q 599 858 664 850 q 474 849 533 865 q 363 789 417 831 q 247 651 289 732 q 206 490 206 582 q 257 311 206 399 q 430 168 311 221 q 643 143 549 115 q 783 244 729 169 q 835 407 836 318 q 571 399 713 406 q 522 417 543 397 q 499 465 500 436 q 517 517 497 494 q 565 540 536 539 q 901 549 742 549 q 951 528 931 549 q 972 478 972 507 l 972 468 q 913 185 996 318 q 683 8 831 53 l 683 8 m 576 1075 q 510 1099 540 1075 q 485 1129 493 1111 q 476 1168 476 1147 q 506 1233 476 1206 q 575 1260 536 1260 q 613 1250 593 1260 q 647 1222 633 1240 q 664 1194 660 1210 q 668 1156 668 1179 q 640 1098 668 1121 q 576 1075 611 1075 l 576 1075 z "},"Ħ":{"ha":1024,"x_min":28,"x_max":997,"o":"m 96 690 q 48 708 68 689 q 28 756 28 728 q 47 803 28 783 q 93 824 65 822 q 931 831 722 835 q 977 810 957 831 q 996 763 997 790 q 975 717 994 736 q 928 697 956 697 q 96 690 722 700 l 96 690 m 269 68 q 249 19 269 39 q 199 0 228 0 q 150 21 169 0 q 131 71 131 42 q 126 481 133 199 q 125 928 119 764 q 147 976 126 956 q 197 994 168 996 q 245 972 225 993 q 264 922 265 951 q 264 571 260 774 q 744 581 592 582 q 751 925 743 769 q 774 973 753 954 q 825 990 796 992 q 873 967 854 989 q 890 917 892 946 q 882 640 883 754 q 885 331 882 503 q 889 69 889 160 q 869 20 889 40 q 819 0 849 0 q 770 20 790 0 q 750 69 750 40 q 746 442 750 118 q 267 432 596 443 q 269 68 272 197 l 269 68 l 269 68 z "},"Ĥ":{"ha":1025,"x_min":122,"x_max":903,"o":"m 272 64 q 251 15 272 35 q 201 -4 231 -4 q 153 17 172 -4 q 133 67 133 38 q 128 488 135 169 q 131 931 122 769 q 153 978 132 960 q 204 996 175 997 q 252 973 233 994 q 269 922 271 951 q 264 567 260 768 q 756 576 604 578 q 763 935 754 765 q 785 983 764 964 q 836 1000 807 1001 q 884 977 865 999 q 901 926 903 956 q 893 636 894 750 q 897 327 893 499 q 900 65 900 156 q 880 16 900 36 q 831 -4 860 -4 q 781 16 801 -4 q 761 65 761 36 q 757 438 761 114 q 269 428 608 439 l 268 428 q 272 64 275 182 l 272 64 m 403 1042 q 361 1022 386 1024 q 319 1038 336 1021 q 300 1079 301 1054 q 315 1122 299 1104 l 413 1231 q 447 1264 432 1253 q 507 1283 476 1285 q 561 1260 535 1281 q 596 1229 574 1251 q 696 1135 658 1167 q 715 1092 714 1117 q 701 1050 717 1068 q 660 1030 685 1032 q 617 1043 636 1028 q 511 1144 576 1079 l 503 1153 l 500 1151 l 403 1042 l 403 1042 z "},"Í":{"ha":429,"x_min":122,"x_max":392,"o":"m 232 1047 q 185 1035 211 1032 q 140 1057 158 1038 q 125 1104 122 1076 q 149 1151 128 1132 l 289 1258 q 336 1269 308 1272 q 378 1240 364 1265 q 387 1189 392 1215 q 361 1146 382 1163 q 232 1047 297 1097 l 232 1047 m 278 68 q 256 19 276 39 q 206 1 235 0 q 157 24 176 3 q 139 74 138 44 q 138 528 144 233 q 131 922 131 822 q 151 972 131 951 q 200 992 171 992 q 249 972 229 992 q 269 922 269 951 q 276 526 269 824 q 278 68 283 228 l 278 68 z "},"Ĭ":{"ha":400,"x_min":-36,"x_max":432,"o":"m 196 1038 q -19 1160 78 1039 q -33 1205 -36 1181 q -10 1244 -31 1229 q 35 1258 10 1260 q 75 1236 60 1256 q 197 1160 136 1158 q 329 1228 257 1158 q 372 1248 347 1247 q 415 1231 397 1249 q 432 1188 432 1213 q 415 1144 432 1163 q 196 1038 307 1036 l 196 1038 m 272 68 q 250 19 271 39 q 200 1 229 0 q 151 24 171 3 q 133 74 132 44 q 132 528 139 233 q 125 922 125 822 q 145 972 125 951 q 194 992 165 992 q 244 972 224 992 q 264 922 264 951 q 271 526 264 824 q 272 68 278 228 l 272 68 z "},"Î":{"ha":400,"x_min":-11,"x_max":397,"o":"m 272 68 q 250 19 271 39 q 200 1 229 0 q 151 24 171 3 q 133 74 132 44 q 132 528 139 233 q 125 922 125 822 q 145 972 125 951 q 194 992 165 992 q 244 972 224 992 q 264 922 264 951 q 271 526 264 824 q 272 68 278 228 l 272 68 z "},"Ï":{"ha":400,"x_min":3,"x_max":396,"o":"m 172 1121 q 144 1074 165 1093 q 85 1058 124 1056 q 26 1084 46 1061 q 4 1133 6 1107 q 17 1182 3 1158 q 67 1219 31 1206 q 88 1226 79 1225 q 106 1225 97 1226 q 133 1217 121 1224 q 169 1178 160 1206 q 172 1121 179 1150 l 172 1121 m 392 1119 q 365 1074 388 1092 q 304 1058 342 1056 q 247 1083 267 1061 q 226 1131 228 1106 q 233 1175 225 1157 q 263 1211 240 1193 q 310 1225 281 1226 q 343 1219 328 1225 q 368 1204 356 1215 q 389 1169 379 1194 q 392 1119 396 1150 l 392 1119 m 272 68 q 250 19 271 39 q 200 1 229 0 q 151 24 171 3 q 133 74 132 44 q 132 528 139 233 q 125 922 125 822 q 145 972 125 951 q 194 992 165 992 q 244 972 224 992 q 264 922 264 951 q 271 526 264 824 q 272 68 278 228 l 272 68 z "},"İ":{"ha":400,"x_min":103,"x_max":294,"o":"m 272 68 q 250 19 271 39 q 200 1 229 0 q 151 24 171 3 q 133 74 132 44 q 132 528 139 233 q 125 922 125 822 q 145 972 125 951 q 194 992 165 992 q 244 972 224 992 q 264 922 264 951 q 271 526 264 824 q 272 68 278 228 l 272 68 m 203 1075 q 136 1099 167 1075 q 111 1129 119 1111 q 103 1168 103 1147 q 133 1233 103 1206 q 201 1260 163 1260 q 240 1250 219 1260 q 274 1222 260 1240 q 290 1194 286 1210 q 294 1156 294 1179 q 266 1098 294 1121 q 203 1075 238 1075 l 203 1075 z "},"Ì":{"ha":400,"x_min":38,"x_max":281,"o":"m 272 68 q 250 19 271 39 q 200 1 229 0 q 151 24 171 3 q 133 74 132 44 q 132 528 139 233 q 125 922 125 822 q 145 972 125 951 q 194 992 165 992 q 244 972 224 992 q 264 922 264 951 q 271 526 264 824 q 272 68 278 228 l 272 68 m 58 1151 q 38 1199 39 1168 q 57 1250 38 1229 q 106 1272 76 1271 q 154 1254 135 1272 l 254 1157 q 278 1111 276 1140 q 261 1059 281 1082 q 210 1035 242 1036 q 163 1053 179 1033 l 58 1151 z "},"Ī":{"ha":400,"x_min":-31,"x_max":414,"o":"m 272 68 q 250 19 271 39 q 200 1 229 0 q 151 24 171 3 q 133 74 132 44 q 132 528 139 233 q 125 922 125 822 q 145 972 125 951 q 194 992 165 992 q 244 972 224 992 q 264 922 264 951 q 271 526 264 824 q 272 68 278 228 l 272 68 z "},"Į":{"ha":400,"x_min":-11,"x_max":336,"o":"m 196 -287 q 51 -247 106 -290 q -10 -117 -11 -194 q 38 21 -10 -42 q 109 78 67 54 q 189 108 151 103 q 240 99 219 113 q 265 58 261 85 q 256 21 268 36 q 199 -6 243 6 q 127 -43 151 -18 q 103 -107 103 -68 q 128 -165 103 -143 q 189 -186 153 -186 q 217 -181 206 -186 q 242 -168 229 -176 q 263 -158 251 -162 q 286 -153 274 -153 q 323 -165 310 -153 q 336 -200 336 -178 q 293 -262 336 -236 q 196 -287 250 -287 l 196 -287 m 272 68 q 250 19 271 39 q 200 1 229 0 q 151 24 171 3 q 133 74 132 44 q 132 528 139 233 q 125 922 125 822 q 145 972 125 951 q 194 992 165 992 q 244 972 224 992 q 264 922 264 951 q 271 526 264 824 q 272 68 278 228 l 272 68 z "},"Ĩ":{"ha":400,"x_min":-62,"x_max":450,"o":"m 304 1040 q 256 1047 282 1039 q 216 1063 229 1056 q 181 1085 203 1071 q 103 1118 126 1121 q 18 1069 64 1117 q -22 1056 -3 1051 q -51 1076 -40 1060 q -62 1111 -62 1093 q -50 1146 -61 1129 q 99 1233 21 1231 q 146 1226 119 1235 q 185 1211 172 1218 l 219 1189 q 299 1156 275 1154 q 364 1214 339 1156 q 401 1232 376 1232 q 438 1216 426 1232 q 447 1176 450 1200 q 433 1135 444 1153 q 304 1040 382 1043 l 304 1040 m 272 68 q 250 19 271 39 q 200 1 229 0 q 151 24 171 3 q 133 74 132 44 q 132 528 139 233 q 125 922 125 822 q 145 972 125 951 q 194 992 165 992 q 244 972 224 992 q 264 922 264 951 q 271 526 264 824 q 272 68 278 228 l 272 68 z "},"Ĵ":{"ha":750,"x_min":10,"x_max":746,"o":"m 308 3 q 154 26 228 -7 q 44 138 81 58 q 30 178 36 154 q 20 226 24 203 q 15 251 17 250 q 24 303 10 279 q 67 334 39 328 q 120 326 96 340 q 151 282 144 311 q 158 243 156 261 q 163 216 161 225 q 169 196 165 207 q 217 150 185 165 q 292 140 249 135 q 369 169 335 146 q 414 224 403 193 q 451 409 442 294 q 458 619 461 524 q 446 856 454 714 q 325 850 383 854 q 274 867 296 849 q 251 915 253 886 q 267 965 249 943 q 314 989 286 986 q 506 996 406 994 l 514 996 q 678 993 589 996 q 726 971 706 992 q 744 922 746 950 q 722 873 743 893 q 672 854 701 853 l 585 857 q 544 174 619 368 q 450 57 515 101 q 308 3 385 13 l 308 3 z "},"Ķ":{"ha":896,"x_min":124,"x_max":899,"o":"m 419 474 l 275 354 q 282 72 276 192 q 265 22 283 43 q 217 -1 246 0 q 166 16 188 -3 q 143 64 144 35 q 138 228 139 147 q 136 432 136 328 q 135 594 136 536 q 129 744 135 631 q 125 925 124 857 q 146 974 125 954 q 196 993 167 993 q 244 972 225 993 q 264 922 264 951 q 268 744 263 856 q 274 597 274 633 q 275 532 274 567 q 728 969 493 714 q 776 992 747 990 q 826 974 806 993 q 849 925 847 954 q 831 875 850 896 q 524 565 675 703 l 881 111 q 895 60 899 89 q 869 14 892 32 q 819 -1 847 -4 q 772 25 790 3 l 419 474 m 525 -318 q 488 -336 510 -335 q 453 -325 467 -337 q 438 -290 439 -312 q 451 -251 436 -268 q 489 -193 464 -237 q 457 -179 469 -190 q 435 -156 443 -171 q 426 -122 426 -142 q 438 -86 426 -103 q 471 -60 450 -69 l 490 -51 q 515 -49 507 -49 q 536 -53 524 -50 q 589 -89 568 -58 q 604 -171 611 -121 q 578 -244 597 -210 q 525 -318 557 -287 l 525 -318 z "},"Ĺ":{"ha":799,"x_min":94,"x_max":792,"o":"m 463 -3 q 206 -1 282 -6 q 160 19 179 0 q 139 65 140 38 q 138 78 138 72 q 131 451 136 157 q 125 932 125 746 q 145 981 125 961 q 194 1001 165 1001 q 244 981 224 1001 q 264 932 264 961 q 266 663 264 792 q 272 378 268 533 q 275 136 275 224 q 497 138 347 135 q 724 139 646 140 q 772 118 753 139 q 792 68 792 97 q 771 19 792 39 q 721 0 750 0 q 463 -3 646 1 l 463 -3 m 204 1047 q 157 1035 183 1032 q 113 1057 131 1038 q 97 1104 94 1076 q 121 1151 100 1132 l 261 1258 q 308 1269 281 1272 q 350 1240 336 1265 q 359 1189 364 1215 q 333 1146 354 1163 q 204 1047 269 1097 l 204 1047 z "},"Ľ":{"ha":799,"x_min":125,"x_max":792,"o":"m 463 -3 q 206 -1 282 -6 q 160 19 179 0 q 139 65 140 38 q 138 78 138 72 q 131 451 136 157 q 125 932 125 746 q 145 981 125 961 q 194 1001 165 1001 q 244 981 224 1001 q 264 932 264 961 q 266 663 264 792 q 272 378 268 533 q 275 136 275 224 q 497 138 347 135 q 724 139 646 140 q 772 118 753 139 q 792 68 792 97 q 771 19 792 39 q 721 0 750 0 q 463 -3 646 1 l 463 -3 m 632 715 q 592 732 611 715 q 574 772 574 749 q 581 808 574 786 q 592 879 592 850 q 582 939 592 903 q 575 969 575 964 q 594 1013 575 996 q 638 1031 613 1031 q 672 1020 656 1032 q 697 986 688 1008 q 715 883 715 933 q 696 767 715 831 q 632 715 681 715 l 632 715 z "},"Ļ":{"ha":799,"x_min":125,"x_max":792,"o":"m 463 -3 q 206 -1 282 -6 q 160 19 179 0 q 139 65 140 38 q 138 78 138 72 q 131 451 136 157 q 125 932 125 746 q 145 981 125 961 q 194 1001 165 1001 q 244 981 224 1001 q 264 932 264 961 q 266 663 264 792 q 272 378 268 533 q 275 136 275 224 q 497 138 347 135 q 724 139 646 140 q 772 118 753 139 q 792 68 792 97 q 771 19 792 39 q 721 0 750 0 q 463 -3 646 1 l 463 -3 m 443 -318 q 406 -336 428 -335 q 371 -325 385 -337 q 356 -290 357 -312 q 369 -251 354 -268 q 407 -193 382 -237 q 375 -179 388 -190 q 353 -156 361 -171 q 344 -122 344 -142 q 356 -86 344 -103 q 389 -60 368 -69 l 408 -51 q 433 -49 425 -49 q 454 -53 442 -50 q 507 -89 486 -58 q 522 -171 529 -121 q 496 -244 515 -210 q 443 -318 475 -287 l 443 -318 z "},"Ŀ":{"ha":799,"x_min":125,"x_max":792,"o":"m 463 -3 q 206 -1 282 -6 q 160 19 179 0 q 139 65 140 38 q 138 78 138 72 q 131 451 136 157 q 125 932 125 746 q 145 981 125 961 q 194 1001 165 1001 q 244 981 224 1001 q 264 932 264 961 q 266 663 264 792 q 272 378 268 533 q 275 136 275 224 q 497 138 347 135 q 724 139 646 140 q 772 118 753 139 q 792 68 792 97 q 771 19 792 39 q 721 0 750 0 q 463 -3 646 1 l 463 -3 m 614 593 q 638 539 638 571 q 615 484 638 507 q 560 461 592 461 q 505 484 528 461 q 482 539 482 507 q 505 594 482 571 q 560 617 528 617 q 614 593 592 617 l 614 593 z "},"Ł":{"ha":807,"x_min":35,"x_max":819,"o":"m 90 379 q 51 397 68 379 q 35 438 35 415 q 57 479 35 463 q 228 599 67 489 q 260 621 244 611 q 286 639 275 631 q 324 665 297 646 q 364 692 351 685 q 393 700 379 700 q 432 683 415 700 q 449 643 449 665 q 422 596 449 614 l 286 504 q 202 447 256 483 q 124 392 149 410 q 90 379 111 379 l 90 379 m 490 -3 q 233 -1 310 -6 q 188 19 207 0 q 167 65 168 38 q 165 78 165 72 q 158 451 164 157 q 153 932 153 746 q 173 981 153 961 q 222 1001 193 1001 q 272 981 251 1001 q 292 932 292 961 q 294 663 292 792 q 299 378 296 533 q 303 136 303 224 q 524 138 375 135 q 751 139 674 140 q 800 118 781 139 q 819 68 819 97 q 799 19 819 39 q 749 0 778 0 q 490 -3 674 1 l 490 -3 l 490 -3 z "},"Ń":{"ha":1060,"x_min":125,"x_max":950,"o":"m 883 -11 q 829 -6 856 -19 q 817 3 822 -3 q 804 14 811 7 q 782 38 796 22 l 726 104 q 639 211 656 189 q 446 496 557 321 l 272 772 l 265 622 q 264 507 263 621 q 265 390 265 393 q 272 78 265 154 q 256 28 275 50 q 209 3 238 6 q 158 19 181 0 q 133 67 136 38 q 126 390 126 149 q 126 465 126 415 q 125 556 125 515 q 126 631 125 596 l 139 871 l 138 879 q 135 904 135 903 q 190 1007 128 983 q 294 986 244 1026 q 343 931 319 967 q 372 879 357 908 l 382 861 q 383 857 383 858 l 564 569 q 750 294 671 400 q 797 236 758 282 l 794 250 q 786 304 788 299 q 807 957 750 675 q 835 1001 811 985 q 887 1013 858 1018 q 932 985 915 1008 q 943 932 949 961 q 925 318 890 669 q 932 272 925 317 q 944 185 942 214 q 949 92 950 128 q 939 44 946 64 q 883 -11 924 1 l 883 -11 m 575 1047 q 528 1035 554 1032 q 483 1057 501 1038 q 468 1104 465 1076 q 492 1151 471 1132 l 632 1258 q 679 1269 651 1272 q 721 1240 707 1265 q 730 1189 735 1215 q 704 1146 725 1163 q 575 1047 640 1097 l 575 1047 z "},"Ň":{"ha":1064,"x_min":124,"x_max":949,"o":"m 819 4 q 793 4 806 1 q 774 11 781 7 l 768 14 q 758 22 764 18 l 749 32 q 729 53 742 40 l 681 114 l 606 211 q 453 457 538 301 q 319 689 360 628 q 278 750 301 718 q 264 54 275 350 q 242 6 263 25 q 192 -12 221 -14 q 143 10 163 -11 q 125 60 124 31 q 139 940 139 406 q 159 990 139 969 q 208 1010 179 1010 q 231 1006 219 1010 q 275 981 258 1001 q 325 917 286 965 l 389 833 l 436 767 q 575 524 479 700 q 717 294 654 378 l 785 206 q 784 228 785 214 q 783 247 783 242 q 775 439 783 257 q 772 639 769 560 q 781 735 775 688 q 795 855 786 783 q 807 958 804 926 q 833 1004 811 986 q 884 1019 856 1022 q 931 993 913 1015 q 946 942 949 971 l 932 842 q 918 735 924 788 q 911 633 913 685 q 914 446 908 557 q 922 250 922 272 q 922 149 924 165 q 903 71 918 103 q 819 4 876 14 l 819 4 m 549 981 q 489 1000 518 979 q 454 1033 474 1011 l 357 1142 q 342 1185 340 1160 q 360 1226 343 1210 q 403 1242 378 1243 q 444 1222 428 1240 l 542 1113 l 544 1111 l 553 1119 q 658 1221 618 1185 q 702 1234 678 1236 q 742 1214 726 1232 q 757 1172 758 1196 q 738 1129 756 1147 q 638 1035 700 1097 q 603 1004 615 1013 q 549 981 576 983 l 549 981 z "},"Ņ":{"ha":1003,"x_min":117,"x_max":917,"o":"m 842 21 q 789 3 818 1 q 739 24 760 4 q 711 64 722 38 q 701 89 711 65 l 700 94 l 568 279 q 269 722 365 557 q 263 435 264 561 q 260 322 263 400 q 257 183 257 244 q 263 72 257 122 q 247 22 265 44 q 201 -4 229 -1 q 149 11 172 -7 q 124 58 126 29 q 118 188 118 115 q 120 329 117 247 q 124 438 124 411 q 131 729 125 564 q 136 861 133 806 q 139 904 138 892 q 141 919 140 913 q 144 931 142 925 q 149 944 146 938 q 188 978 161 968 q 292 949 242 997 q 336 892 313 928 q 365 839 350 868 l 374 821 q 376 818 375 818 q 679 363 474 646 l 735 286 q 733 328 733 326 q 775 938 726 689 q 804 981 781 965 q 856 992 828 997 q 901 963 885 986 q 911 910 917 939 q 872 331 867 676 q 873 304 872 326 q 874 252 874 282 q 875 197 875 222 q 874 113 876 144 q 871 76 874 90 q 865 57 868 65 q 842 21 858 35 l 842 21 m 547 -375 q 502 -403 531 -399 q 450 -392 474 -408 q 422 -347 426 -375 q 433 -294 417 -318 q 472 -217 457 -261 q 476 -196 475 -204 l 449 -196 q 402 -171 421 -193 q 386 -120 383 -149 q 411 -73 389 -92 q 463 -57 433 -54 l 467 -57 l 474 -56 q 492 -56 481 -56 q 575 -82 543 -53 q 604 -258 640 -140 q 547 -375 583 -324 l 547 -375 z "},"Ñ":{"ha":1065,"x_min":122,"x_max":942,"o":"m 868 -14 q 819 6 840 -14 q 789 25 801 11 q 661 186 725 94 l 528 385 q 421 546 463 488 q 299 707 386 596 l 272 742 q 274 63 249 322 q 258 11 276 33 q 210 -14 239 -11 q 160 2 182 -17 q 135 49 138 21 q 122 353 122 183 q 128 617 122 522 l 143 917 q 166 965 144 946 q 217 982 188 983 q 289 953 263 992 q 408 792 331 893 q 535 626 499 676 q 667 428 582 561 q 801 228 753 293 q 801 386 803 324 q 797 520 800 435 q 791 663 793 606 q 788 795 789 719 q 792 933 788 871 q 815 981 793 963 q 865 999 836 1000 q 913 976 894 997 q 931 925 932 954 q 926 747 926 790 q 933 569 926 703 q 940 392 939 435 q 940 208 942 326 q 938 56 938 90 q 917 6 938 26 q 868 -14 897 -14 l 868 -14 m 672 1011 q 624 1017 647 1010 q 582 1036 601 1024 q 531 1069 563 1049 q 454 1101 481 1104 q 363 1046 413 1100 q 319 1030 340 1025 q 285 1051 297 1035 q 274 1088 272 1067 q 288 1128 276 1108 q 450 1228 365 1224 q 500 1221 474 1229 q 551 1196 526 1213 l 590 1169 q 667 1138 640 1136 q 739 1206 711 1139 q 778 1226 753 1226 q 817 1207 804 1225 q 826 1165 829 1189 q 813 1121 824 1140 q 672 1011 757 1015 l 672 1011 z "},"Ŋ":{"ha":1058,"x_min":114,"x_max":933,"o":"m 713 -294 q 669 -263 685 -287 q 662 -211 654 -239 q 693 -168 669 -183 l 739 -144 q 758 -132 754 -137 q 785 -25 785 -106 q 783 31 785 1 q 756 51 767 38 q 447 468 586 254 q 304 704 419 510 l 265 765 q 282 72 258 440 q 265 22 283 43 q 217 -1 246 0 q 166 16 188 -3 q 143 64 144 35 q 133 958 114 549 q 153 1004 135 985 q 171 1024 160 1015 q 222 1037 193 1040 q 268 1010 250 1033 q 422 775 332 925 l 564 543 q 774 250 660 396 q 783 636 772 389 q 794 978 793 883 q 815 1026 794 1007 q 865 1046 836 1046 q 914 1025 894 1046 q 933 975 933 1004 q 921 612 932 914 q 914 143 910 310 q 919 69 914 131 q 924 -26 924 11 q 858 -229 922 -164 q 803 -268 838 -250 l 786 -276 q 765 -287 772 -283 q 713 -294 740 -303 l 713 -294 z "},"Ó":{"ha":1079,"x_min":61,"x_max":1018,"o":"m 549 -18 q 383 3 463 -19 q 227 76 303 22 q 110 206 151 129 q 63 410 65 292 q 94 631 61 529 q 199 838 131 746 q 367 968 268 929 q 490 988 421 989 q 554 1006 517 1013 q 753 928 664 983 q 898 797 842 872 q 985 635 954 722 q 1017 458 1015 549 q 990 284 1018 368 q 905 133 961 200 q 757 24 849 67 q 549 -18 664 -17 l 549 -18 m 546 118 q 733 167 656 119 q 844 290 810 215 q 878 457 879 365 q 797 701 875 589 q 579 860 718 814 q 539 850 561 849 q 468 853 494 853 q 417 843 442 853 q 307 751 357 818 q 228 593 257 685 q 202 413 200 500 q 235 268 204 325 q 358 156 272 194 q 546 118 443 117 l 546 118 m 528 1047 q 480 1029 511 1028 q 429 1053 449 1031 q 412 1106 410 1076 q 436 1151 414 1135 l 536 1249 q 585 1266 556 1267 q 633 1244 614 1265 q 652 1193 653 1224 q 632 1146 651 1163 l 528 1047 l 528 1047 z "},"Ŏ":{"ha":1058,"x_min":58,"x_max":999,"o":"m 506 -24 q 335 28 413 -11 q 206 124 258 67 q 120 253 154 182 q 72 400 86 325 q 64 551 58 475 q 203 890 76 760 q 575 1008 349 1042 q 597 1001 588 1007 q 777 919 697 979 q 904 780 857 860 q 975 611 951 700 q 996 431 999 521 q 869 97 990 225 q 506 -24 731 -50 l 506 -24 m 522 115 q 768 192 678 96 q 857 435 853 282 q 827 627 861 536 q 722 785 793 718 q 553 869 650 851 q 538 874 544 871 q 303 794 394 888 q 201 543 211 700 q 228 349 196 439 q 338 193 261 258 q 522 115 413 128 l 522 115 m 369 1081 q 328 1114 342 1089 q 322 1167 314 1139 q 356 1208 331 1194 q 408 1214 381 1222 q 489 1200 450 1201 q 562 1205 528 1199 q 651 1225 596 1211 q 704 1219 679 1233 q 737 1176 729 1204 q 730 1124 744 1149 q 688 1092 715 1099 q 583 1067 624 1075 q 485 1062 542 1060 q 369 1081 428 1064 l 369 1081 z "},"Ô":{"ha":1058,"x_min":58,"x_max":1015,"o":"m 531 -15 q 265 65 379 -21 q 101 285 153 150 q 63 457 67 368 q 88 636 58 546 q 186 796 118 726 q 260 863 215 824 q 372 936 333 922 q 465 958 406 946 q 532 990 488 996 q 557 988 535 989 q 601 983 579 986 q 639 976 622 981 q 736 924 676 965 q 810 869 781 894 q 972 619 929 767 q 978 331 1015 472 q 824 88 940 185 q 531 -15 706 -10 l 531 -15 m 525 118 q 735 190 654 122 q 846 365 818 258 q 840 582 874 471 q 718 768 808 692 q 658 814 696 789 q 600 847 615 843 q 575 853 589 851 q 544 836 563 840 l 497 829 q 454 819 472 824 q 419 810 436 815 q 350 760 401 804 q 285 701 310 726 q 203 531 218 632 q 229 332 189 428 q 349 174 268 233 q 525 118 426 114 l 525 118 m 447 1033 q 406 1014 431 1015 q 363 1029 381 1013 q 344 1071 346 1046 q 360 1114 343 1096 l 457 1222 q 492 1256 476 1244 q 551 1275 521 1276 q 606 1251 579 1272 q 640 1221 618 1243 q 740 1126 703 1158 q 760 1084 758 1108 q 745 1042 761 1060 q 705 1022 729 1024 q 661 1035 681 1019 q 556 1136 621 1071 l 547 1144 l 544 1143 l 447 1033 l 447 1033 z "},"Ö":{"ha":1110,"x_min":47,"x_max":1049,"o":"m 422 -18 q 243 73 321 6 q 124 226 165 140 q 68 413 82 313 q 96 706 47 563 q 263 931 144 849 q 540 1003 368 1003 q 576 1003 558 1008 q 617 994 583 1001 q 664 982 650 986 l 703 969 q 753 950 731 961 q 797 926 775 939 q 943 797 885 874 q 1025 637 1001 721 q 1047 465 1049 553 q 1015 297 1044 378 q 931 147 985 214 q 801 34 878 81 q 630 -27 725 -12 q 422 -18 535 -42 l 422 -18 m 453 118 q 725 150 611 82 q 885 344 838 217 q 908 470 906 406 q 892 597 910 535 q 831 714 874 658 q 725 807 789 769 l 706 818 q 688 827 696 824 q 667 835 679 831 l 650 842 q 627 847 643 843 q 606 853 611 851 q 582 858 601 854 l 557 865 q 544 864 551 864 q 340 817 410 864 q 225 656 261 763 q 206 432 189 550 q 288 226 222 311 q 453 118 353 140 l 453 118 m 510 1126 q 478 1069 503 1093 q 408 1051 454 1046 q 340 1083 363 1057 q 315 1138 317 1108 q 335 1197 314 1168 q 394 1235 356 1225 q 426 1242 415 1242 l 428 1242 q 432 1242 429 1242 q 438 1243 435 1242 q 465 1239 454 1244 q 507 1192 496 1224 q 510 1126 517 1160 l 510 1126 m 761 1125 q 730 1068 754 1092 q 660 1050 706 1044 q 591 1081 614 1056 q 567 1137 568 1107 q 586 1195 565 1167 q 646 1233 607 1224 q 664 1240 653 1240 l 665 1240 q 676 1240 667 1240 q 689 1242 686 1240 q 717 1238 706 1243 q 758 1190 747 1222 q 761 1125 768 1158 l 761 1125 z "},"Ò":{"ha":1014,"x_min":50,"x_max":958,"o":"m 365 7 q 199 92 257 39 q 81 301 113 171 q 71 567 50 431 q 160 819 90 704 q 340 982 229 933 q 449 1006 390 1003 q 539 1006 507 1010 q 563 1001 551 1006 q 604 994 585 1004 q 760 892 693 949 q 872 754 826 836 q 939 570 919 669 q 947 372 958 471 q 876 185 935 274 q 718 46 818 97 q 547 -11 629 -1 q 365 7 464 -21 l 365 7 m 404 140 q 531 128 474 121 q 654 168 588 135 q 781 301 740 214 q 812 491 821 389 q 750 688 803 593 q 546 867 692 792 l 536 867 q 456 868 488 869 q 396 854 424 867 q 274 740 325 824 q 208 546 224 657 q 215 340 192 436 q 293 194 238 244 q 404 140 328 163 l 404 140 m 396 1150 q 376 1197 376 1167 q 394 1249 375 1228 q 443 1270 414 1269 q 492 1253 472 1271 l 592 1156 q 616 1110 614 1139 q 599 1058 618 1081 q 548 1033 579 1035 q 500 1051 517 1032 l 396 1150 z "},"Ő":{"ha":1036,"x_min":54,"x_max":976,"o":"m 697 -11 q 469 -8 611 -36 q 262 88 353 15 q 123 257 171 161 q 65 460 75 353 q 85 669 54 569 q 196 850 115 769 q 399 964 278 932 q 472 939 444 976 q 644 900 564 933 q 783 813 725 867 q 884 692 842 758 q 949 550 926 625 q 972 416 968 485 q 962 281 976 347 q 916 157 947 214 q 828 55 885 100 q 697 -11 772 10 l 697 -11 m 658 122 q 814 264 771 154 q 815 510 857 374 q 660 733 772 649 q 386 796 547 817 q 357 799 371 794 q 232 665 271 751 q 203 474 193 578 q 294 250 215 347 q 497 128 372 153 q 658 122 604 107 l 658 122 m 378 1022 q 333 1005 361 1004 q 288 1025 306 1006 q 273 1072 271 1044 q 296 1114 275 1099 l 386 1231 q 431 1247 404 1246 q 475 1229 458 1247 q 492 1183 492 1211 q 474 1139 492 1156 l 378 1022 l 378 1022 m 601 1013 q 555 990 582 996 q 506 1007 528 985 q 495 1064 483 1029 q 529 1113 507 1099 l 629 1207 q 676 1219 650 1221 q 718 1197 703 1217 q 730 1149 733 1176 q 707 1107 726 1122 l 601 1013 l 601 1013 z "},"Ō":{"ha":1106,"x_min":44,"x_max":1056,"o":"m 704 -10 q 446 11 596 -35 q 208 145 304 56 q 79 354 113 235 q 79 600 44 474 q 214 839 114 725 q 322 938 274 906 q 381 981 339 978 l 424 983 l 460 992 q 507 985 485 997 q 939 788 794 978 q 1033 569 1010 694 q 1026 331 1056 444 q 915 114 997 207 q 704 -10 833 21 l 704 -10 m 674 126 q 815 209 758 146 q 892 363 871 272 q 896 544 913 451 q 828 704 879 638 q 670 819 764 788 q 447 844 576 850 q 383 811 411 833 q 317 747 354 789 q 214 566 239 658 q 213 392 189 474 q 306 244 236 310 q 488 144 374 181 q 674 126 603 108 l 674 126 m 349 1063 q 301 1082 321 1063 q 282 1129 282 1101 q 301 1176 282 1157 q 349 1196 321 1196 l 724 1196 q 771 1176 751 1196 q 790 1129 790 1157 q 771 1082 790 1101 q 724 1063 751 1063 l 349 1063 l 349 1063 z "},"Ǫ":{"ha":1058,"x_min":60,"x_max":996,"o":"m 551 -292 q 407 -251 461 -294 q 346 -121 344 -199 q 393 17 346 -46 q 465 74 422 50 q 544 104 507 99 q 596 94 575 108 q 621 54 617 81 q 611 17 624 32 q 554 -10 599 1 q 483 -47 507 -22 q 458 -111 458 -72 q 483 -169 458 -147 q 544 -190 508 -190 q 573 -185 561 -190 q 597 -172 585 -181 q 618 -162 607 -167 q 642 -157 629 -157 q 678 -169 665 -157 q 692 -204 692 -182 q 649 -266 692 -240 q 551 -292 606 -292 l 551 -292 m 433 -4 q 301 34 361 6 q 200 104 242 63 q 127 199 158 146 q 83 309 96 251 q 65 428 69 367 q 67 546 60 489 q 99 686 75 618 q 165 815 124 754 q 262 917 207 875 q 390 979 317 960 q 538 1001 464 999 q 607 999 571 1003 q 717 976 675 990 q 876 878 813 944 q 967 733 939 813 q 995 563 994 653 q 974 388 996 474 q 908 222 953 301 q 792 87 864 143 q 626 6 719 31 q 433 -4 532 -18 l 433 -4 l 433 -4 m 454 138 q 694 192 583 114 q 842 425 807 269 q 851 603 863 519 q 793 751 840 688 q 679 840 746 814 q 628 857 647 853 q 583 861 610 861 q 538 863 563 861 q 468 858 511 864 q 306 760 389 849 q 207 531 222 672 q 217 346 196 432 q 301 207 239 260 q 454 138 363 156 l 454 138 l 454 138 z "},"Ø":{"ha":1092,"x_min":43,"x_max":1060,"o":"m 143 -19 q 106 -40 129 -37 q 65 -26 82 -42 q 45 12 47 -11 q 58 51 43 35 l 210 192 l 964 1013 q 1003 1029 981 1029 q 1043 1014 1026 1029 q 1060 975 1060 999 q 1046 935 1060 951 l 588 433 l 288 113 l 143 -19 l 143 -19 m 536 126 q 781 209 688 121 q 893 432 875 297 q 881 603 904 521 q 793 755 857 686 q 633 856 729 824 q 550 869 613 863 q 522 856 538 860 q 394 815 444 838 q 308 750 344 792 q 229 613 258 693 q 200 449 201 532 q 237 296 200 363 q 336 186 274 229 q 423 146 367 164 q 536 126 479 128 l 536 126 m 531 -12 q 385 13 461 -10 q 256 72 310 35 q 112 236 163 138 q 61 450 61 335 q 100 661 63 557 q 203 842 138 765 q 463 985 289 942 q 529 1011 488 1018 q 567 1008 536 1011 q 626 999 597 1004 q 678 986 656 994 q 851 892 776 954 q 968 751 926 829 q 1026 588 1010 674 q 1031 415 1042 500 q 982 251 1019 328 q 882 113 943 174 q 730 17 821 51 q 531 -12 639 -17 l 531 -12 z "},"Ǿ":{"ha":1092,"x_min":43,"x_max":1060,"o":"m 143 -32 q 106 -52 129 -50 q 65 -39 82 -54 q 45 -1 47 -24 q 58 39 43 22 l 210 179 l 964 1000 q 1003 1017 981 1017 q 1043 1001 1026 1017 q 1060 963 1060 986 q 1046 922 1060 939 l 588 421 l 288 100 l 143 -32 l 143 -32 m 365 1 q 197 108 246 58 q 67 482 53 250 q 110 672 72 582 q 225 835 149 761 q 406 943 301 908 q 513 960 457 957 q 602 960 568 964 q 697 949 636 957 q 733 932 717 946 q 886 835 826 889 q 1008 569 982 718 q 983 254 1035 419 q 879 108 947 172 q 727 12 811 44 q 548 -26 643 -21 q 365 1 453 -32 l 365 1 m 411 121 q 583 106 493 94 q 747 172 672 118 q 856 304 821 225 q 875 513 889 383 q 792 743 861 643 q 710 803 718 800 q 681 813 703 807 q 642 825 658 819 l 636 828 q 446 819 518 843 q 272 691 338 786 q 199 474 206 596 q 285 199 199 304 q 411 121 335 153 l 411 121 m 575 1058 q 527 1040 558 1039 q 476 1065 496 1042 q 459 1117 457 1088 q 483 1163 461 1146 l 583 1260 q 632 1277 603 1278 q 681 1256 661 1276 q 699 1204 700 1235 q 679 1157 699 1174 l 575 1058 l 575 1058 z "},"Õ":{"ha":1096,"x_min":63,"x_max":1043,"o":"m 532 -28 q 381 -6 463 -25 q 244 50 299 13 q 107 217 151 115 q 63 435 63 319 q 101 646 64 542 q 204 826 139 750 q 464 969 290 926 q 531 996 489 1003 q 568 992 538 996 q 628 984 599 989 q 679 971 657 979 q 853 876 778 939 q 969 736 928 814 q 1028 572 1011 658 q 1032 400 1043 485 q 983 236 1021 313 q 883 97 944 158 q 731 2 822 36 q 532 -28 640 -32 l 532 -28 m 538 111 q 783 194 689 106 q 894 417 876 282 q 882 588 906 506 q 794 740 858 671 q 635 840 731 808 q 551 854 614 847 q 524 840 539 844 q 396 800 446 822 q 310 735 346 776 q 231 597 260 678 q 201 433 203 517 q 232 277 201 347 q 325 164 263 207 q 418 127 356 142 q 538 111 481 113 l 538 111 m 686 1031 q 630 1039 660 1029 q 586 1058 600 1049 q 546 1083 572 1067 q 458 1121 485 1124 q 361 1065 414 1119 q 319 1046 338 1044 q 285 1067 300 1047 q 270 1107 269 1086 q 283 1147 271 1128 q 453 1247 364 1243 q 507 1240 478 1249 q 550 1221 536 1231 l 590 1196 q 681 1157 653 1156 q 757 1225 728 1158 q 798 1245 771 1246 q 838 1226 825 1244 q 849 1184 851 1208 q 833 1140 846 1160 q 686 1031 775 1035 l 686 1031 z "},"Œ":{"ha":1472,"x_min":65,"x_max":1435,"o":"m 525 -19 q 374 18 444 -15 q 200 133 279 61 q 93 308 125 218 q 69 411 69 364 q 69 518 65 451 q 107 700 75 615 q 194 858 139 788 q 336 971 250 928 q 526 1018 422 1014 q 746 979 654 1022 q 767 1001 754 993 q 828 1044 783 1043 q 888 1015 865 1046 q 1086 1023 950 1017 q 1294 1031 1222 1029 q 1344 1011 1324 1031 q 1365 963 1365 992 q 1346 913 1365 933 q 1297 892 1326 892 q 1093 884 1226 890 q 903 876 960 878 q 904 842 904 860 l 910 836 q 926 788 928 815 q 906 742 925 761 q 908 601 908 633 q 1246 614 1158 614 q 1295 594 1275 614 q 1315 544 1315 574 q 1295 495 1315 515 q 1246 475 1275 475 q 913 464 1160 475 q 938 142 919 282 q 1138 145 990 143 q 1365 147 1285 147 q 1415 127 1394 147 q 1435 78 1435 107 q 1415 28 1435 49 q 1365 8 1394 8 q 1134 6 1283 8 q 926 3 985 3 q 890 -14 911 -11 q 849 -8 868 -18 q 819 19 831 1 q 794 72 794 40 q 801 104 794 89 l 801 108 l 796 101 q 668 1 742 31 q 525 -19 594 -28 l 525 -19 m 433 143 q 685 185 601 74 q 696 201 692 193 q 705 222 700 210 q 712 240 710 233 q 719 267 714 247 l 728 297 q 779 346 739 336 q 772 490 775 413 q 761 526 763 507 q 771 564 760 547 q 767 789 771 579 q 711 840 735 825 q 532 879 646 883 q 304 772 390 875 q 208 510 218 668 q 205 430 204 461 q 221 361 206 399 q 299 231 243 296 q 433 143 361 175 l 433 143 z "},"Ŕ":{"ha":983,"x_min":117,"x_max":978,"o":"m 860 15 q 773 115 817 57 q 704 210 729 172 q 635 322 679 249 q 576 419 592 396 q 550 415 564 417 q 276 428 418 403 q 257 63 271 242 q 233 16 254 35 q 183 -1 211 -3 q 135 23 154 1 q 118 74 117 44 q 142 900 149 469 q 162 950 142 929 q 210 971 182 971 q 254 956 235 971 q 338 971 294 965 l 404 976 q 547 967 481 981 q 751 857 663 944 q 843 626 857 753 q 715 458 829 514 l 760 386 l 808 306 l 850 243 q 903 172 878 201 q 957 115 929 143 q 978 66 978 94 q 958 17 978 38 q 909 -4 938 -4 q 860 15 881 -4 l 860 15 m 536 554 q 704 643 696 569 q 654 758 711 701 q 519 831 594 815 q 282 819 408 853 q 281 568 282 693 q 536 554 408 542 l 536 554 m 481 1044 q 433 1026 464 1025 q 382 1051 401 1028 q 365 1103 363 1074 q 389 1149 367 1132 l 489 1246 q 538 1263 508 1264 q 586 1242 567 1263 q 605 1190 606 1221 q 585 1143 604 1160 l 481 1044 l 481 1044 z "},"Ř":{"ha":988,"x_min":125,"x_max":935,"o":"m 765 147 l 740 217 q 721 276 733 244 q 694 328 708 307 q 619 387 668 365 q 468 414 569 408 q 440 413 454 414 q 385 408 426 413 q 326 403 344 404 q 268 401 288 399 q 271 71 271 199 q 251 22 271 42 q 201 1 231 1 q 152 22 172 1 q 132 71 132 42 q 128 480 132 207 q 125 889 125 753 q 140 932 125 913 q 160 965 144 951 q 196 982 175 979 q 374 997 275 994 q 603 982 472 999 q 691 963 650 975 q 777 928 732 951 q 853 876 822 906 q 904 801 885 846 q 921 700 924 756 q 746 474 915 549 q 808 407 782 446 q 846 335 828 378 q 874 258 864 292 q 901 171 885 224 q 926 86 917 118 q 921 34 935 60 q 880 0 907 8 q 827 6 853 -8 q 793 47 801 19 l 765 147 m 283 551 q 307 553 293 553 q 365 554 329 554 q 454 554 435 556 l 468 554 q 667 592 589 563 q 782 706 779 632 q 581 846 786 811 q 264 851 439 869 q 267 549 264 735 l 283 551 z "},"Ŗ":{"ha":1000,"x_min":122,"x_max":953,"o":"m 668 367 q 297 378 525 333 q 269 390 282 381 q 274 64 274 172 q 253 15 274 35 q 204 -6 233 -6 q 155 15 175 -6 q 135 64 135 35 q 128 492 135 140 q 129 921 122 844 q 142 958 131 942 q 197 1006 156 999 l 274 1019 q 351 1030 290 1022 q 442 1037 411 1038 q 525 1033 474 1036 q 619 1018 576 1031 q 701 986 661 1006 q 826 883 771 950 q 904 739 881 817 q 919 628 919 682 q 888 519 918 574 q 801 425 858 464 l 796 421 l 942 94 q 942 41 953 68 q 906 3 932 14 q 852 2 879 -8 q 814 39 825 13 l 668 367 m 574 -347 q 528 -374 557 -371 q 476 -361 500 -378 q 449 -316 453 -344 q 463 -264 446 -287 q 508 -179 494 -222 q 514 -142 515 -157 q 475 -137 489 -140 q 432 -106 447 -131 q 423 -54 417 -82 q 453 -11 429 -26 q 506 -1 478 4 q 510 -3 508 -3 l 536 -3 q 617 -42 589 -7 q 640 -222 676 -112 q 574 -347 619 -289 l 574 -347 m 267 500 q 325 514 292 521 q 642 504 528 474 q 669 526 651 518 q 713 532 689 536 q 724 539 718 536 q 771 699 803 594 q 718 794 756 750 q 638 861 682 839 q 524 893 589 886 q 403 895 458 900 q 267 876 349 890 q 267 500 263 728 l 267 500 z "},"Ś":{"ha":840,"x_min":57,"x_max":779,"o":"m 404 -14 q 226 24 306 -14 q 102 130 147 63 q 57 283 57 197 q 78 337 57 317 q 129 357 100 357 q 169 343 151 357 q 192 301 188 329 q 422 122 211 122 q 582 167 524 122 q 640 281 640 211 q 600 351 640 322 q 490 401 560 379 l 447 417 q 250 492 310 463 q 122 593 164 535 q 79 731 79 651 q 124 864 79 800 q 248 967 168 928 q 426 1007 328 1007 q 610 969 529 1007 q 735 869 690 932 q 779 736 779 807 q 759 680 779 700 q 710 660 739 660 q 663 680 682 660 q 643 733 643 700 q 613 801 643 768 q 533 853 583 833 q 422 874 482 874 q 269 838 319 874 q 217 740 219 803 q 238 682 215 707 q 307 631 260 657 q 401 587 351 607 q 535 539 451 567 q 712 441 646 501 q 778 285 778 381 q 725 128 778 196 q 587 23 672 60 q 404 -14 501 -14 l 404 -14 m 450 1047 q 403 1035 429 1032 q 358 1057 376 1038 q 343 1104 340 1076 q 367 1151 346 1132 l 507 1258 q 554 1269 526 1272 q 596 1240 582 1265 q 605 1189 610 1215 q 579 1146 600 1163 q 450 1047 515 1097 l 450 1047 z "},"Š":{"ha":926,"x_min":53,"x_max":876,"o":"m 431 -12 q 199 33 293 -11 q 56 208 71 92 q 61 271 53 236 q 67 292 61 272 q 69 306 68 300 q 97 351 74 333 q 148 363 119 368 q 194 335 176 358 q 206 283 211 313 q 200 258 204 272 q 199 250 200 257 q 196 240 197 243 q 194 225 193 229 q 257 160 199 186 q 432 126 325 128 q 626 154 539 125 q 726 215 706 181 q 736 258 736 232 q 722 311 735 286 q 622 407 694 368 q 429 486 551 446 q 238 554 278 536 q 104 690 124 607 q 115 806 90 753 q 189 894 139 860 q 407 957 276 957 q 529 940 469 957 q 644 888 589 922 q 738 794 699 854 q 789 657 778 735 q 777 605 794 628 q 731 577 760 582 q 680 590 703 572 q 653 635 657 607 q 570 771 639 724 q 407 818 501 818 q 268 781 321 818 q 240 721 232 756 q 296 681 243 704 q 472 618 325 667 l 554 590 q 638 556 586 579 q 723 508 689 532 q 792 449 757 485 q 847 372 826 414 q 874 263 872 321 q 846 146 876 206 q 669 22 800 65 q 431 -12 560 -14 l 431 -12 m 442 1014 q 364 1042 410 1017 q 283 1085 288 1083 q 248 1126 257 1099 q 252 1178 239 1153 q 292 1213 265 1204 q 344 1210 319 1222 q 431 1164 351 1206 q 453 1153 447 1154 q 467 1158 457 1154 q 546 1210 486 1169 q 597 1221 569 1226 q 642 1192 625 1215 q 653 1140 658 1168 q 624 1096 647 1113 q 532 1036 558 1050 q 442 1014 483 1011 l 442 1014 z "},"Ş":{"ha":840,"x_min":57,"x_max":779,"o":"m 417 -333 q 315 -307 356 -333 q 275 -242 275 -281 q 288 -209 275 -222 q 319 -196 300 -196 q 343 -202 333 -196 q 365 -221 353 -208 q 418 -243 388 -243 q 449 -231 436 -243 q 464 -199 463 -218 q 432 -158 464 -168 q 374 -151 406 -151 q 336 -137 351 -151 q 321 -104 321 -124 q 431 40 321 -51 q 504 7 464 31 q 447 -51 467 -26 q 425 -101 426 -75 l 389 -82 q 405 -76 397 -79 q 418 -72 413 -72 q 526 -108 483 -71 q 568 -194 568 -144 q 524 -293 568 -253 q 417 -333 481 -333 l 417 -333 m 404 -14 q 226 24 306 -14 q 102 130 147 63 q 57 283 57 197 q 78 337 57 317 q 129 357 100 357 q 169 343 151 357 q 192 301 188 329 q 422 122 211 122 q 582 167 524 122 q 640 281 640 211 q 600 351 640 322 q 490 401 560 379 l 447 417 q 250 492 310 463 q 122 593 164 535 q 79 731 79 651 q 124 864 79 800 q 248 967 168 928 q 426 1007 328 1007 q 610 969 529 1007 q 735 869 690 932 q 779 736 779 807 q 759 680 779 700 q 710 660 739 660 q 663 680 682 660 q 643 733 643 700 q 613 801 643 768 q 533 853 583 833 q 422 874 482 874 q 269 838 319 874 q 217 740 219 803 q 238 682 215 707 q 307 631 260 657 q 401 587 351 607 q 535 539 451 567 q 712 441 646 501 q 778 285 778 381 q 725 128 778 196 q 587 23 672 60 q 404 -14 501 -14 l 404 -14 l 404 -14 z "},"Ŝ":{"ha":926,"x_min":53,"x_max":876,"o":"m 431 -12 q 199 33 293 -11 q 56 208 71 92 q 61 271 53 236 q 67 292 61 272 q 69 306 68 300 q 97 351 74 333 q 148 363 119 368 q 194 335 176 358 q 206 283 211 313 q 200 258 204 272 q 199 250 200 257 q 196 240 197 243 q 194 225 193 229 q 257 160 199 186 q 432 126 325 128 q 626 154 539 125 q 726 215 706 181 q 736 258 736 232 q 722 311 735 286 q 622 407 694 368 q 429 486 551 446 q 238 554 278 536 q 104 690 124 607 q 115 806 90 753 q 189 894 139 860 q 407 957 276 957 q 529 940 469 957 q 644 888 589 922 q 738 794 699 854 q 789 657 778 735 q 777 605 794 628 q 731 577 760 582 q 680 590 703 572 q 653 635 657 607 q 570 771 639 724 q 407 818 501 818 q 268 781 321 818 q 240 721 232 756 q 296 681 243 704 q 472 618 325 667 l 554 590 q 638 556 586 579 q 723 508 689 532 q 792 449 757 485 q 847 372 826 414 q 874 263 872 321 q 846 146 876 206 q 669 22 800 65 q 431 -12 560 -14 l 431 -12 m 544 1035 q 480 1103 510 1082 q 429 1125 450 1125 q 421 1124 425 1125 q 400 1111 417 1122 q 311 1014 336 1026 q 260 1009 286 1001 q 221 1042 233 1017 q 217 1093 208 1067 q 307 1206 257 1154 q 428 1258 357 1258 q 654 1113 549 1260 q 665 1062 669 1089 q 638 1019 661 1035 q 588 1008 615 1003 q 544 1035 560 1013 l 544 1035 z "},"Ș":{"ha":840,"x_min":57,"x_max":779,"o":"m 404 -14 q 226 24 306 -14 q 102 130 147 63 q 57 283 57 197 q 78 337 57 317 q 129 357 100 357 q 169 343 151 357 q 192 301 188 329 q 422 122 211 122 q 582 167 524 122 q 640 281 640 211 q 600 351 640 322 q 490 401 560 379 l 447 417 q 250 492 310 463 q 122 593 164 535 q 79 731 79 651 q 124 864 79 800 q 248 967 168 928 q 426 1007 328 1007 q 610 969 529 1007 q 735 869 690 932 q 779 736 779 807 q 759 680 779 700 q 710 660 739 660 q 663 680 682 660 q 643 733 643 700 q 613 801 643 768 q 533 853 583 833 q 422 874 482 874 q 269 838 319 874 q 217 740 219 803 q 238 682 215 707 q 307 631 260 657 q 401 587 351 607 q 535 539 451 567 q 712 441 646 501 q 778 285 778 381 q 725 128 778 196 q 587 23 672 60 q 404 -14 501 -14 l 404 -14 m 447 -332 q 410 -350 432 -349 q 375 -339 389 -351 q 360 -304 361 -326 q 374 -265 358 -282 q 411 -207 386 -251 q 379 -193 392 -204 q 357 -170 365 -185 q 349 -136 349 -156 q 360 -100 349 -117 q 393 -74 372 -83 l 413 -65 q 438 -63 429 -62 q 458 -67 446 -64 q 511 -103 490 -72 q 526 -185 533 -135 q 500 -258 519 -224 q 447 -332 479 -301 l 447 -332 z "},"Ŧ":{"ha":835,"x_min":15,"x_max":818,"o":"m 236 433 q 185 452 207 433 q 164 500 163 471 q 183 542 164 525 q 231 560 201 560 l 607 561 q 653 542 635 561 q 672 494 672 522 q 651 451 671 468 q 606 435 632 435 l 236 433 l 236 433 m 476 69 q 456 21 476 40 q 406 1 435 1 q 357 22 376 1 q 338 72 338 43 q 336 465 339 121 q 344 854 335 717 q 89 851 193 856 q 39 870 60 850 q 17 919 18 890 q 35 968 15 947 q 83 990 56 989 q 415 993 203 994 q 747 993 628 992 q 797 974 776 993 q 818 925 818 954 q 799 875 818 896 q 750 854 779 854 q 483 853 651 853 q 475 467 474 719 q 476 69 478 121 l 476 69 l 476 69 z "},"Ť":{"ha":835,"x_min":15,"x_max":818,"o":"m 476 69 q 456 21 476 40 q 406 1 435 1 q 357 22 376 1 q 338 72 338 43 q 336 465 339 121 q 344 854 335 717 q 89 851 193 856 q 39 870 60 850 q 17 919 18 890 q 35 968 15 947 q 83 990 56 989 q 415 993 203 994 q 747 993 628 992 q 797 974 776 993 q 818 925 818 954 q 799 875 818 896 q 750 854 779 854 q 483 853 651 853 q 475 467 474 719 q 476 69 478 121 l 476 69 z "},"Ţ":{"ha":835,"x_min":15,"x_max":818,"o":"m 386 -319 q 285 -293 325 -319 q 244 -228 244 -267 q 257 -195 244 -208 q 289 -182 269 -182 q 313 -188 303 -182 q 335 -207 322 -194 q 388 -229 357 -229 q 419 -217 406 -229 q 433 -185 432 -204 q 401 -144 433 -154 q 343 -137 375 -137 q 306 -124 321 -137 q 290 -90 290 -110 q 400 54 290 -37 q 474 21 433 44 q 416 -37 436 -12 q 394 -87 396 -61 l 358 -68 q 374 -62 367 -65 q 388 -58 382 -58 q 495 -94 453 -57 q 538 -181 538 -131 q 494 -279 538 -239 q 386 -319 450 -319 l 386 -319 m 476 69 q 456 21 476 40 q 406 1 435 1 q 357 22 376 1 q 338 72 338 43 q 336 465 339 121 q 344 854 335 717 q 89 851 193 856 q 39 870 60 850 q 17 919 18 890 q 35 968 15 947 q 83 990 56 989 q 415 993 203 994 q 747 993 628 992 q 797 974 776 993 q 818 925 818 954 q 799 875 818 896 q 750 854 779 854 q 483 853 651 853 q 475 467 474 719 q 476 69 478 121 l 476 69 l 476 69 z "},"Ț":{"ha":835,"x_min":15,"x_max":818,"o":"m 476 69 q 456 21 476 40 q 406 1 435 1 q 357 22 376 1 q 338 72 338 43 q 336 465 339 121 q 344 854 335 717 q 89 851 193 856 q 39 870 60 850 q 17 919 18 890 q 35 968 15 947 q 83 990 56 989 q 415 993 203 994 q 747 993 628 992 q 797 974 776 993 q 818 925 818 954 q 799 875 818 896 q 750 854 779 854 q 483 853 651 853 q 475 467 474 719 q 476 69 478 121 l 476 69 m 417 -318 q 380 -336 401 -335 q 344 -325 358 -337 q 329 -290 331 -312 q 343 -251 328 -268 q 381 -193 356 -237 q 349 -179 361 -190 q 326 -156 335 -171 q 318 -122 318 -142 q 330 -86 318 -103 q 363 -60 342 -69 l 382 -51 q 407 -49 399 -49 q 428 -53 415 -50 q 481 -89 460 -58 q 496 -171 503 -121 q 469 -244 489 -210 q 417 -318 449 -287 l 417 -318 z "},"Þ":{"ha":893,"x_min":114,"x_max":885,"o":"m 129 67 q 122 926 114 464 q 143 975 122 956 q 193 994 164 994 q 242 974 222 994 q 261 924 261 953 l 261 857 q 476 857 456 858 q 750 794 663 850 q 857 624 831 743 q 822 419 885 499 q 700 313 778 363 q 489 264 638 272 q 386 262 451 263 q 300 260 321 261 q 263 268 279 258 q 268 72 264 169 q 250 22 269 43 q 201 0 231 1 q 151 18 172 -1 q 129 67 131 38 l 129 67 m 260 389 q 292 399 275 397 q 378 401 313 400 q 482 403 444 401 q 625 429 593 408 q 714 506 683 467 q 721 594 735 532 q 675 678 707 657 q 471 718 621 713 q 258 718 449 719 q 260 389 257 550 l 260 389 z "},"Ú":{"ha":974,"x_min":94,"x_max":878,"o":"m 285 58 q 194 159 235 94 q 133 285 153 224 q 104 435 114 350 q 95 630 94 521 q 97 793 96 739 q 106 932 100 839 q 128 979 107 960 q 178 997 150 999 q 226 974 207 996 q 244 924 246 953 q 235 728 236 776 q 238 521 232 644 q 267 326 244 397 q 308 238 279 283 q 365 172 338 192 q 533 136 440 119 q 665 225 625 153 q 716 357 699 282 q 735 530 733 432 q 736 692 738 628 q 728 868 735 742 q 725 928 726 918 q 742 978 724 957 q 790 1001 761 1000 q 841 984 819 1003 q 864 936 863 965 q 868 855 864 932 q 873 760 872 778 q 876 676 874 742 q 876 583 878 611 q 873 497 875 556 q 863 401 871 438 q 847 317 856 365 q 822 231 838 269 q 788 156 807 192 q 647 27 738 69 q 460 -6 557 -15 q 285 58 363 4 l 285 58 m 510 1049 q 462 1031 493 1029 q 411 1055 431 1032 q 394 1107 392 1078 q 418 1153 396 1136 l 518 1250 q 567 1267 538 1268 q 615 1246 596 1267 q 634 1194 635 1225 q 614 1147 633 1164 l 510 1049 l 510 1049 z "},"Ŭ":{"ha":1010,"x_min":93,"x_max":919,"o":"m 485 -12 q 189 208 297 -12 q 99 542 118 354 q 94 613 96 578 q 96 695 93 649 q 100 761 99 742 q 108 840 101 781 q 114 904 114 899 q 139 951 117 932 q 190 967 161 969 q 237 942 218 964 q 253 890 256 919 l 247 833 q 241 774 243 792 q 236 720 239 756 q 233 663 233 685 q 235 611 233 640 q 238 556 235 582 q 314 269 254 393 q 485 126 385 126 q 643 199 578 126 q 761 533 736 301 q 758 928 779 704 q 774 979 756 957 q 822 1004 793 1001 q 872 988 850 1007 q 897 942 894 969 q 900 518 919 704 q 746 104 869 242 q 485 -12 640 -12 l 485 -12 m 689 1104 q 269 1108 471 1003 q 244 1155 247 1126 q 258 1206 240 1183 q 303 1233 275 1229 q 356 1219 332 1236 q 479 1169 419 1169 q 608 1218 539 1169 q 660 1230 632 1235 q 706 1201 689 1225 q 717 1149 722 1178 q 689 1104 713 1121 l 689 1104 z "},"Û":{"ha":954,"x_min":104,"x_max":857,"o":"m 451 -1 q 257 63 347 10 q 133 206 167 115 q 115 285 121 239 q 108 363 108 331 q 109 442 108 394 q 110 503 110 489 q 107 651 110 522 q 105 799 104 779 q 107 928 106 819 q 129 976 108 957 q 179 994 150 996 q 228 972 208 993 q 246 922 247 951 q 244 796 244 819 q 246 651 243 772 q 249 506 249 531 q 248 434 249 478 q 247 365 247 390 q 251 309 247 340 q 264 253 256 278 q 335 178 279 211 q 467 136 392 144 q 598 149 543 128 q 672 210 653 169 q 718 547 718 310 q 711 758 718 625 q 704 929 704 892 q 724 979 704 958 q 772 1000 743 1000 q 822 981 801 1000 q 843 932 843 961 q 850 760 843 894 q 857 547 857 626 q 797 151 857 281 q 735 68 775 103 q 649 19 694 35 q 550 -2 603 4 q 451 -1 497 -8 l 451 -1 m 369 1035 q 329 1015 354 1017 q 288 1030 304 1014 q 269 1071 271 1046 q 285 1113 268 1096 l 379 1219 q 414 1251 399 1242 q 472 1271 442 1272 q 525 1247 500 1268 q 560 1218 538 1240 q 657 1125 621 1157 q 676 1084 675 1108 q 663 1042 678 1060 q 623 1023 647 1025 q 579 1036 599 1021 q 476 1135 540 1071 l 468 1143 l 465 1142 l 369 1035 l 369 1035 z "},"Ü":{"ha":976,"x_min":99,"x_max":878,"o":"m 474 -7 q 341 28 406 1 q 235 96 276 56 q 165 200 200 129 q 103 582 110 310 q 110 928 99 714 q 133 975 111 956 q 183 993 154 994 q 231 970 211 992 q 249 919 250 949 q 242 586 238 704 q 290 261 249 344 q 332 196 314 213 q 399 156 356 174 q 490 131 440 138 q 639 163 593 119 q 722 386 701 222 q 735 546 732 464 q 737 708 739 628 q 738 932 735 789 q 758 981 738 961 q 808 1000 779 1000 q 857 979 838 1000 q 876 929 876 958 q 876 711 875 793 q 874 540 878 629 q 861 369 871 450 q 736 63 833 156 q 474 -7 642 -26 l 474 -7 m 458 1119 q 428 1064 453 1088 q 360 1046 404 1040 q 292 1077 315 1051 q 268 1132 269 1103 q 288 1189 267 1161 q 346 1226 308 1217 q 378 1233 367 1233 l 379 1233 q 383 1233 381 1233 q 388 1235 385 1233 q 415 1231 404 1236 q 456 1183 446 1215 q 458 1119 465 1153 l 458 1119 m 706 1118 q 675 1063 699 1086 q 606 1044 651 1039 q 539 1076 561 1050 q 515 1131 517 1101 q 534 1188 514 1160 q 593 1225 554 1215 q 610 1232 599 1232 l 611 1232 q 622 1232 613 1232 q 635 1233 632 1232 q 663 1229 651 1235 q 703 1182 692 1214 q 706 1118 713 1151 l 706 1118 z "},"Ù":{"ha":1010,"x_min":94,"x_max":914,"o":"m 650 6 q 511 -17 586 -21 q 368 10 436 -14 q 241 82 300 33 q 151 194 182 131 q 100 588 94 313 q 129 956 104 754 q 156 1002 133 985 q 207 1016 178 1019 q 253 990 236 1013 q 268 939 271 968 q 239 583 243 743 q 276 256 233 343 q 415 140 314 176 q 603 136 515 104 q 717 257 665 160 q 774 582 775 371 q 762 798 772 660 q 750 950 751 936 q 767 1001 749 979 q 815 1024 786 1022 q 866 1006 844 1025 q 889 958 888 988 q 900 803 889 946 q 913 583 911 661 q 839 193 914 338 q 650 6 763 47 l 650 6 m 388 1142 q 367 1189 368 1158 q 386 1240 367 1219 q 435 1262 406 1261 q 483 1244 464 1263 l 583 1147 q 608 1101 606 1131 q 590 1049 610 1072 q 540 1025 571 1026 q 492 1043 508 1024 l 388 1142 z "},"Ű":{"ha":1010,"x_min":93,"x_max":919,"o":"m 485 1 q 189 222 297 1 q 99 556 118 368 q 94 627 96 592 q 96 709 93 663 q 100 775 99 756 q 108 853 101 794 q 114 918 114 913 q 139 965 117 946 q 190 981 161 983 q 237 956 218 978 q 253 904 256 933 l 247 847 q 241 788 243 806 q 236 734 239 769 q 233 676 233 699 q 235 625 233 654 q 238 569 235 596 q 314 283 254 407 q 485 140 385 140 q 643 213 578 140 q 761 547 736 315 q 758 914 779 718 q 774 965 756 943 q 822 990 793 988 q 872 974 850 993 q 897 928 894 956 q 900 532 919 718 q 746 118 869 256 q 485 1 640 1 l 485 1 m 439 1046 q 396 1016 424 1022 q 344 1025 368 1010 q 313 1068 319 1040 q 322 1121 307 1096 l 389 1210 q 432 1240 404 1233 q 484 1231 460 1246 q 515 1188 508 1215 q 506 1135 521 1160 l 439 1046 l 439 1046 m 657 1043 q 614 1013 642 1019 q 562 1022 586 1007 q 531 1065 538 1038 q 540 1118 525 1093 l 607 1207 q 650 1237 622 1231 q 702 1228 678 1243 q 733 1185 726 1213 q 724 1132 739 1157 l 657 1043 l 657 1043 z "},"Ū":{"ha":1010,"x_min":93,"x_max":919,"o":"m 485 -12 q 189 208 297 -12 q 99 542 118 354 q 94 613 96 578 q 96 695 93 649 q 100 761 99 742 q 108 853 101 781 q 114 932 114 926 q 139 978 117 960 q 190 994 161 997 q 237 969 218 992 q 253 918 256 947 l 247 861 q 241 774 243 792 q 236 720 239 756 q 233 663 233 685 q 235 611 233 640 q 238 556 235 582 q 314 269 254 393 q 485 126 385 126 q 643 199 578 126 q 761 533 736 301 q 758 928 779 704 q 774 979 756 957 q 822 1004 793 1001 q 872 988 850 1007 q 897 942 894 969 q 900 518 919 704 q 746 104 869 242 q 485 -12 640 -12 l 485 -12 m 336 1051 q 288 1069 308 1050 q 267 1115 268 1088 q 284 1163 265 1143 q 331 1185 303 1183 q 442 1187 383 1186 q 574 1188 501 1188 q 685 1189 647 1189 q 733 1169 713 1189 q 753 1123 753 1150 q 733 1076 753 1096 q 688 1056 714 1056 l 576 1056 q 446 1056 504 1056 q 336 1051 393 1054 l 336 1051 z "},"Ų":{"ha":1010,"x_min":93,"x_max":919,"o":"m 560 -333 q 426 -322 475 -339 q 347 -269 376 -306 q 321 -185 318 -235 q 382 -50 324 -124 q 411 -17 394 -33 q 189 194 274 21 q 99 528 118 340 q 94 599 96 564 q 96 681 93 635 q 100 747 99 728 q 108 847 101 767 q 114 932 114 926 q 139 978 117 960 q 190 994 161 997 q 237 969 218 992 q 253 918 256 947 l 247 861 q 241 781 243 819 q 236 706 239 742 q 233 649 233 671 q 235 597 233 626 q 238 542 235 568 q 314 256 254 379 q 485 113 385 113 q 643 185 578 113 q 761 519 736 288 q 758 914 779 690 q 774 965 756 943 q 822 990 793 988 q 872 974 850 993 q 897 928 894 956 q 900 504 919 690 q 746 90 869 228 q 653 17 704 46 q 638 1 646 8 q 492 -136 544 -68 q 461 -187 467 -168 q 471 -192 464 -189 q 550 -194 493 -199 q 588 -192 568 -193 l 626 -186 q 654 -183 646 -185 q 705 -199 682 -181 q 731 -245 728 -217 q 715 -297 733 -274 q 668 -322 697 -319 l 560 -333 l 560 -333 z "},"Ů":{"ha":1010,"x_min":93,"x_max":919,"o":"m 485 -12 q 189 208 297 -12 q 99 542 118 354 q 94 613 96 578 q 96 695 93 649 q 100 761 99 742 q 108 840 101 781 q 114 904 114 899 q 139 951 117 932 q 190 967 161 969 q 237 942 218 964 q 253 890 256 919 l 247 833 q 241 774 243 792 q 236 720 239 756 q 233 663 233 685 q 235 611 233 640 q 238 556 235 582 q 314 269 254 393 q 485 126 385 126 q 643 199 578 126 q 761 533 736 301 q 758 914 779 704 q 774 965 756 943 q 822 990 793 988 q 872 974 850 993 q 897 928 894 956 q 900 518 919 704 q 746 104 869 242 q 485 -12 640 -12 l 485 -12 m 524 979 q 431 1006 474 979 q 372 1086 389 1033 q 368 1136 365 1107 q 369 1153 368 1138 q 369 1164 369 1161 q 383 1199 369 1185 q 408 1246 392 1228 q 470 1285 436 1275 q 536 1289 504 1294 q 594 1264 568 1283 q 653 1192 632 1238 q 665 1100 672 1149 q 615 1012 656 1043 q 524 979 574 981 l 524 979 m 525 1063 q 576 1106 569 1064 q 569 1151 579 1125 q 535 1192 558 1178 q 474 1186 503 1215 q 471 1179 474 1186 q 469 1173 469 1178 q 468 1164 469 1168 q 465 1157 467 1160 q 460 1135 461 1143 l 460 1121 q 460 1106 457 1110 q 525 1063 469 1063 l 525 1063 z "},"Ũ":{"ha":1017,"x_min":101,"x_max":924,"o":"m 164 163 q 110 340 124 222 q 106 547 101 428 q 117 757 108 625 q 128 928 126 889 q 149 976 128 957 q 199 996 169 996 q 247 975 228 996 q 267 925 267 954 q 256 754 265 888 q 244 543 247 621 q 249 356 240 432 q 278 240 257 271 q 410 148 326 171 q 576 154 493 125 q 704 254 658 183 q 783 558 779 365 q 779 742 785 628 q 769 925 771 889 q 789 975 769 954 q 838 996 808 996 q 888 976 867 996 q 908 928 908 957 q 917 750 910 894 q 922 554 924 631 q 821 176 917 322 q 680 51 768 97 q 499 0 592 6 q 314 35 406 -6 q 164 163 222 76 l 164 163 z "},"Ŵ":{"ha":1325,"x_min":21,"x_max":1289,"o":"m 403 -4 q 310 49 349 -4 q 274 121 290 76 q 253 188 263 151 q 249 202 251 194 q 247 215 247 210 q 244 222 246 219 q 31 899 181 438 q 33 951 21 925 q 72 988 44 978 q 125 985 99 997 q 161 946 151 974 q 378 261 313 481 q 380 253 378 258 q 384 238 382 247 q 388 222 386 229 l 389 219 l 404 261 q 533 707 457 407 l 533 714 q 539 738 536 726 q 557 804 546 775 q 594 881 572 851 q 700 926 638 938 q 743 903 725 922 q 756 886 750 896 q 768 861 761 876 q 789 804 776 840 q 817 722 793 794 l 963 271 l 1018 478 l 1088 724 l 1147 944 q 1181 985 1156 971 q 1234 990 1207 999 q 1275 956 1261 982 q 1281 903 1289 931 q 1219 683 1250 792 l 1151 438 l 1094 229 q 1071 119 1090 215 q 1057 67 1063 85 q 1049 42 1053 51 q 1036 22 1043 31 q 989 -4 1018 0 q 894 49 932 -11 q 864 114 878 74 q 846 174 854 140 q 842 188 843 181 l 840 197 q 838 203 839 201 l 683 681 l 675 710 l 674 708 l 671 689 q 667 674 668 676 q 535 214 589 367 l 493 104 l 475 57 q 468 42 471 47 l 465 33 l 460 25 q 451 15 456 19 q 403 -4 431 -4 l 403 -4 m 567 993 q 525 974 550 975 q 483 989 500 972 q 464 1031 465 1006 q 479 1074 463 1056 l 576 1182 q 611 1215 596 1204 q 671 1235 640 1236 q 725 1211 699 1232 q 760 1181 738 1203 q 860 1086 822 1118 q 879 1044 878 1068 q 865 1001 881 1019 q 824 981 849 983 q 781 994 800 979 q 675 1096 740 1031 l 667 1104 l 664 1103 l 567 993 l 567 993 z "},"Ý":{"ha":811,"x_min":1,"x_max":813,"o":"m 342 63 q 335 243 336 103 q 332 363 333 332 l 110 728 q 15 894 58 814 q 10 947 1 919 q 43 989 18 975 q 96 994 68 1003 q 138 961 124 986 q 397 521 200 844 q 476 639 424 564 q 549 746 529 714 q 613 856 558 761 q 682 969 653 926 q 726 999 697 993 q 778 988 754 1004 q 807 944 801 972 q 796 892 813 915 q 733 786 778 864 l 668 674 q 574 535 643 635 q 474 372 504 436 q 471 365 472 368 q 474 244 472 335 q 481 76 475 114 q 465 25 483 47 q 417 0 446 3 q 367 16 389 -3 q 342 63 344 35 l 342 63 m 429 1047 q 382 1035 408 1032 q 338 1057 356 1038 q 322 1104 319 1076 q 346 1151 325 1132 l 486 1258 q 533 1269 506 1272 q 575 1240 561 1265 q 584 1189 589 1215 q 558 1146 579 1163 q 429 1047 494 1097 l 429 1047 z "},"Ŷ":{"ha":846,"x_min":3,"x_max":847,"o":"m 354 74 q 353 397 354 360 q 338 418 343 407 q 254 568 300 497 q 128 747 208 639 l 19 894 q 8 947 3 918 q 36 992 13 975 q 88 1003 60 1008 q 133 975 117 999 l 225 850 l 338 692 q 424 553 385 622 l 717 974 q 762 1002 733 997 q 814 990 790 1007 q 842 945 838 974 q 831 893 847 917 l 492 406 q 493 74 493 361 q 473 24 493 44 q 424 4 453 4 q 374 24 394 4 q 354 74 354 44 l 354 74 m 339 1057 q 292 1031 317 1032 q 248 1047 267 1031 q 229 1088 229 1063 q 251 1138 229 1114 l 343 1238 q 378 1271 364 1258 q 432 1294 403 1294 q 493 1271 463 1294 q 543 1218 519 1246 q 615 1138 579 1176 q 635 1094 632 1118 q 621 1052 638 1071 q 577 1032 604 1033 q 525 1057 550 1031 q 432 1164 504 1081 l 339 1057 l 339 1057 z "},"Ÿ":{"ha":883,"x_min":3,"x_max":885,"o":"m 369 65 q 371 242 369 128 q 372 399 372 356 q 199 644 321 476 q 18 907 81 811 q 8 959 3 931 q 38 1003 14 988 q 91 1013 63 1018 q 135 982 119 1007 q 304 736 192 894 l 443 540 q 753 1000 560 693 q 796 1030 768 1024 q 848 1021 824 1036 q 878 978 872 1006 q 869 925 885 950 q 521 415 656 585 q 511 364 526 388 q 510 235 511 347 q 508 65 508 124 q 488 16 508 36 q 439 -4 468 -4 q 390 16 410 -4 q 369 65 369 36 l 369 65 m 386 1128 q 357 1078 379 1099 q 294 1062 335 1058 q 232 1089 253 1065 q 210 1140 211 1113 q 223 1192 208 1167 q 275 1231 238 1217 q 298 1237 289 1236 q 317 1236 307 1238 q 346 1228 332 1235 q 383 1188 374 1217 q 386 1128 393 1158 l 386 1128 m 617 1126 q 588 1078 613 1097 q 524 1062 564 1058 q 465 1088 485 1065 q 443 1138 444 1111 q 449 1184 442 1165 q 481 1222 457 1203 q 531 1236 500 1238 q 565 1231 550 1236 q 592 1215 579 1226 q 614 1178 604 1204 q 617 1126 621 1158 l 617 1126 z "},"Ź":{"ha":851,"x_min":-1,"x_max":849,"o":"m 774 -6 q 231 0 486 13 l 219 -1 q 197 -3 208 -3 q 167 -5 185 -4 q 138 -4 150 -6 q 7 90 33 6 q 14 154 -1 119 q 32 188 19 168 q 82 256 50 215 q 171 365 121 307 l 265 475 l 379 597 l 471 704 l 568 813 l 575 822 l 588 838 l 601 854 l 392 854 q 119 836 214 854 q 67 847 90 831 q 38 891 43 863 q 48 943 32 919 q 92 972 64 967 q 392 993 199 993 l 703 993 q 708 992 706 993 q 718 989 714 990 q 749 969 735 985 q 765 865 785 928 q 732 800 756 836 q 696 750 718 776 l 685 736 q 676 726 678 728 l 371 386 l 276 276 l 192 172 q 164 135 174 149 q 193 137 174 135 q 225 139 213 139 q 782 133 488 151 q 830 110 811 132 q 847 60 849 89 q 824 12 846 31 q 774 -6 803 -7 l 774 -6 m 451 1047 q 404 1035 431 1032 q 360 1057 378 1038 q 344 1104 342 1076 q 368 1151 347 1132 l 508 1258 q 556 1269 528 1272 q 597 1240 583 1265 q 606 1189 611 1215 q 581 1146 601 1163 q 451 1047 517 1097 l 451 1047 z "},"Ž":{"ha":851,"x_min":-1,"x_max":849,"o":"m 774 -6 q 231 0 486 13 l 219 -1 q 197 -3 208 -3 q 167 -5 185 -4 q 138 -4 150 -6 q 7 90 33 6 q 14 154 -1 119 q 32 188 19 168 q 82 256 50 215 q 171 365 121 307 l 265 475 l 379 597 l 471 704 l 568 813 l 575 822 l 588 838 l 601 854 l 392 854 q 119 836 214 854 q 67 847 90 831 q 38 891 43 863 q 48 943 32 919 q 92 972 64 967 q 392 993 199 993 l 703 993 q 708 992 706 993 q 718 989 714 990 q 749 969 735 985 q 765 865 785 928 q 732 800 756 836 q 696 750 718 776 l 685 736 q 676 726 678 728 l 371 386 l 276 276 l 192 172 q 164 135 174 149 q 193 137 174 135 q 225 139 213 139 q 782 133 488 151 q 830 110 811 132 q 847 60 849 89 q 824 12 846 31 q 774 -6 803 -7 l 774 -6 z "},"Ż":{"ha":851,"x_min":-1,"x_max":849,"o":"m 774 -6 q 231 0 486 13 l 219 -1 q 197 -3 208 -3 q 167 -5 185 -4 q 138 -4 150 -6 q 7 90 33 6 q 14 154 -1 119 q 32 188 19 168 q 82 256 50 215 q 171 365 121 307 l 265 475 l 379 597 l 471 704 l 568 813 l 575 822 l 588 838 l 601 854 l 392 854 q 119 836 214 854 q 67 847 90 831 q 38 891 43 863 q 48 943 32 919 q 92 972 64 967 q 392 993 199 993 l 703 993 q 708 992 706 993 q 718 989 714 990 q 749 969 735 985 q 765 865 785 928 q 732 800 756 836 q 696 750 718 776 l 685 736 q 676 726 678 728 l 371 386 l 276 276 l 192 172 q 164 135 174 149 q 193 137 174 135 q 225 139 213 139 q 782 133 488 151 q 830 110 811 132 q 847 60 849 89 q 824 12 846 31 q 774 -6 803 -7 l 774 -6 m 440 1075 q 374 1099 404 1075 q 349 1129 357 1111 q 340 1168 340 1147 q 370 1233 340 1206 q 439 1260 400 1260 q 477 1250 457 1260 q 511 1222 497 1240 q 528 1194 524 1210 q 532 1156 532 1179 q 503 1098 532 1121 q 440 1075 475 1075 l 440 1075 z "},"á":{"ha":786,"x_min":36,"x_max":704,"o":"m 476 22 q 363 0 426 3 q 246 15 300 -3 q 150 68 192 32 q 57 217 78 128 q 56 376 36 306 q 115 515 75 447 q 201 628 154 582 q 308 707 247 675 q 436 738 369 739 q 576 701 503 738 q 601 685 588 696 q 624 665 614 674 l 642 647 q 650 638 650 639 q 674 588 672 618 q 697 413 692 504 q 701 240 703 321 q 703 69 699 160 q 685 21 704 42 q 636 -1 665 0 q 586 17 607 -3 q 564 64 565 36 l 564 85 q 476 22 522 42 l 476 22 m 414 147 q 447 158 435 153 q 478 175 460 164 q 518 203 497 186 q 556 244 539 219 q 563 250 558 247 q 539 551 563 438 q 530 562 535 557 q 523 569 525 567 q 517 574 521 572 q 510 579 514 576 q 369 581 443 615 q 240 454 296 547 q 185 290 185 360 q 239 174 186 219 q 318 140 271 147 q 414 147 365 133 l 414 147 z "},"ă":{"ha":786,"x_min":36,"x_max":704,"o":"m 476 22 q 363 0 426 3 q 246 15 300 -3 q 150 68 192 32 q 57 217 78 128 q 56 376 36 306 q 115 515 75 447 q 201 628 154 582 q 308 707 247 675 q 436 738 369 739 q 576 701 503 738 q 601 685 588 696 q 624 665 614 674 l 642 647 q 650 638 650 639 q 674 588 672 618 q 697 413 692 504 q 701 240 703 321 q 703 69 699 160 q 685 21 704 42 q 636 -1 665 0 q 586 17 607 -3 q 564 64 565 36 l 564 85 q 476 22 522 42 l 476 22 m 414 147 q 447 158 435 153 q 478 175 460 164 q 518 203 497 186 q 556 244 539 219 q 563 250 558 247 q 539 551 563 438 q 530 562 535 557 q 523 569 525 567 q 517 574 521 572 q 510 579 514 576 q 369 581 443 615 q 240 454 296 547 q 185 290 185 360 q 239 174 186 219 q 318 140 271 147 q 414 147 365 133 l 414 147 z "},"â":{"ha":786,"x_min":36,"x_max":704,"o":"m 476 22 q 363 0 426 3 q 246 15 300 -3 q 150 68 192 32 q 57 217 78 128 q 56 376 36 306 q 115 515 75 447 q 201 628 154 582 q 308 707 247 675 q 436 738 369 739 q 576 701 503 738 q 601 685 588 696 q 624 665 614 674 l 642 647 q 650 638 650 639 q 674 588 672 618 q 697 413 692 504 q 701 240 703 321 q 703 69 699 160 q 685 21 704 42 q 636 -1 665 0 q 586 17 607 -3 q 564 64 565 36 l 564 85 q 476 22 522 42 l 476 22 m 414 147 q 447 158 435 153 q 478 175 460 164 q 518 203 497 186 q 556 244 539 219 q 563 250 558 247 q 539 551 563 438 q 530 562 535 557 q 523 569 525 567 q 517 574 521 572 q 510 579 514 576 q 369 581 443 615 q 240 454 296 547 q 185 290 185 360 q 239 174 186 219 q 318 140 271 147 q 414 147 365 133 l 414 147 z "},"ä":{"ha":786,"x_min":36,"x_max":704,"o":"m 476 22 q 363 0 426 3 q 246 15 300 -3 q 150 68 192 32 q 57 217 78 128 q 56 376 36 306 q 115 515 75 447 q 201 628 154 582 q 308 707 247 675 q 436 738 369 739 q 576 701 503 738 q 601 685 588 696 q 624 665 614 674 l 642 647 q 650 638 650 639 q 674 588 672 618 q 697 413 692 504 q 701 240 703 321 q 703 69 699 160 q 685 21 704 42 q 636 -1 665 0 q 586 17 607 -3 q 564 64 565 36 l 564 85 q 476 22 522 42 l 476 22 m 414 147 q 447 158 435 153 q 478 175 460 164 q 518 203 497 186 q 556 244 539 219 q 563 250 558 247 q 539 551 563 438 q 530 562 535 557 q 523 569 525 567 q 517 574 521 572 q 510 579 514 576 q 369 581 443 615 q 240 454 296 547 q 185 290 185 360 q 239 174 186 219 q 318 140 271 147 q 414 147 365 133 l 414 147 z "},"à":{"ha":789,"x_min":39,"x_max":707,"o":"m 456 14 q 354 -1 406 0 q 249 15 303 -3 q 153 68 194 32 q 60 217 81 128 q 58 376 39 306 q 117 515 78 447 q 203 628 157 582 q 311 707 250 675 q 439 738 372 739 q 579 701 506 738 q 603 685 590 696 q 626 665 617 674 l 644 647 q 653 638 653 639 q 676 588 675 618 q 700 413 694 504 q 703 240 706 321 q 706 69 701 160 q 688 21 707 42 q 639 -1 668 0 q 589 17 610 -3 q 567 64 568 36 l 567 69 q 456 14 514 31 l 456 14 m 417 147 q 455 163 438 153 q 481 179 472 172 q 516 209 490 186 q 558 244 542 232 q 565 250 561 247 q 542 551 565 438 q 533 562 538 557 q 526 569 528 567 q 520 574 524 572 q 513 579 517 576 q 372 581 446 615 q 243 454 299 547 q 188 290 188 360 q 242 174 189 219 q 321 140 274 147 q 417 147 368 133 l 417 147 m 331 918 q 308 965 311 935 q 324 1016 306 994 q 372 1040 343 1038 q 421 1026 401 1043 l 528 919 q 553 875 550 904 q 539 822 557 846 q 490 796 521 799 q 442 813 460 793 l 331 918 z "},"ā":{"ha":786,"x_min":36,"x_max":704,"o":"m 476 22 q 363 0 426 3 q 246 15 300 -3 q 150 68 192 32 q 57 217 78 128 q 56 376 36 306 q 115 515 75 447 q 201 628 154 582 q 308 707 247 675 q 436 738 369 739 q 576 701 503 738 q 601 685 588 696 q 624 665 614 674 l 642 647 q 650 638 650 639 q 674 588 672 618 q 697 413 692 504 q 701 240 703 321 q 703 69 699 160 q 685 21 704 42 q 636 -1 665 0 q 586 17 607 -3 q 564 64 565 36 l 564 85 q 476 22 522 42 l 476 22 m 414 147 q 447 158 435 153 q 478 175 460 164 q 518 203 497 186 q 556 244 539 219 q 563 250 558 247 q 539 551 563 438 q 530 562 535 557 q 523 569 525 567 q 517 574 521 572 q 510 579 514 576 q 369 581 443 615 q 240 454 296 547 q 185 290 185 360 q 239 174 186 219 q 318 140 271 147 q 414 147 365 133 l 414 147 z "},"ą":{"ha":789,"x_min":39,"x_max":806,"o":"m 697 -322 q 532 -250 592 -319 q 518 -100 485 -187 q 585 6 536 -46 q 568 29 574 15 q 567 58 564 44 l 567 63 q 456 7 514 24 q 354 -8 406 -7 q 249 8 303 -10 q 153 61 194 25 q 60 213 81 121 q 58 392 39 306 q 124 557 78 479 q 203 660 157 614 q 311 739 250 707 q 439 770 372 771 q 579 733 506 769 q 603 717 590 728 q 626 697 617 706 l 644 679 q 653 669 653 671 q 676 619 675 650 q 700 428 694 536 q 703 236 706 321 q 703 108 701 175 q 750 111 726 117 q 790 82 776 104 q 799 29 806 57 q 769 -14 793 1 q 694 -72 731 -36 q 656 -124 665 -106 q 646 -167 644 -146 q 708 -183 669 -185 q 756 -208 738 -186 q 772 -258 774 -229 q 748 -306 769 -287 q 697 -322 726 -324 l 697 -322 m 417 140 q 455 151 438 146 q 481 164 472 157 q 516 194 490 171 q 558 229 542 217 q 565 235 561 232 q 542 583 565 469 q 533 594 538 589 q 526 601 528 599 q 520 606 524 604 q 513 611 517 608 q 372 613 446 647 q 243 486 299 579 q 188 301 188 390 q 242 167 189 213 q 321 133 274 140 q 417 140 368 126 l 417 140 z "},"å":{"ha":786,"x_min":36,"x_max":704,"o":"m 476 22 q 363 0 426 3 q 246 15 300 -3 q 150 68 192 32 q 57 217 78 128 q 56 376 36 306 q 115 515 75 447 q 201 628 154 582 q 308 707 247 675 q 436 738 369 739 q 576 701 503 738 q 601 685 588 696 q 624 665 614 674 l 642 647 q 650 638 650 639 q 674 588 672 618 q 697 413 692 504 q 701 240 703 321 q 703 69 699 160 q 685 21 704 42 q 636 -1 665 0 q 586 17 607 -3 q 564 64 565 36 l 564 85 q 476 22 522 42 l 476 22 m 414 147 q 447 158 435 153 q 478 175 460 164 q 518 203 497 186 q 556 244 539 219 q 563 250 558 247 q 539 551 563 438 q 530 562 535 557 q 523 569 525 567 q 517 574 521 572 q 510 579 514 576 q 369 581 443 615 q 240 454 296 547 q 185 290 185 360 q 239 174 186 219 q 318 140 271 147 q 414 147 365 133 l 414 147 z "},"ǻ":{"ha":786,"x_min":36,"x_max":704,"o":"m 433 1018 q 388 997 415 999 q 338 1013 360 994 q 313 1058 317 1031 q 328 1107 308 1086 l 363 1147 q 385 1173 376 1163 q 402 1192 394 1183 q 426 1218 410 1200 l 461 1256 q 509 1272 481 1272 q 558 1252 538 1272 q 578 1206 578 1232 q 560 1158 578 1179 q 518 1113 539 1135 q 484 1074 497 1090 q 433 1018 471 1058 l 433 1018 m 538 840 q 489 752 526 789 q 392 724 451 715 q 297 772 332 732 q 259 858 261 813 q 289 948 257 904 q 381 1006 321 992 q 408 1017 392 1017 l 411 1017 q 417 1017 413 1017 q 426 1019 421 1018 q 469 1013 451 1021 q 533 940 517 990 q 538 840 549 890 l 538 840 m 403 814 q 450 858 439 810 q 449 902 456 883 q 432 929 443 921 l 431 929 l 428 928 q 422 928 426 928 q 417 926 418 928 q 400 919 408 921 q 355 887 367 910 q 357 841 343 864 q 403 814 371 818 l 403 814 m 476 22 q 363 0 426 3 q 246 15 300 -3 q 150 68 192 32 q 57 217 78 128 q 56 376 36 306 q 115 515 75 447 q 201 628 154 582 q 308 707 247 675 q 436 738 369 739 q 576 701 503 738 q 601 685 588 696 q 624 665 614 674 l 642 647 q 650 638 650 639 q 674 588 672 618 q 697 413 692 504 q 701 240 703 321 q 703 69 699 160 q 685 21 704 42 q 636 -1 665 0 q 586 17 607 -3 q 564 64 565 36 l 564 85 q 476 22 522 42 l 476 22 l 476 22 m 414 147 q 447 158 435 153 q 478 175 460 164 q 518 203 497 186 q 556 244 539 219 q 563 250 558 247 q 539 551 563 438 q 530 562 535 557 q 523 569 525 567 q 517 574 521 572 q 510 579 514 576 q 369 581 443 615 q 240 454 296 547 q 185 290 185 360 q 239 174 186 219 q 318 140 271 147 q 414 147 365 133 l 414 147 l 414 147 z "},"ã":{"ha":794,"x_min":39,"x_max":714,"o":"m 456 14 q 354 -1 406 0 q 249 15 303 -3 q 153 68 194 32 q 60 217 81 128 q 58 376 39 306 q 117 515 78 447 q 203 628 157 582 q 311 707 250 675 q 439 738 372 739 q 579 701 506 738 q 603 685 590 696 q 626 665 617 674 l 644 647 q 653 638 653 639 q 676 588 675 618 q 700 413 694 504 q 703 240 706 321 q 706 69 701 160 q 688 21 707 42 q 639 -1 668 0 q 589 17 610 -3 q 567 64 568 36 l 567 69 q 456 14 514 31 l 456 14 m 417 147 q 455 163 438 153 q 481 179 472 172 q 516 209 490 186 q 558 244 542 232 q 565 250 561 247 q 542 551 565 438 q 533 562 538 557 q 526 569 528 567 q 520 574 524 572 q 513 579 517 576 q 372 581 446 615 q 243 454 299 547 q 188 290 188 360 q 242 174 189 219 q 321 140 274 147 q 417 147 368 133 l 417 147 m 549 829 q 492 838 522 828 q 449 856 463 847 q 408 882 435 865 q 321 919 347 922 q 224 864 276 918 q 181 844 200 843 q 147 865 163 846 q 133 906 132 885 q 146 946 133 926 q 315 1046 226 1042 q 369 1038 340 1047 q 413 1019 399 1029 l 453 994 q 543 956 515 954 q 619 1024 590 957 q 660 1044 633 1044 q 701 1025 688 1043 q 711 983 714 1007 q 696 939 708 958 q 549 829 638 833 l 549 829 z "},"æ":{"ha":1186,"x_min":69,"x_max":1144,"o":"m 244 4 q 128 71 175 24 q 82 194 81 118 q 108 299 82 253 q 176 370 133 344 q 263 410 218 396 q 357 433 307 425 q 504 442 421 442 q 469 571 508 531 q 354 600 435 607 q 229 547 272 590 q 224 540 225 543 q 217 528 222 538 l 204 503 q 163 471 190 478 q 111 476 136 464 q 78 515 86 489 q 83 564 69 540 l 85 569 q 90 578 88 572 l 97 590 q 107 604 101 599 l 117 619 q 128 633 122 628 q 223 697 165 672 q 342 728 281 722 q 469 716 407 732 q 574 656 531 700 q 593 631 585 643 q 768 711 665 699 q 951 688 871 724 q 1082 578 1031 651 q 1106 537 1096 556 q 1121 506 1115 518 q 1131 475 1126 494 q 1138 448 1136 456 q 1142 421 1139 440 q 1144 386 1144 401 q 1124 341 1144 360 q 1075 318 1103 322 q 994 314 1040 314 q 688 306 893 304 q 632 308 678 306 q 639 251 632 278 q 739 149 656 185 q 900 139 822 113 q 942 158 932 150 q 964 176 958 171 q 976 188 969 181 q 994 208 983 194 q 1040 233 1013 229 q 1091 220 1068 236 q 1117 178 1114 204 q 1104 131 1121 151 q 1043 65 1081 93 q 947 19 1013 39 q 754 8 858 -12 q 581 96 651 29 q 482 25 543 53 q 368 -4 431 1 q 244 4 306 -10 l 244 4 m 279 129 q 354 125 315 122 q 424 140 393 128 l 443 151 q 460 163 451 154 q 471 174 468 171 q 486 193 474 176 l 506 218 l 504 221 q 496 314 494 260 q 378 306 429 314 q 258 267 296 293 q 219 194 219 240 q 279 129 219 144 l 279 129 m 689 433 q 990 444 863 435 q 967 508 986 474 q 887 574 933 556 q 778 582 840 592 q 678 531 717 572 l 667 518 q 658 497 660 504 q 653 481 656 490 q 649 464 650 472 q 647 436 649 456 q 689 433 679 433 l 689 433 z "},"ǽ":{"ha":1186,"x_min":53,"x_max":1144,"o":"m 217 4 q 94 70 136 22 q 54 194 53 118 q 80 299 54 253 q 148 370 106 344 q 249 410 190 396 q 357 433 307 425 q 504 442 421 442 q 469 571 508 531 q 354 600 435 607 q 229 547 272 590 q 224 540 225 543 q 217 528 222 538 l 204 503 q 163 471 190 478 q 111 476 136 464 q 78 515 86 489 q 83 564 69 540 l 85 569 q 90 578 88 572 l 97 590 q 107 604 101 599 l 117 619 q 128 633 122 628 q 223 697 165 672 q 342 728 281 722 q 469 716 407 732 q 574 656 531 700 q 593 631 585 643 q 768 711 665 699 q 951 688 871 724 q 1082 578 1031 651 q 1106 537 1096 556 q 1121 506 1115 518 q 1131 475 1126 494 q 1138 448 1136 456 q 1142 421 1139 440 q 1144 386 1144 401 q 1124 341 1144 360 q 1075 318 1103 322 q 994 314 1040 314 q 688 306 893 304 q 632 308 678 306 q 639 251 632 278 q 739 149 656 185 q 900 139 822 113 q 942 158 932 150 q 964 176 958 171 q 976 188 969 181 q 994 208 983 194 q 1040 233 1013 229 q 1091 220 1068 236 q 1117 178 1114 204 q 1104 131 1121 151 q 1043 65 1081 93 q 947 19 1013 39 q 754 8 858 -12 q 581 96 651 29 q 482 26 543 56 q 368 -3 431 3 q 217 4 306 -10 l 217 4 m 257 124 q 353 119 317 114 q 424 140 389 125 l 443 150 q 463 163 456 157 q 475 176 469 169 q 490 196 481 182 l 506 218 l 504 221 q 496 314 494 260 q 378 306 429 314 q 245 268 296 293 q 194 190 194 243 q 257 124 199 140 l 257 124 m 689 433 q 990 444 863 435 q 967 508 986 474 q 887 574 933 556 q 778 582 840 592 q 678 531 717 572 l 667 518 q 658 497 660 504 q 653 481 656 490 q 649 464 650 472 q 647 436 649 456 q 689 433 679 433 l 689 433 m 656 804 q 608 786 639 785 q 557 810 576 788 q 540 863 538 833 q 564 908 542 892 l 664 1006 q 713 1023 683 1024 q 761 1001 742 1022 q 780 950 781 981 q 760 903 779 919 l 656 804 l 656 804 z "},"ć":{"ha":746,"x_min":39,"x_max":703,"o":"m 297 18 q 161 109 221 47 q 82 246 101 171 q 94 533 39 408 q 268 710 150 658 q 385 735 325 733 q 503 714 446 736 q 610 642 560 692 q 692 521 660 593 q 692 469 703 496 q 656 430 682 442 q 603 428 631 418 q 564 465 576 439 q 513 542 543 511 q 451 585 483 572 q 385 596 418 597 q 324 582 353 594 q 221 474 256 553 q 215 282 186 396 q 263 204 226 242 q 349 147 300 167 q 504 176 449 108 q 510 186 508 182 q 516 203 511 190 q 529 233 521 215 q 569 268 542 258 q 622 265 596 278 q 657 226 647 253 q 654 172 667 199 l 651 165 l 646 150 q 637 130 642 140 q 625 108 632 119 q 613 90 618 97 q 515 15 571 39 q 405 -6 458 -8 q 297 18 351 -3 l 297 18 m 371 811 q 323 793 354 792 q 272 817 292 794 q 255 869 253 840 q 279 915 257 899 l 379 1013 q 428 1030 399 1031 q 476 1008 457 1029 q 495 957 496 988 q 475 910 494 926 l 371 811 l 371 811 z "},"č":{"ha":746,"x_min":39,"x_max":703,"o":"m 297 18 q 161 109 221 47 q 82 246 101 171 q 94 533 39 408 q 268 710 150 658 q 385 735 325 733 q 503 714 446 736 q 610 642 560 692 q 692 521 660 593 q 692 469 703 496 q 656 430 682 442 q 603 428 631 418 q 564 465 576 439 q 513 542 543 511 q 451 585 483 572 q 385 596 418 597 q 324 582 353 594 q 221 474 256 553 q 215 282 186 396 q 263 204 226 242 q 349 147 300 167 q 504 176 449 108 q 510 186 508 182 q 516 203 511 190 q 529 233 521 215 q 569 268 542 258 q 622 265 596 278 q 657 226 647 253 q 654 172 667 199 l 651 165 l 646 150 q 637 130 642 140 q 625 108 632 119 q 613 90 618 97 q 515 15 571 39 q 405 -6 458 -8 q 297 18 351 -3 l 297 18 m 404 772 q 344 792 374 771 q 310 825 329 803 l 213 933 q 197 976 196 951 q 216 1018 199 1001 q 258 1033 233 1035 q 300 1014 283 1032 l 397 904 l 400 903 l 408 911 q 514 1013 474 976 q 558 1026 533 1028 q 598 1006 582 1024 q 613 963 614 988 q 593 921 611 939 q 493 826 556 889 q 458 796 471 804 q 404 772 432 775 l 404 772 z "},"ç":{"ha":739,"x_min":56,"x_max":692,"o":"m 378 -319 q 276 -293 317 -319 q 236 -228 236 -267 q 249 -195 236 -208 q 281 -182 261 -182 q 304 -188 294 -182 q 326 -207 314 -194 q 379 -229 349 -229 q 410 -217 397 -229 q 425 -185 424 -204 q 393 -144 425 -154 q 335 -137 367 -137 q 297 -124 313 -137 q 282 -90 282 -110 q 392 54 282 -37 q 465 21 425 44 q 408 -37 428 -12 q 386 -87 388 -61 l 350 -68 q 366 -62 358 -65 q 379 -58 374 -58 q 487 -94 444 -57 q 529 -181 529 -131 q 485 -279 529 -239 q 378 -319 442 -319 l 378 -319 m 417 -3 q 262 25 338 -4 q 138 110 186 54 q 72 249 88 168 q 70 404 56 331 q 119 546 85 478 q 186 638 147 597 q 277 708 225 679 q 388 738 329 736 q 515 713 447 740 q 589 660 551 696 l 633 615 q 658 568 656 597 q 642 517 661 539 q 594 493 624 496 q 544 510 565 490 q 515 536 532 519 l 492 560 q 460 585 472 579 q 340 584 397 613 q 243 481 283 556 q 202 325 201 403 q 243 201 203 247 q 315 154 268 172 q 415 136 363 136 q 553 213 522 139 l 551 219 l 551 260 q 574 308 553 289 q 625 325 596 326 q 673 302 654 324 q 690 251 692 281 l 690 221 q 681 160 692 186 q 576 39 649 79 q 417 -3 503 -1 l 417 -3 l 417 -3 z "},"ĉ":{"ha":746,"x_min":39,"x_max":703,"o":"m 297 18 q 161 109 221 47 q 82 246 101 171 q 94 533 39 408 q 268 710 150 658 q 385 735 325 733 q 503 714 446 736 q 610 642 560 692 q 692 521 660 593 q 692 469 703 496 q 656 430 682 442 q 603 428 631 418 q 564 465 576 439 q 513 542 543 511 q 451 585 483 572 q 385 596 418 597 q 324 582 353 594 q 221 474 256 553 q 215 282 186 396 q 263 204 226 242 q 349 147 300 167 q 504 176 449 108 q 510 186 508 182 q 516 203 511 190 q 529 233 521 215 q 569 268 542 258 q 622 265 596 278 q 657 226 647 253 q 654 172 667 199 l 651 165 l 646 150 q 637 130 642 140 q 625 108 632 119 q 613 90 618 97 q 515 15 571 39 q 405 -6 458 -8 q 297 18 351 -3 l 297 18 m 319 796 q 273 771 301 774 q 222 787 244 768 q 197 834 200 806 q 214 885 194 863 q 288 972 276 960 q 381 1025 335 1021 q 488 986 433 1031 q 579 894 518 961 q 597 844 599 872 q 574 796 596 815 q 524 778 553 776 q 476 800 496 779 q 400 879 421 861 l 394 882 q 388 876 392 879 l 319 796 l 319 796 z "},"ċ":{"ha":739,"x_min":56,"x_max":692,"o":"m 417 -3 q 262 25 338 -4 q 138 110 186 54 q 72 249 88 168 q 70 404 56 331 q 119 546 85 478 q 186 638 147 597 q 277 708 225 679 q 388 738 329 736 q 515 713 447 740 q 589 660 551 696 l 633 615 q 658 568 656 597 q 642 517 661 539 q 594 493 624 496 q 544 510 565 490 q 515 536 532 519 l 492 560 q 460 585 472 579 q 340 584 397 613 q 243 481 283 556 q 202 325 201 403 q 243 201 203 247 q 315 154 268 172 q 415 136 363 136 q 553 213 522 139 l 551 219 l 551 260 q 574 308 553 289 q 625 325 596 326 q 673 302 654 324 q 690 251 692 281 l 690 221 q 681 160 692 186 q 576 39 649 79 q 417 -3 503 -1 l 417 -3 z "},"ď":{"ha":933,"x_min":61,"x_max":929,"o":"m 636 0 q 596 13 614 0 q 571 60 578 25 q 446 4 511 17 q 281 14 356 -12 q 154 101 206 40 q 63 376 61 210 q 160 635 64 526 q 463 731 275 764 q 560 701 526 719 l 557 924 q 577 974 557 953 q 626 994 597 994 q 675 974 654 994 q 696 926 696 954 q 706 69 706 293 q 685 20 706 40 q 636 0 665 0 l 636 0 m 421 140 q 476 160 447 146 q 517 183 506 174 q 535 199 529 192 q 550 215 542 206 q 565 243 558 224 q 563 524 565 419 q 560 525 561 524 q 501 576 501 575 q 438 594 486 586 q 264 542 326 614 q 201 376 201 474 q 260 191 200 261 q 421 140 319 121 l 421 140 m 846 714 q 806 731 825 714 q 788 771 788 747 q 794 807 788 785 q 806 878 806 849 q 796 938 806 901 q 789 968 789 963 q 808 1012 789 994 q 851 1029 826 1029 q 885 1019 869 1031 q 911 985 901 1007 q 929 882 929 932 q 910 765 929 829 q 846 714 894 714 l 846 714 z "},"đ":{"ha":818,"x_min":39,"x_max":815,"o":"m 651 -4 q 604 11 625 -6 q 579 54 583 28 q 488 6 539 19 q 391 -4 438 -8 q 297 18 344 0 q 161 108 221 47 q 82 246 101 171 q 94 533 39 408 q 268 710 150 658 q 421 733 340 742 q 568 678 501 725 l 576 963 q 599 1010 578 990 q 648 1029 619 1031 q 697 1007 676 1028 q 715 957 717 986 q 717 69 699 369 q 699 19 718 40 q 651 -4 681 -3 l 651 -4 m 349 147 q 504 176 449 108 q 510 186 508 182 q 516 203 511 190 q 529 233 521 215 q 569 268 542 260 q 567 460 567 361 l 564 465 q 513 542 543 511 q 451 585 483 572 q 385 596 418 597 q 324 582 353 594 q 221 474 256 553 q 215 282 186 396 q 263 204 226 242 q 349 147 300 167 l 349 147 m 735 778 q 627 778 639 778 q 598 778 615 778 q 577 778 581 778 q 515 781 574 778 q 429 786 456 785 q 376 809 394 788 q 361 854 358 831 q 386 895 364 878 q 442 911 408 913 q 528 907 471 911 q 596 903 586 903 l 735 904 q 792 883 768 904 q 815 840 815 863 q 792 797 815 817 q 735 778 768 778 l 735 778 z "},"é":{"ha":836,"x_min":53,"x_max":799,"o":"m 424 3 q 247 47 322 11 q 133 132 171 83 q 77 226 94 181 q 56 315 60 271 q 63 428 53 358 q 106 541 74 485 q 190 641 138 597 q 316 708 242 685 q 474 719 390 731 q 617 665 551 708 q 726 556 682 621 q 752 517 742 536 q 769 478 763 499 q 779 448 776 458 q 787 414 782 438 q 793 381 792 390 q 785 332 799 354 q 746 301 771 310 q 710 292 729 292 l 460 293 q 210 292 210 296 l 206 292 q 278 188 221 229 q 435 139 335 147 q 525 139 501 133 q 585 156 564 149 q 632 176 606 164 q 684 174 658 186 q 719 135 710 161 q 717 83 729 108 q 679 46 704 58 q 631 22 657 33 q 560 3 606 11 q 424 3 514 -4 l 424 3 m 211 428 q 642 428 292 431 q 613 481 635 449 q 454 583 549 571 q 302 549 368 596 q 211 428 236 503 l 211 428 m 408 814 q 360 796 392 794 q 310 820 329 797 q 292 872 290 843 q 317 918 294 901 l 417 1029 q 465 1047 436 1047 q 514 1025 494 1046 q 533 974 533 1004 q 513 926 532 943 l 408 814 l 408 814 z "},"ĕ":{"ha":782,"x_min":54,"x_max":733,"o":"m 294 7 q 185 69 235 28 q 108 165 136 111 q 74 333 72 239 q 56 385 54 356 q 90 440 58 421 q 104 485 96 463 q 194 628 135 567 q 333 713 253 690 q 507 697 422 738 q 650 586 590 656 q 725 450 708 518 q 732 401 731 426 q 719 345 733 375 q 676 297 706 315 q 640 286 661 289 q 615 285 631 285 q 556 285 593 283 q 390 293 517 286 q 214 304 319 297 q 233 226 217 260 q 276 174 247 199 q 342 138 306 150 q 468 144 417 110 q 477 153 474 149 q 489 168 481 157 q 511 192 497 179 q 559 214 531 213 q 608 195 588 215 q 631 147 629 175 q 611 97 632 118 q 604 86 611 96 l 588 69 q 568 49 581 60 q 546 31 556 38 q 420 -12 490 -8 q 294 7 350 -17 l 294 7 m 589 422 q 544 496 576 457 q 455 567 503 544 q 369 579 407 589 q 293 532 328 568 q 236 442 258 496 q 399 431 332 435 q 560 424 500 425 q 589 422 578 422 l 589 422 m 438 819 q 265 881 335 819 q 224 932 240 903 q 208 986 208 961 q 225 1031 208 1013 q 268 1049 242 1049 q 338 994 313 1049 q 378 953 350 967 q 439 940 406 940 q 490 953 469 940 q 521 993 510 965 q 547 1034 533 1021 q 582 1047 560 1047 q 626 1030 607 1047 q 644 988 644 1013 q 606 899 644 947 q 534 841 576 863 q 438 819 492 819 l 438 819 z "},"ě":{"ha":769,"x_min":43,"x_max":735,"o":"m 428 -15 q 249 2 326 -33 q 124 114 171 38 q 58 415 43 239 q 65 478 63 456 q 78 542 68 500 q 108 619 88 585 q 158 679 128 653 q 313 749 224 739 q 481 731 401 760 q 615 646 560 701 q 707 529 681 582 q 726 426 735 475 q 646 329 715 361 q 618 321 635 324 q 599 319 611 319 q 551 317 581 318 l 419 317 q 329 317 381 317 q 246 318 278 318 l 199 318 q 240 188 207 240 q 403 121 294 101 q 463 148 432 126 q 510 188 493 169 l 572 253 q 621 275 592 274 q 671 257 650 276 q 693 208 692 238 q 675 158 694 179 q 655 137 672 156 q 631 111 638 118 l 606 86 q 576 58 588 68 q 544 35 564 49 q 508 13 524 21 q 470 -4 492 4 q 428 -15 449 -12 l 428 -15 m 547 456 q 588 457 574 457 q 583 465 586 461 q 518 546 567 499 q 381 612 461 603 q 250 576 301 621 q 203 457 214 543 q 297 456 218 457 q 419 456 375 456 l 547 456 m 382 788 q 322 807 351 786 q 288 840 307 818 l 190 949 q 175 992 174 967 q 194 1033 176 1017 q 236 1049 211 1050 q 278 1029 261 1047 l 375 919 l 378 918 l 386 926 q 492 1028 451 992 q 535 1041 511 1043 q 576 1021 560 1039 q 590 978 592 1003 q 571 936 589 954 q 471 842 533 904 q 436 811 449 819 q 382 788 410 790 l 382 788 z "},"ê":{"ha":836,"x_min":53,"x_max":799,"o":"m 424 3 q 247 47 322 11 q 133 132 171 83 q 77 226 94 181 q 56 315 60 271 q 63 428 53 358 q 106 541 74 485 q 190 641 138 597 q 316 708 242 685 q 474 719 390 731 q 617 665 551 708 q 726 556 682 621 q 752 517 742 536 q 769 478 763 499 q 779 448 776 458 q 787 414 782 438 q 793 381 792 390 q 785 332 799 354 q 746 301 771 310 q 710 292 729 292 l 460 293 q 210 292 210 296 l 206 292 q 278 188 221 229 q 435 139 335 147 q 525 139 501 133 q 585 156 564 149 q 632 176 606 164 q 684 174 658 186 q 719 135 710 161 q 717 83 729 108 q 679 46 704 58 q 631 22 657 33 q 560 3 606 11 q 424 3 514 -4 l 424 3 m 211 428 q 642 428 292 431 q 613 481 635 449 q 454 583 549 571 q 302 549 368 596 q 211 428 236 503 l 211 428 m 308 797 q 267 778 292 779 q 224 793 242 776 q 206 835 207 810 q 221 878 204 860 l 318 986 q 353 1019 338 1008 q 413 1039 382 1040 q 467 1015 440 1036 q 501 985 479 1007 q 601 890 564 922 q 621 848 619 872 q 606 806 622 824 q 566 785 590 788 q 522 799 542 783 q 417 900 482 835 l 408 908 l 406 907 l 308 797 l 308 797 z "},"ë":{"ha":836,"x_min":53,"x_max":799,"o":"m 424 3 q 247 47 322 11 q 133 132 171 83 q 77 226 94 181 q 56 315 60 271 q 63 428 53 358 q 106 541 74 485 q 190 641 138 597 q 316 708 242 685 q 474 719 390 731 q 617 665 551 708 q 726 556 682 621 q 752 517 742 536 q 769 478 763 499 q 779 448 776 458 q 787 414 782 438 q 793 381 792 390 q 785 332 799 354 q 746 301 771 310 q 710 292 729 292 l 460 293 q 210 292 210 296 l 206 292 q 278 188 221 229 q 435 139 335 147 q 525 139 501 133 q 585 156 564 149 q 632 176 606 164 q 684 174 658 186 q 719 135 710 161 q 717 83 729 108 q 679 46 704 58 q 631 22 657 33 q 560 3 606 11 q 424 3 514 -4 l 424 3 m 211 428 q 642 428 292 431 q 613 481 635 449 q 454 583 549 571 q 302 549 368 596 q 211 428 236 503 l 211 428 m 396 899 q 365 842 389 865 q 294 824 340 818 q 226 855 249 829 q 201 910 203 881 q 221 969 200 940 q 281 1007 242 997 q 313 1014 301 1014 l 314 1014 q 318 1014 315 1014 q 324 1015 321 1014 q 351 1011 340 1017 q 393 964 382 996 q 396 899 403 932 l 396 899 m 647 897 q 616 840 640 864 q 546 822 592 817 q 477 853 500 828 q 453 909 454 879 q 472 967 451 939 q 532 1006 493 996 q 550 1013 539 1013 l 551 1013 q 563 1013 553 1013 q 575 1014 572 1013 q 603 1010 592 1015 q 644 963 633 994 q 647 897 654 931 l 647 897 z "},"ė":{"ha":749,"x_min":46,"x_max":710,"o":"m 322 6 q 151 103 215 32 q 65 269 86 174 q 65 451 46 358 q 133 625 83 544 q 368 749 221 744 q 563 682 471 751 q 685 533 657 618 q 705 473 700 504 q 698 404 710 442 q 651 342 686 367 q 625 331 640 333 q 613 328 619 329 q 592 326 604 326 q 539 325 572 325 q 386 328 481 325 q 196 333 293 329 q 200 299 197 315 q 356 139 228 172 q 456 140 419 124 q 458 142 457 140 q 461 145 458 143 q 468 150 464 147 l 557 232 q 607 250 578 251 q 656 228 636 249 q 674 178 675 207 q 651 129 672 149 l 596 78 l 558 44 q 525 19 536 25 q 322 6 440 -25 l 322 6 m 564 464 q 560 472 563 468 q 486 568 550 525 q 371 610 432 613 q 250 550 299 608 q 214 472 228 514 q 389 467 304 468 q 538 464 483 464 l 564 464 m 382 824 q 315 847 340 824 q 290 878 299 860 q 282 917 282 896 q 312 981 282 954 q 381 1008 342 1008 q 419 999 399 1008 q 453 971 439 989 q 470 942 465 958 q 474 904 475 926 q 445 847 474 869 q 382 824 417 824 l 382 824 z "},"è":{"ha":836,"x_min":53,"x_max":799,"o":"m 424 1 q 247 46 322 10 q 133 131 171 82 q 77 224 94 179 q 56 313 60 269 q 63 426 53 357 q 106 540 74 483 q 190 640 138 596 q 316 706 242 683 q 474 718 390 729 q 617 663 551 707 q 726 554 682 619 q 752 516 742 535 q 769 477 763 497 q 779 447 776 457 q 787 413 782 436 q 793 379 792 389 q 785 331 799 353 q 746 300 771 308 q 710 290 729 290 l 460 292 q 210 290 210 294 l 206 290 q 278 187 221 228 q 435 138 335 146 q 525 138 501 132 q 585 155 564 147 q 632 175 606 163 q 684 172 658 185 q 719 133 710 160 q 717 82 729 107 q 679 44 704 57 q 631 21 657 32 q 560 2 606 10 q 424 1 514 -6 l 424 1 m 211 426 q 642 426 292 429 q 613 479 635 447 q 454 582 549 569 q 302 548 368 594 q 211 426 236 501 l 211 426 m 314 926 q 294 974 294 943 q 313 1025 293 1004 q 361 1047 332 1046 q 410 1029 390 1047 l 510 918 q 534 872 532 901 q 517 820 536 843 q 466 796 497 797 q 418 814 435 794 l 314 926 z "},"ē":{"ha":824,"x_min":53,"x_max":783,"o":"m 433 -7 q 254 35 331 0 q 138 122 178 69 q 79 219 97 175 q 57 308 61 264 q 61 421 53 351 q 102 536 71 479 q 185 638 133 593 q 311 708 238 683 q 468 722 385 732 q 606 678 549 713 q 703 592 663 644 q 745 525 738 547 q 759 483 753 503 q 769 450 765 464 q 777 422 774 436 q 782 388 781 407 q 772 339 783 361 q 739 304 761 317 q 700 297 721 297 l 463 293 q 213 288 213 292 l 208 288 q 284 176 226 217 q 442 129 342 136 q 532 135 496 126 q 590 155 572 146 q 635 179 608 164 q 688 176 661 189 q 724 138 714 164 q 722 86 733 111 q 685 47 710 61 q 639 26 663 35 q 569 4 615 17 q 433 -7 524 -8 l 433 -7 m 211 424 q 629 432 292 428 q 589 511 617 474 q 451 585 533 575 q 300 548 365 596 q 211 424 235 500 l 211 424 z "},"ę":{"ha":824,"x_min":53,"x_max":783,"o":"m 494 -294 q 350 -254 404 -297 q 289 -124 288 -201 q 336 14 289 -49 q 408 72 365 47 q 488 101 450 96 q 539 92 518 106 q 564 51 560 78 q 554 14 567 29 q 497 -12 542 -1 q 426 -50 450 -25 q 401 -114 401 -75 q 426 -172 401 -150 q 488 -193 451 -193 q 516 -188 504 -193 q 540 -175 528 -183 q 561 -165 550 -169 q 585 -160 572 -160 q 622 -172 608 -160 q 635 -207 635 -185 q 592 -269 635 -243 q 494 -294 549 -294 l 494 -294 m 433 -7 q 254 35 331 0 q 138 122 178 69 q 79 219 97 175 q 57 308 61 264 q 61 421 53 351 q 102 536 71 479 q 185 638 133 593 q 311 708 238 683 q 468 722 385 732 q 606 678 549 713 q 703 592 663 644 q 745 525 738 547 q 759 483 753 503 q 769 450 765 464 q 777 422 774 436 q 782 388 781 407 q 772 339 783 361 q 739 304 761 317 q 700 297 721 297 l 463 293 q 213 288 213 292 l 208 288 q 284 176 226 217 q 442 129 342 136 q 532 135 496 126 q 590 155 572 146 q 635 179 608 164 q 688 176 661 189 q 724 138 714 164 q 722 86 733 111 q 685 47 710 61 q 639 26 663 35 q 569 4 615 17 q 433 -7 524 -8 l 433 -7 l 433 -7 m 211 424 q 629 432 292 428 q 589 511 617 474 q 451 585 533 575 q 300 548 365 596 q 211 424 235 500 l 211 424 l 211 424 z "},"ð":{"ha":847,"x_min":81,"x_max":775,"o":"m 426 -15 q 247 38 326 -15 q 124 182 168 92 q 81 379 81 272 q 112 534 81 460 q 200 660 143 608 q 329 726 257 711 q 397 733 361 733 q 514 714 447 733 q 378 883 451 804 q 257 794 324 846 q 215 781 238 781 q 167 803 188 781 q 146 853 146 825 q 174 906 146 883 l 274 981 l 236 1014 q 211 1064 211 1035 q 233 1115 211 1092 q 281 1139 254 1139 q 325 1119 306 1139 l 393 1060 q 488 1115 439 1089 q 522 1125 506 1125 q 570 1103 550 1125 q 590 1051 590 1081 q 554 993 590 1013 l 497 961 q 775 393 775 671 q 730 193 775 288 q 606 42 685 99 q 426 -15 526 -15 l 426 -15 m 429 118 q 536 156 489 118 q 610 254 583 194 q 636 375 636 314 q 627 469 636 426 q 600 561 618 513 q 576 557 590 557 q 494 578 557 557 q 429 596 453 590 q 388 600 407 600 q 310 575 346 600 q 221 364 221 508 q 247 244 221 301 q 319 153 272 188 q 429 118 367 118 l 429 118 z "},"ğ":{"ha":801,"x_min":54,"x_max":719,"o":"m 406 -285 q 251 -267 325 -292 q 128 -179 176 -242 q 98 -121 110 -156 q 100 -60 86 -86 q 141 -26 114 -35 q 194 -32 168 -18 q 228 -72 219 -46 q 235 -102 231 -83 q 265 -139 239 -121 q 403 -158 328 -161 q 507 -130 471 -156 q 553 -71 543 -104 q 575 79 567 -24 q 415 13 522 24 q 251 38 324 8 q 135 124 178 68 q 74 247 93 179 q 60 411 54 313 q 179 657 71 564 q 471 725 300 753 q 569 675 533 704 q 622 743 571 731 q 676 728 656 746 q 700 682 696 710 q 718 268 715 513 q 710 36 719 129 q 644 -172 699 -103 q 536 -259 590 -240 q 406 -285 482 -278 l 406 -285 m 406 154 q 485 167 457 153 q 578 299 565 192 q 571 456 585 381 q 514 538 561 503 q 443 567 486 560 q 272 533 332 586 q 207 399 215 488 q 253 217 200 282 q 406 154 307 153 l 406 154 z "},"ǧ":{"ha":842,"x_min":60,"x_max":760,"o":"m 468 -319 q 284 -303 368 -336 q 111 -203 200 -269 q 84 -158 89 -186 q 97 -106 79 -129 q 142 -78 114 -83 q 194 -92 171 -74 q 326 -169 268 -146 q 446 -183 383 -193 q 569 -92 533 -168 q 608 76 596 -32 q 350 -6 493 -19 q 176 67 251 4 q 71 239 100 131 q 65 358 60 300 q 83 465 69 417 q 169 621 110 557 q 302 711 229 685 q 457 731 375 738 q 610 682 539 724 q 665 719 626 717 q 716 703 694 721 q 740 656 738 685 q 758 257 760 411 q 694 -150 756 -18 q 603 -263 663 -219 q 468 -319 543 -307 l 468 -319 m 363 132 q 474 153 418 128 q 568 235 529 179 q 619 265 586 263 q 613 490 619 367 q 513 575 574 549 q 394 593 453 601 q 286 541 336 585 q 217 426 236 497 q 203 346 207 392 q 204 275 199 300 q 265 174 222 210 q 363 132 308 138 l 363 132 m 440 782 q 381 801 410 781 q 346 835 365 813 l 249 943 q 233 986 232 961 q 252 1028 235 1011 q 294 1043 269 1044 q 336 1024 319 1042 l 433 914 l 436 913 l 444 921 q 550 1022 510 986 q 594 1035 569 1038 q 634 1015 618 1033 q 649 973 650 997 q 629 931 647 949 q 529 836 592 899 q 494 806 507 814 q 440 782 468 785 l 440 782 z "},"ĝ":{"ha":824,"x_min":56,"x_max":751,"o":"m 414 -315 q 242 -299 325 -325 q 113 -203 160 -272 q 88 -147 97 -181 q 83 -133 86 -146 q 78 -114 81 -121 q 81 -60 68 -86 q 120 -25 93 -35 q 173 -28 147 -15 q 208 -67 199 -40 q 221 -108 210 -69 l 226 -125 q 293 -169 247 -154 q 399 -178 339 -185 q 504 -146 458 -171 q 567 -90 550 -121 q 599 69 593 -40 q 538 26 569 42 q 335 7 472 -6 q 211 56 265 14 q 122 158 157 96 q 64 421 56 276 q 174 668 72 581 q 485 726 292 771 q 576 692 538 714 q 601 731 582 715 q 646 746 621 746 q 694 725 675 746 q 714 675 714 704 q 722 496 713 629 q 738 268 735 322 q 689 -154 751 -37 q 576 -265 653 -224 q 414 -315 500 -306 l 414 -315 m 346 146 q 478 151 446 136 q 563 240 504 165 q 599 265 576 258 q 583 486 596 315 l 582 500 q 526 560 554 540 q 454 590 499 581 q 265 564 329 619 q 203 413 208 514 q 243 226 196 310 q 346 146 286 151 l 346 146 m 314 814 q 272 794 297 796 q 230 810 247 793 q 211 851 213 826 q 226 894 210 876 l 324 1003 q 358 1036 343 1025 q 418 1056 388 1057 q 472 1032 446 1053 q 507 1001 485 1024 q 607 907 569 939 q 626 865 625 889 q 612 822 628 840 q 572 802 596 804 q 528 815 547 800 q 422 917 488 851 l 414 925 l 411 924 l 314 814 l 314 814 z "},"ģ":{"ha":824,"x_min":56,"x_max":751,"o":"m 414 -315 q 242 -299 325 -325 q 113 -203 160 -272 q 88 -147 97 -181 q 83 -133 86 -146 q 78 -114 81 -121 q 81 -60 68 -86 q 120 -25 93 -35 q 173 -28 147 -15 q 208 -67 199 -40 q 221 -108 210 -69 l 226 -125 q 293 -169 247 -154 q 399 -178 339 -185 q 504 -146 458 -171 q 567 -90 550 -121 q 599 69 593 -40 q 538 26 569 42 q 335 7 472 -6 q 211 56 265 14 q 122 158 157 96 q 64 421 56 276 q 174 668 72 581 q 485 726 292 771 q 576 692 538 714 q 601 731 582 715 q 646 746 621 746 q 694 725 675 746 q 714 675 714 704 q 722 496 713 629 q 738 268 735 322 q 689 -154 751 -37 q 576 -265 653 -224 q 414 -315 500 -306 l 414 -315 m 346 146 q 478 151 446 136 q 563 240 504 165 q 599 265 576 258 q 583 486 596 315 l 582 500 q 526 560 554 540 q 454 590 499 581 q 265 564 329 619 q 203 413 208 514 q 243 226 196 310 q 346 146 286 151 l 346 146 m 411 818 q 385 816 393 815 q 363 819 376 817 q 307 858 331 826 q 290 944 282 892 q 318 1022 297 986 q 375 1101 343 1065 q 413 1119 390 1118 q 451 1108 436 1121 q 467 1071 465 1094 q 453 1031 468 1047 q 413 968 439 1015 q 447 954 433 964 q 470 929 461 944 q 479 893 479 914 q 467 854 479 872 q 432 826 456 836 l 411 818 l 411 818 z "},"ġ":{"ha":801,"x_min":54,"x_max":719,"o":"m 406 -285 q 251 -267 325 -292 q 128 -179 176 -242 q 98 -121 110 -156 q 100 -60 86 -86 q 141 -26 114 -35 q 194 -32 168 -18 q 228 -72 219 -46 q 235 -102 231 -83 q 265 -139 239 -121 q 403 -158 328 -161 q 507 -130 471 -156 q 553 -71 543 -104 q 575 79 567 -24 q 415 13 522 24 q 251 38 324 8 q 135 124 178 68 q 74 247 93 179 q 60 411 54 313 q 179 657 71 564 q 471 725 300 753 q 569 675 533 704 q 622 743 571 731 q 676 728 656 746 q 700 682 696 710 q 718 268 715 513 q 710 36 719 129 q 644 -172 699 -103 q 536 -259 590 -240 q 406 -285 482 -278 l 406 -285 m 406 154 q 485 167 457 153 q 578 299 565 192 q 571 456 585 381 q 514 538 561 503 q 443 567 486 560 q 272 533 332 586 q 207 399 215 488 q 253 217 200 282 q 406 154 307 153 l 406 154 z "},"ħ":{"ha":771,"x_min":-29,"x_max":706,"o":"m 46 775 q -6 793 17 775 q -29 842 -29 811 q -11 888 -29 868 q 35 908 7 908 l 411 922 q 459 903 440 922 q 479 856 478 885 q 460 808 479 828 q 414 789 442 789 l 46 775 l 46 775 m 690 67 q 668 18 689 38 q 619 -1 647 -1 q 571 21 590 0 q 551 69 551 42 q 560 200 551 71 q 563 415 568 342 q 435 597 550 589 q 334 578 374 601 q 257 499 294 556 q 246 479 254 494 q 256 68 256 179 q 235 19 256 39 q 186 -1 215 -1 q 137 19 157 -1 q 117 68 117 39 q 106 500 117 132 q 103 939 97 776 q 125 987 104 967 q 174 1006 146 1007 q 223 983 203 1004 q 242 933 243 963 q 240 643 240 896 q 449 736 329 746 q 701 426 679 717 q 703 286 706 346 q 696 154 701 226 q 690 67 690 82 l 690 67 l 690 67 z "},"ĥ":{"ha":768,"x_min":-47,"x_max":696,"o":"m 681 67 q 658 18 679 38 q 609 -1 638 -1 q 561 21 581 0 q 542 69 542 42 q 550 200 542 71 q 553 415 558 342 q 425 597 540 589 q 324 578 364 601 q 247 499 285 556 q 236 479 244 494 q 246 68 246 179 q 226 19 246 39 q 176 -1 206 -1 q 127 19 147 -1 q 107 68 107 39 q 96 500 107 132 q 93 939 88 776 q 115 987 94 967 q 165 1006 136 1007 q 213 983 193 1004 q 232 933 233 963 q 231 643 231 896 q 439 736 319 746 q 692 426 669 717 q 694 286 696 346 q 686 154 692 226 q 681 67 681 82 l 681 67 z "},"í":{"ha":329,"x_min":76,"x_max":331,"o":"m 194 817 q 151 795 178 797 q 105 811 125 793 q 81 857 85 829 q 94 906 76 885 l 128 946 q 149 972 140 961 q 165 990 158 982 q 188 1017 172 999 l 221 1054 q 266 1071 239 1071 q 312 1051 293 1071 q 331 1004 331 1031 q 314 957 331 978 q 275 911 294 933 q 242 873 254 889 q 194 817 229 857 l 194 817 m 100 58 q 90 661 100 468 q 108 712 89 690 q 156 735 126 733 q 206 717 185 736 q 229 669 228 699 q 239 58 239 457 q 219 9 239 29 q 169 -11 199 -11 q 120 9 140 -11 q 100 58 100 29 l 100 58 z "},"ĭ":{"ha":329,"x_min":-24,"x_max":350,"o":"m 172 815 q 25 875 85 815 q -10 924 4 896 q -24 976 -24 951 q -9 1019 -24 1001 q 28 1036 6 1036 q 88 983 65 1036 q 122 944 97 957 q 174 932 146 932 q 217 944 200 932 q 244 983 235 956 q 266 1022 254 1010 q 296 1035 278 1035 q 334 1018 318 1035 q 350 978 350 1001 q 317 892 350 939 q 256 836 292 857 q 172 815 219 815 l 172 815 m 100 58 q 90 661 100 468 q 108 712 89 690 q 156 735 126 733 q 206 717 185 736 q 229 669 228 699 q 239 58 239 457 q 219 9 239 29 q 169 -11 199 -11 q 120 9 140 -11 q 100 58 100 29 l 100 58 z "},"î":{"ha":329,"x_min":-35,"x_max":350,"o":"m 229 54 q 204 8 226 26 q 153 -8 182 -11 q 106 17 125 -6 q 90 68 88 39 q 94 351 101 183 q 83 667 83 647 q 103 716 83 696 q 153 736 124 736 q 202 716 182 736 q 222 667 222 696 q 233 357 222 626 q 229 54 240 175 l 229 54 m 69 826 q 24 801 47 801 q -17 816 1 800 q -35 858 -35 832 q -14 907 -35 883 l 72 1007 q 106 1040 93 1028 q 157 1064 129 1064 q 214 1040 186 1064 q 261 988 239 1015 q 329 907 296 946 q 348 864 346 888 q 335 822 350 840 q 294 801 319 803 q 244 826 268 800 q 157 933 225 850 l 69 826 l 69 826 z "},"ï":{"ha":300,"x_min":-37,"x_max":342,"o":"m 132 897 q 104 850 125 869 q 44 834 83 831 q -15 860 6 838 q -36 908 -35 882 q -24 958 -37 933 q 26 994 -10 982 q 48 1001 39 1000 q 65 1000 57 1001 q 93 992 81 999 q 129 954 119 982 q 132 897 139 926 l 132 897 m 338 896 q 310 849 333 868 q 250 834 288 831 q 193 859 213 838 q 172 906 174 881 q 178 950 171 932 q 208 986 186 968 q 256 1000 226 1001 q 289 994 274 1000 q 314 981 301 990 q 335 944 325 969 q 338 896 342 926 l 338 896 m 86 58 q 76 661 86 468 q 94 712 75 690 q 142 735 113 733 q 192 717 171 736 q 215 669 214 699 q 225 58 225 457 q 205 9 225 29 q 156 -11 185 -11 q 106 9 126 -11 q 86 58 86 29 l 86 58 z "},"ı":{"ha":329,"x_min":89,"x_max":239,"o":"m 100 58 q 90 661 100 468 q 108 712 89 690 q 156 735 126 733 q 206 717 185 736 q 229 669 228 699 q 239 58 239 457 q 219 9 239 29 q 169 -11 199 -11 q 120 9 140 -11 q 100 58 100 29 l 100 58 z "},"ì":{"ha":329,"x_min":-4,"x_max":265,"o":"m 100 58 q 90 661 100 468 q 108 712 89 690 q 156 735 126 733 q 206 717 185 736 q 229 669 228 699 q 239 58 239 457 q 219 9 239 29 q 169 -11 199 -11 q 120 9 140 -11 q 100 58 100 29 l 100 58 z "},"ī":{"ha":318,"x_min":-18,"x_max":331,"o":"m 272 858 q 169 853 232 853 q 35 864 106 853 q -3 888 11 867 q -15 934 -18 908 q 7 976 -12 960 q 51 989 26 992 l 76 985 q 103 981 96 982 q 125 979 110 981 q 161 978 140 978 q 213 979 196 978 q 242 982 231 981 q 268 983 254 983 q 310 967 292 985 q 329 923 328 949 q 313 878 331 897 q 272 858 294 860 l 272 858 m 100 58 q 90 661 100 468 q 108 712 89 690 q 156 735 126 733 q 206 717 185 736 q 229 669 228 699 q 239 58 239 457 q 219 9 239 29 q 169 -11 199 -11 q 120 9 140 -11 q 100 58 100 29 l 100 58 l 100 58 z "},"į":{"ha":317,"x_min":-54,"x_max":238,"o":"m 69 -328 q -22 -277 10 -317 q -54 -185 -54 -237 q -4 -43 -54 -115 q 93 53 29 7 l 93 58 q 83 661 93 468 q 101 712 82 690 q 149 735 119 733 q 199 717 178 736 q 222 669 221 699 q 232 58 232 457 q 229 40 232 49 q 231 -2 238 19 q 206 -37 224 -24 l 179 -57 q 156 -74 163 -69 q 140 -87 150 -78 q 124 -103 131 -96 q 110 -121 117 -111 q 85 -185 85 -158 q 86 -189 85 -189 q 94 -192 89 -190 q 103 -189 97 -190 q 108 -187 106 -189 q 115 -185 111 -186 q 121 -183 118 -185 l 147 -176 q 200 -187 176 -171 q 229 -231 224 -203 q 219 -283 235 -260 q 175 -312 203 -307 q 163 -315 171 -314 q 142 -322 143 -322 q 69 -328 103 -335 l 69 -328 m 79 932 q 99 981 79 961 q 149 1001 119 1001 q 198 981 178 1001 q 218 932 218 961 l 218 856 q 198 806 218 826 q 149 786 178 786 q 99 806 119 786 q 79 856 79 826 l 79 932 z "},"ĩ":{"ha":303,"x_min":-50,"x_max":354,"o":"m 101 57 q 96 124 100 74 q 90 212 92 175 q 85 299 89 249 q 81 381 82 350 q 78 463 79 413 q 76 573 76 514 q 78 671 76 632 q 99 719 79 699 q 147 738 119 739 q 193 715 174 736 q 217 665 213 694 q 219 572 222 629 q 217 466 215 515 q 219 388 218 417 q 222 308 219 360 l 228 236 q 234 135 229 186 q 240 68 239 83 q 223 17 242 39 q 176 -6 204 -4 q 126 10 147 -8 q 101 57 104 29 l 101 57 m 229 835 q 181 843 203 835 q 132 868 158 851 q 99 888 113 881 q 74 894 85 894 q 33 875 53 894 q -7 854 13 854 q -37 866 -25 854 q -50 897 -50 878 q -45 928 -50 914 q -25 961 -40 942 q 19 1001 -7 983 q 72 1018 44 1018 q 113 1010 94 1018 q 164 982 131 1003 q 202 959 185 968 q 231 950 219 950 q 264 976 249 950 q 285 1002 272 993 q 310 1011 297 1011 q 342 998 329 1011 q 354 965 354 985 q 343 919 354 943 q 317 879 332 896 q 229 835 276 835 l 229 835 z "},"ĵ":{"ha":321,"x_min":-56,"x_max":335,"o":"m 60 -278 q 21 -274 24 -274 q -27 -251 -8 -272 q -44 -200 -46 -229 q -22 -152 -43 -171 q 29 -135 0 -133 q 74 -139 35 -135 q 81 -140 78 -139 q 89 -126 85 -135 l 89 -125 q 92 -117 90 -124 l 94 -100 q 100 -12 97 -67 q 103 242 104 86 q 90 664 100 532 q 108 715 89 693 q 155 738 126 736 q 205 722 183 740 q 229 675 226 703 q 242 242 239 539 q 239 -18 243 83 q 232 -117 236 -78 q 213 -192 225 -168 q 110 -276 172 -265 q 60 -278 89 -281 l 60 -278 m 49 806 q 7 786 32 788 q -35 801 -18 785 q -54 843 -53 818 q -39 886 -56 868 l 44 994 q 79 1028 64 1017 q 139 1047 108 1049 q 193 1024 167 1044 q 228 993 206 1015 q 314 899 276 931 q 333 856 332 881 q 319 814 335 832 q 278 794 303 796 q 235 807 254 792 q 143 908 194 843 l 135 917 l 132 915 l 49 806 l 49 806 z "},"ȷ":{"ha":331,"x_min":-31,"x_max":249,"o":"m 79 -247 q 26 -255 54 -262 q -16 -222 -1 -247 q -23 -169 -31 -197 q 10 -128 -15 -142 q 60 -101 11 -126 q 83 -87 76 -93 q 89 -68 86 -81 q 101 10 97 -40 q 108 246 110 99 q 92 669 107 344 q 110 719 90 697 q 158 742 129 740 q 208 724 186 743 q 231 675 229 704 q 247 247 246 349 q 239 -4 249 96 q 224 -101 233 -64 q 183 -185 211 -158 q 122 -225 161 -207 q 105 -234 121 -226 q 79 -247 89 -242 l 79 -247 z "},"ķ":{"ha":663,"x_min":90,"x_max":669,"o":"m 550 15 q 301 344 444 124 l 232 271 l 229 268 q 231 74 229 165 q 211 24 231 44 q 163 3 192 3 q 113 22 133 3 q 92 71 92 42 q 90 926 90 160 q 110 976 90 956 q 160 996 131 996 q 209 976 189 996 q 229 926 229 956 q 228 699 229 857 q 228 468 228 540 l 481 714 q 530 733 501 735 q 578 711 558 732 q 597 662 599 690 q 575 614 596 633 l 400 444 l 408 433 q 534 250 481 324 q 650 113 588 176 q 669 63 669 92 q 649 15 669 35 q 599 -6 628 -6 q 550 15 571 -6 l 550 15 m 383 -311 q 345 -329 368 -328 q 308 -317 322 -331 q 292 -281 293 -304 q 306 -240 290 -257 q 346 -178 319 -225 q 311 -164 325 -175 q 288 -139 297 -154 q 279 -103 279 -124 q 292 -65 279 -82 q 326 -36 304 -47 l 347 -28 q 374 -26 365 -25 q 396 -29 382 -26 q 451 -68 429 -35 q 468 -154 475 -101 q 440 -232 460 -196 q 383 -311 418 -278 l 383 -311 z "},"ĸ":{"ha":665,"x_min":89,"x_max":672,"o":"m 554 13 q 458 136 525 39 q 356 283 392 233 q 314 344 321 333 l 238 265 l 235 263 q 229 69 232 158 q 207 21 228 40 q 157 3 186 1 q 108 25 128 4 q 90 75 89 46 q 97 663 97 257 q 117 712 97 692 q 167 732 138 732 q 216 712 196 732 q 236 663 236 692 l 236 464 l 481 707 q 530 728 501 728 q 579 708 558 728 q 600 659 600 688 q 581 610 600 631 l 414 444 q 417 440 415 442 l 649 115 q 671 67 669 96 q 653 17 672 39 q 605 -6 633 -4 q 554 13 576 -7 l 554 13 z "},"ĺ":{"ha":310,"x_min":60,"x_max":329,"o":"m 222 67 q 200 18 221 38 q 150 0 179 -1 q 101 22 121 1 q 83 72 82 43 q 89 353 89 257 q 86 639 89 449 q 83 925 83 829 q 103 974 83 954 q 153 994 124 994 q 202 974 182 994 q 222 925 222 954 q 225 653 222 829 q 227 333 228 476 q 222 67 226 189 l 222 67 m 169 1165 q 122 1153 149 1150 q 78 1175 96 1156 q 63 1222 60 1194 q 86 1269 65 1250 l 226 1376 q 274 1387 246 1390 q 315 1358 301 1383 q 324 1307 329 1333 q 299 1264 319 1281 q 169 1165 235 1215 l 169 1165 z "},"ľ":{"ha":453,"x_min":82,"x_max":469,"o":"m 222 67 q 200 18 221 38 q 150 0 179 -1 q 101 22 121 1 q 83 72 82 43 q 89 353 89 257 q 86 639 89 449 q 83 925 83 829 q 103 974 83 954 q 153 994 124 994 q 202 974 182 994 q 222 925 222 954 q 225 653 222 829 q 227 333 228 476 q 222 67 226 189 l 222 67 m 386 689 q 347 706 365 689 q 328 746 328 722 q 335 782 328 760 q 346 853 346 824 q 336 913 346 876 q 329 943 329 938 q 348 987 329 969 q 392 1004 367 1004 q 426 994 410 1006 q 451 960 442 982 q 469 857 469 907 q 450 740 469 804 q 386 689 435 689 l 386 689 z "},"ļ":{"ha":310,"x_min":64,"x_max":249,"o":"m 222 67 q 200 18 221 38 q 150 0 179 -1 q 101 22 121 1 q 83 72 82 43 q 89 353 89 257 q 86 639 89 449 q 83 925 83 829 q 103 974 83 954 q 153 994 124 994 q 202 974 182 994 q 222 925 222 954 q 225 653 222 829 q 227 333 228 476 q 222 67 226 189 l 222 67 m 163 -318 q 126 -336 147 -335 q 90 -325 104 -337 q 75 -290 76 -312 q 89 -251 74 -268 q 126 -193 101 -237 q 94 -179 107 -190 q 72 -156 81 -171 q 64 -122 64 -142 q 76 -86 64 -103 q 108 -60 88 -69 l 128 -51 q 153 -49 144 -49 q 174 -53 161 -50 q 226 -89 206 -58 q 242 -171 249 -121 q 215 -244 235 -210 q 163 -318 194 -287 l 163 -318 z "},"ŀ":{"ha":481,"x_min":69,"x_max":444,"o":"m 74 64 q 72 332 74 158 q 69 648 69 506 q 74 917 69 790 q 96 965 75 944 q 145 983 117 985 q 194 961 174 982 q 213 911 214 940 q 210 472 208 786 q 213 64 213 158 q 192 15 213 35 q 143 -6 172 -6 q 94 15 114 -6 q 74 64 74 35 l 74 64 m 421 586 q 444 532 444 564 q 422 477 444 500 q 367 454 399 454 q 312 477 335 454 q 289 532 289 500 q 312 587 289 564 q 367 610 335 610 q 421 586 399 610 l 421 586 z "},"ł":{"ha":426,"x_min":-6,"x_max":435,"o":"m 64 333 q 15 354 35 333 q -6 403 -6 375 q 31 465 -6 443 q 204 565 88 500 l 240 586 q 324 638 296 618 q 365 650 344 650 q 416 628 397 650 q 435 576 435 607 q 400 521 435 540 q 354 494 378 507 q 307 468 331 482 q 226 424 261 444 q 161 381 192 403 l 104 344 q 64 333 86 333 l 64 333 m 275 67 q 253 18 274 38 q 203 0 232 -1 q 154 22 174 1 q 136 72 135 43 q 142 353 142 257 q 139 639 142 449 q 136 925 136 829 q 156 974 136 954 q 206 994 176 994 q 255 974 235 994 q 275 925 275 954 q 278 653 275 829 q 280 333 281 476 q 275 67 279 189 l 275 67 l 275 67 z "},"ń":{"ha":753,"x_min":88,"x_max":679,"o":"m 214 0 q 150 -7 183 -18 q 104 39 117 4 q 99 86 97 58 q 100 108 99 99 q 101 122 101 118 l 101 128 q 96 289 96 200 q 90 665 88 461 q 113 719 92 693 q 163 744 135 746 q 211 724 192 743 q 229 676 231 706 q 228 619 228 660 q 338 718 276 689 q 429 742 383 739 q 524 724 475 746 q 610 651 574 701 q 676 336 671 565 q 676 172 679 281 q 674 54 674 64 q 653 5 674 25 q 604 -15 633 -15 q 555 5 575 -15 q 535 54 535 25 q 538 171 535 65 q 538 332 540 276 q 496 571 532 519 q 394 592 461 621 q 325 553 357 575 q 267 476 293 531 q 254 392 254 451 q 249 257 249 332 q 251 122 249 244 l 251 75 q 250 56 251 63 q 246 39 249 46 q 214 0 238 13 l 214 0 m 443 838 q 395 819 426 818 q 344 844 364 821 q 327 896 325 867 q 351 942 329 925 l 451 1039 q 500 1056 471 1057 q 549 1035 529 1056 q 567 983 568 1014 q 547 936 567 953 l 443 838 l 443 838 z "},"ň":{"ha":814,"x_min":86,"x_max":738,"o":"m 171 -4 q 124 28 140 1 q 117 42 119 35 l 113 56 l 113 63 q 109 101 111 69 q 107 140 107 132 q 103 308 103 214 q 101 425 103 365 q 94 569 99 485 q 88 688 89 646 q 106 737 86 715 q 153 760 125 758 q 203 742 182 761 q 226 693 225 722 q 231 601 228 660 l 244 621 q 410 749 317 729 q 633 661 524 772 q 733 350 718 576 q 738 186 738 313 l 738 65 q 718 15 738 36 q 669 -6 699 -6 q 619 14 640 -6 q 599 63 599 33 q 599 188 599 72 q 594 340 600 303 q 536 564 583 515 q 438 613 478 621 q 360 543 400 604 q 289 415 318 482 q 251 278 260 347 q 246 157 243 219 q 251 71 251 101 l 251 65 q 249 44 251 56 q 239 25 244 33 q 171 -4 214 -11 l 171 -4 m 440 788 q 381 807 410 786 q 346 840 365 818 l 249 949 q 233 992 232 967 q 252 1033 235 1017 q 294 1049 269 1050 q 336 1029 319 1047 l 433 919 l 436 918 l 444 926 q 550 1028 510 992 q 594 1041 569 1043 q 634 1021 618 1039 q 649 978 650 1003 q 629 936 647 954 q 529 842 592 904 q 494 811 507 819 q 440 788 468 790 l 440 788 z "},"ņ":{"ha":783,"x_min":90,"x_max":706,"o":"m 164 0 q 115 19 136 0 q 94 69 94 38 q 93 258 94 179 q 90 668 90 494 q 110 718 90 700 q 157 736 129 736 q 208 717 186 736 q 229 665 229 699 l 229 622 q 456 735 315 735 q 641 650 576 735 q 706 422 706 565 q 701 214 706 264 l 694 121 l 690 61 q 668 17 688 33 q 622 0 649 0 q 574 19 594 0 q 553 69 553 38 q 563 224 553 92 q 569 365 569 314 q 536 540 569 483 q 433 596 503 596 q 330 565 383 596 q 229 488 276 535 l 232 290 l 233 69 q 213 19 233 38 q 164 0 192 0 l 164 0 m 400 -318 q 363 -336 385 -335 q 328 -325 342 -337 q 313 -290 314 -312 q 326 -251 311 -268 q 364 -193 339 -237 q 332 -179 344 -190 q 310 -156 318 -171 q 301 -122 301 -142 q 313 -86 301 -103 q 346 -60 325 -69 l 365 -51 q 390 -49 382 -49 q 411 -53 399 -50 q 464 -89 443 -58 q 479 -171 486 -121 q 453 -244 472 -210 q 400 -318 432 -287 l 400 -318 z "},"ñ":{"ha":785,"x_min":86,"x_max":714,"o":"m 121 56 q 97 241 103 136 q 90 482 90 346 q 88 671 90 613 q 106 721 86 700 q 154 743 125 742 q 204 725 183 744 q 226 676 225 706 q 228 614 228 647 q 488 728 357 733 q 660 617 603 724 q 708 422 699 546 q 708 222 714 344 q 701 63 701 78 q 682 13 701 33 q 633 -8 663 -8 q 583 11 604 -8 q 563 60 563 31 q 569 229 563 72 q 569 413 575 342 q 538 551 563 506 q 482 589 518 588 q 367 549 422 592 q 238 421 311 506 q 229 414 233 417 q 257 83 232 201 q 247 31 263 54 q 202 1 231 7 q 150 12 174 -4 q 121 56 126 28 l 121 56 m 519 781 q 463 789 493 779 q 419 808 433 799 q 379 833 406 817 q 292 871 318 874 q 194 815 247 869 q 152 796 171 794 q 120 812 133 797 q 106 852 107 826 q 117 897 104 878 q 286 997 197 993 q 340 990 311 999 q 383 971 369 981 l 424 946 q 514 907 486 906 q 590 975 561 908 q 629 997 604 996 q 669 978 654 999 q 682 934 685 958 q 667 890 679 910 q 519 781 608 785 l 519 781 z "},"ŋ":{"ha":765,"x_min":85,"x_max":686,"o":"m 447 -321 q 397 -305 419 -324 q 372 -258 375 -286 q 388 -207 369 -229 q 436 -182 407 -185 q 482 -181 443 -182 q 515 -176 504 -179 q 540 -164 533 -174 l 540 -161 q 542 -154 540 -160 q 543 -143 543 -149 q 546 -78 546 -118 q 544 -6 546 -50 q 542 49 542 39 q 545 182 542 61 q 544 386 549 303 q 526 535 540 469 q 476 629 506 622 q 450 627 467 632 q 394 597 433 622 q 306 524 356 572 q 267 483 275 494 q 243 450 257 472 q 246 374 244 421 q 249 72 250 156 q 228 24 249 43 q 178 4 207 4 q 129 25 149 4 q 110 75 110 46 q 107 369 111 156 l 106 392 q 88 431 90 408 q 97 475 85 454 l 104 486 q 105 592 104 524 q 106 686 106 661 q 128 734 107 714 q 177 753 149 754 q 226 731 206 751 q 244 681 246 710 q 243 656 244 668 q 508 764 396 790 q 661 565 622 738 q 681 427 675 508 q 685 285 686 346 q 683 147 685 225 q 681 49 681 68 q 683 -6 681 39 q 685 -78 685 -50 q 682 -157 685 -125 q 660 -235 676 -207 q 540 -314 619 -299 q 488 -318 519 -318 q 447 -321 451 -321 l 447 -321 z "},"ó":{"ha":792,"x_min":49,"x_max":731,"o":"m 411 -6 q 282 14 340 -10 q 181 78 222 36 q 114 169 140 119 q 74 276 88 219 q 78 508 49 392 q 194 688 107 625 q 226 708 208 699 q 263 725 243 717 l 296 736 q 331 748 310 742 q 356 756 351 754 q 428 736 397 768 q 483 721 464 729 q 665 556 600 668 q 729 322 731 443 q 694 168 728 239 q 588 49 661 97 q 411 -6 514 0 l 411 -6 m 403 133 q 542 191 496 139 q 590 325 589 243 q 547 483 592 407 q 428 593 503 560 q 413 598 419 597 q 392 600 407 599 q 356 606 376 601 q 347 607 351 606 q 275 576 296 590 q 211 467 231 543 q 210 307 192 390 q 279 176 229 224 q 403 133 329 129 l 403 133 m 344 828 q 297 810 328 808 q 246 834 265 811 q 228 886 226 857 q 253 932 231 915 l 353 1029 q 401 1047 372 1047 q 450 1025 431 1046 q 469 974 469 1004 q 449 926 468 943 l 344 828 l 344 828 z "},"ŏ":{"ha":775,"x_min":61,"x_max":717,"o":"m 393 -14 q 244 33 310 -6 q 139 129 178 72 q 81 252 100 186 q 63 387 61 318 q 86 520 64 456 q 150 638 108 585 q 260 724 192 692 q 411 757 328 757 q 449 745 432 757 q 475 714 467 733 q 692 486 644 625 q 713 326 717 414 q 676 164 708 239 q 567 28 639 79 q 393 -14 494 -24 l 393 -14 m 407 125 q 549 219 503 115 q 574 333 571 271 q 561 442 576 396 q 381 607 528 536 q 368 614 374 610 q 247 535 292 599 q 201 383 203 472 q 253 208 199 282 q 407 125 308 135 l 407 125 m 363 806 q 189 903 256 826 q 160 953 172 922 q 156 965 160 954 q 149 981 151 975 q 145 1034 136 1007 q 181 1074 154 1061 q 234 1077 207 1086 q 274 1042 261 1068 q 289 1006 275 1040 q 294 994 293 996 q 389 942 329 954 q 481 957 447 931 q 490 969 483 960 q 514 1007 513 1004 q 559 1034 531 1029 q 610 1022 588 1039 q 638 976 633 1004 q 625 924 643 947 q 619 914 622 919 l 614 904 l 607 894 q 567 849 588 865 q 363 806 483 782 l 363 806 z "},"ô":{"ha":783,"x_min":57,"x_max":726,"o":"m 396 -12 q 186 86 271 -4 q 72 299 101 176 q 60 413 57 351 q 78 528 63 474 q 134 633 94 583 q 231 711 174 682 q 321 736 256 722 l 396 750 q 438 744 418 754 q 469 715 458 735 q 650 561 585 668 q 721 335 715 454 q 649 90 726 188 q 396 -12 557 -24 l 396 -12 m 404 126 q 540 178 494 119 q 582 329 586 235 q 519 506 578 428 q 365 601 461 585 q 360 603 363 601 l 349 600 q 294 586 301 590 q 211 487 235 557 q 208 331 188 417 q 282 188 228 244 q 404 126 336 131 l 404 126 m 269 803 q 228 783 253 785 q 185 799 203 782 q 167 840 168 815 q 182 883 165 865 l 279 992 q 314 1025 299 1014 q 374 1044 343 1046 q 428 1021 401 1042 q 463 990 440 1013 q 563 896 525 928 q 582 853 581 878 q 567 811 583 829 q 527 791 551 793 q 483 804 503 789 q 378 906 443 840 l 369 914 l 367 913 l 269 803 l 269 803 z "},"ö":{"ha":782,"x_min":47,"x_max":719,"o":"m 421 -6 q 283 9 346 -12 q 178 72 221 31 q 108 167 136 114 q 69 281 81 219 q 90 524 47 403 q 240 713 133 646 q 325 749 274 732 q 392 776 350 783 l 399 776 q 417 775 407 776 q 438 772 426 774 q 463 768 450 771 q 483 763 475 765 q 613 665 558 732 q 694 518 668 597 q 719 357 719 439 q 703 234 719 293 q 651 123 686 175 q 557 36 617 71 q 421 -6 497 1 l 421 -6 m 407 133 q 537 201 493 140 q 581 357 581 263 q 538 530 581 451 q 433 632 496 608 q 404 626 424 631 q 376 618 385 621 l 354 611 q 331 603 340 607 q 313 593 321 599 q 219 473 249 554 q 207 306 190 392 q 274 172 222 219 q 407 133 326 125 l 407 133 m 358 907 q 327 850 351 874 q 257 832 303 826 q 188 863 211 838 q 164 912 165 889 q 183 956 163 935 q 243 988 204 978 q 275 994 264 994 l 276 994 q 281 994 278 994 q 286 996 283 994 q 314 992 303 997 q 356 944 344 976 q 358 907 365 913 l 358 907 m 610 906 q 578 849 603 872 q 508 831 554 825 q 440 862 463 836 q 415 913 417 888 q 435 957 414 938 q 494 986 456 976 q 513 993 501 993 l 514 993 q 525 993 515 993 q 538 994 535 993 q 565 990 554 996 q 607 943 596 975 q 610 906 617 911 l 610 906 z "},"ò":{"ha":774,"x_min":53,"x_max":714,"o":"m 368 -4 q 183 72 257 4 q 79 239 108 140 q 67 428 53 328 q 133 606 81 529 q 233 708 176 671 q 368 776 290 746 q 414 779 392 786 q 450 753 436 772 q 646 575 578 696 q 711 325 714 454 q 624 89 707 181 q 368 -4 528 -17 l 368 -4 m 379 135 q 521 182 471 128 q 572 328 569 236 q 523 510 574 424 q 382 632 472 596 q 247 528 290 590 q 204 409 214 478 q 213 278 194 340 q 274 177 232 215 q 379 135 315 139 l 379 135 m 301 922 q 281 969 282 939 q 300 1021 281 1000 q 349 1042 319 1042 q 397 1025 378 1043 l 483 928 q 508 882 506 911 q 490 830 510 853 q 440 806 471 807 q 392 824 408 804 l 301 922 z "},"ő":{"ha":769,"x_min":57,"x_max":688,"o":"m 393 -12 q 154 75 246 -31 q 65 304 78 163 q 73 469 57 386 q 136 626 89 553 q 256 733 183 700 q 311 746 278 744 l 329 746 q 340 747 336 746 q 393 728 371 749 q 585 654 514 721 q 675 360 688 558 q 614 131 664 215 q 393 -12 543 8 l 393 -12 m 375 119 q 500 196 463 131 q 543 371 535 256 q 494 557 551 504 q 304 593 438 610 q 282 594 293 592 q 213 481 238 557 q 197 315 188 404 q 254 163 207 217 q 375 119 299 110 l 375 119 m 469 826 q 425 801 451 808 q 375 815 399 794 q 361 872 351 836 q 393 922 371 907 l 488 1022 q 535 1035 508 1036 q 577 1016 561 1035 q 591 969 593 997 q 571 926 589 942 l 469 826 l 469 826 m 296 831 q 256 808 283 811 q 207 822 228 804 q 185 867 186 840 q 204 913 183 894 l 279 1039 q 320 1060 293 1056 q 367 1048 347 1064 q 390 1004 386 1032 q 376 957 393 976 l 296 831 l 296 831 z "},"ō":{"ha":789,"x_min":51,"x_max":738,"o":"m 468 10 q 175 83 285 -35 q 67 315 88 174 q 93 526 51 426 q 251 715 143 654 q 307 733 274 728 q 326 735 308 733 q 338 738 333 736 q 379 733 358 742 q 406 733 385 733 q 433 731 426 732 q 458 728 440 731 q 486 724 475 726 l 513 714 q 544 700 529 708 q 578 681 560 692 q 703 509 668 619 q 721 331 738 399 q 676 191 708 256 q 588 76 644 126 q 468 10 532 26 l 468 10 m 425 154 q 527 216 485 163 q 583 329 569 269 q 573 460 596 389 q 500 564 550 532 q 475 580 485 575 q 452 588 465 585 q 431 592 439 592 q 399 593 424 592 q 354 596 374 594 q 344 597 350 596 q 328 596 329 596 l 318 593 q 224 487 257 560 q 206 336 192 414 q 274 193 221 242 q 425 154 331 140 l 425 154 z "},"ǫ":{"ha":789,"x_min":51,"x_max":738,"o":"m 444 -286 q 300 -246 354 -289 q 239 -115 238 -193 q 286 22 239 -40 q 358 80 315 56 q 438 110 400 104 q 489 100 468 114 q 514 60 510 86 q 504 22 517 38 q 447 -4 492 7 q 376 -42 400 -17 q 351 -106 351 -67 q 376 -163 351 -142 q 438 -185 401 -185 q 466 -180 454 -185 q 490 -167 478 -175 q 511 -156 500 -161 q 535 -151 522 -151 q 572 -164 558 -151 q 585 -199 585 -176 q 542 -260 585 -235 q 444 -286 499 -286 l 444 -286 m 468 10 q 175 83 285 -35 q 67 315 88 174 q 93 526 51 426 q 251 715 143 654 q 307 733 274 728 q 326 735 308 733 q 338 738 333 736 q 379 733 358 742 q 406 733 385 733 q 433 731 426 732 q 458 728 440 731 q 486 724 475 726 l 513 714 q 544 700 529 708 q 578 681 560 692 q 703 509 668 619 q 721 331 738 399 q 676 191 708 256 q 588 76 644 126 q 468 10 532 26 l 468 10 l 468 10 m 425 154 q 527 216 485 163 q 583 329 569 269 q 573 460 596 389 q 500 564 550 532 q 475 580 485 575 q 452 588 465 585 q 431 592 439 592 q 399 593 424 592 q 354 596 374 594 q 344 597 350 596 q 328 596 329 596 l 318 593 q 224 487 257 560 q 206 336 192 414 q 274 193 221 242 q 425 154 331 140 l 425 154 l 425 154 z "},"ø":{"ha":782,"x_min":40,"x_max":769,"o":"m 121 -26 q 88 -42 107 -42 q 54 -28 68 -42 q 40 5 40 -15 q 51 39 40 25 l 435 458 l 578 619 l 686 729 q 717 746 697 744 q 751 735 736 747 q 767 703 765 722 q 757 671 769 683 l 643 553 l 488 375 l 121 -26 l 121 -26 m 407 133 q 537 201 493 140 q 581 357 581 263 q 538 530 581 451 q 433 632 496 608 q 404 626 424 631 q 376 618 385 621 l 354 611 q 331 603 340 607 q 313 593 321 599 q 219 473 249 554 q 207 306 190 392 q 274 172 222 219 q 407 133 326 125 l 407 133 m 421 -6 q 283 9 346 -12 q 178 72 221 31 q 108 167 136 114 q 69 281 81 219 q 90 524 47 403 q 240 713 133 646 q 325 749 274 732 q 392 776 350 783 l 399 776 q 417 775 407 776 q 438 772 426 774 q 463 768 450 771 q 483 763 475 765 q 613 665 558 732 q 694 518 668 597 q 719 357 719 439 q 703 234 719 293 q 651 123 686 175 q 557 36 617 71 q 421 -6 497 1 l 421 -6 z "},"ǿ":{"ha":782,"x_min":40,"x_max":769,"o":"m 121 -26 q 88 -42 107 -42 q 54 -28 68 -42 q 40 5 40 -15 q 51 39 40 25 l 435 458 l 578 619 l 686 729 q 717 746 697 744 q 751 735 736 747 q 767 703 765 722 q 757 671 769 683 l 643 553 l 488 375 l 121 -26 l 121 -26 m 407 133 q 537 201 493 140 q 581 357 581 263 q 538 530 581 451 q 433 632 496 608 q 404 626 424 631 q 376 618 385 621 l 354 611 q 331 603 340 607 q 313 593 321 599 q 219 473 249 554 q 207 306 190 392 q 274 172 222 219 q 407 133 326 125 l 407 133 m 421 -6 q 283 9 346 -12 q 178 72 221 31 q 108 167 136 114 q 69 281 81 219 q 90 524 47 403 q 240 713 133 646 q 325 749 274 732 q 392 776 350 783 l 399 776 q 417 775 407 776 q 438 772 426 774 q 463 768 450 771 q 483 763 475 765 q 613 665 558 732 q 694 518 668 597 q 719 357 719 439 q 703 234 719 293 q 651 123 686 175 q 557 36 617 71 q 421 -6 497 1 l 421 -6 z "},"õ":{"ha":789,"x_min":51,"x_max":738,"o":"m 468 10 q 175 83 285 -35 q 67 315 88 174 q 93 526 51 426 q 251 715 143 654 q 307 733 274 728 q 326 735 308 733 q 338 738 333 736 q 379 733 358 742 q 406 733 385 733 q 433 731 426 732 q 458 728 440 731 q 486 724 475 726 l 513 714 q 544 700 529 708 q 578 681 560 692 q 703 509 668 619 q 721 331 738 399 q 676 191 708 256 q 588 76 644 126 q 468 10 532 26 l 468 10 m 425 154 q 527 216 485 163 q 583 329 569 269 q 573 460 596 389 q 500 564 550 532 q 475 580 485 575 q 452 588 465 585 q 431 592 439 592 q 399 593 424 592 q 354 596 374 594 q 344 597 350 596 q 328 596 329 596 l 318 593 q 224 487 257 560 q 206 336 192 414 q 274 193 221 242 q 425 154 331 140 l 425 154 z "},"œ":{"ha":1367,"x_min":69,"x_max":1297,"o":"m 360 -10 q 175 96 254 11 q 79 303 96 181 q 83 457 69 376 q 136 597 97 538 q 249 693 178 658 q 397 733 319 728 q 548 716 475 740 q 669 636 621 692 q 838 754 736 728 q 1038 745 940 781 q 1204 629 1136 710 q 1279 504 1257 567 q 1289 408 1297 451 q 1218 314 1276 346 q 1185 304 1206 307 q 1165 303 1178 304 q 1114 301 1147 301 l 967 301 q 721 303 731 303 l 718 303 q 738 228 722 257 q 869 131 772 163 q 1042 128 967 100 q 1061 136 1053 132 q 1078 148 1069 140 q 1092 160 1088 156 q 1111 181 1097 165 q 1135 206 1125 196 q 1183 228 1154 226 q 1232 209 1211 229 q 1254 160 1253 189 q 1235 111 1256 132 q 1215 88 1231 106 q 1189 63 1199 71 l 1164 40 q 1130 16 1149 26 q 1089 -3 1111 6 q 828 -1 971 -47 q 654 107 719 33 q 522 3 600 32 q 360 -10 443 -26 l 360 -10 m 388 126 q 498 145 446 114 q 576 260 550 176 l 582 271 q 596 472 569 365 q 588 486 592 478 q 572 528 588 488 q 565 543 568 539 q 501 585 543 571 q 408 596 460 600 q 314 571 356 592 q 253 519 272 550 q 219 429 229 485 q 218 322 210 374 q 276 191 228 243 q 388 126 325 139 l 388 126 m 1113 440 q 1151 442 1138 440 q 1147 458 1151 449 q 1099 540 1135 497 q 927 626 1026 625 q 774 543 828 626 q 732 442 747 503 q 968 440 740 442 l 1113 440 z "},"ŕ":{"ha":478,"x_min":75,"x_max":492,"o":"m 122 57 q 75 682 75 349 q 95 731 75 711 q 144 751 115 751 q 194 731 174 751 q 214 682 214 711 l 214 622 q 394 715 279 675 q 448 713 422 725 q 483 672 474 700 q 479 619 492 644 q 439 585 467 593 q 283 497 331 547 q 228 346 233 444 l 228 343 q 258 79 239 206 q 247 27 264 50 q 201 -1 229 4 q 149 12 172 -6 q 122 57 126 29 l 122 57 m 206 829 q 158 811 189 810 q 107 835 126 813 q 90 888 88 858 q 114 933 92 917 l 214 1031 q 263 1048 233 1049 q 311 1026 292 1047 q 330 975 331 1006 q 310 928 329 944 l 206 829 l 206 829 z "},"ř":{"ha":481,"x_min":83,"x_max":501,"o":"m 93 72 q 92 264 93 135 q 93 490 92 393 q 100 675 94 588 q 124 722 103 703 q 174 738 146 740 q 222 715 203 736 q 239 664 240 693 l 238 657 q 410 733 313 713 q 462 723 438 739 q 492 679 486 707 q 482 628 497 651 q 438 597 465 603 q 297 525 351 579 q 235 390 243 471 q 231 375 233 383 q 231 239 231 349 q 232 72 232 129 q 211 23 232 43 q 162 3 190 3 q 113 24 133 3 q 93 72 93 44 l 93 72 m 292 782 q 232 801 261 781 q 197 835 217 813 l 100 943 q 85 986 83 961 q 103 1028 86 1011 q 146 1043 121 1044 q 188 1024 171 1042 l 285 914 l 288 913 l 296 921 q 401 1022 361 986 q 445 1035 421 1038 q 485 1015 469 1033 q 500 973 501 997 q 481 931 499 949 q 381 836 443 899 q 346 806 358 814 q 292 782 319 785 l 292 782 z "},"ŗ":{"ha":501,"x_min":75,"x_max":518,"o":"m 164 0 q 115 19 136 0 q 94 69 94 38 l 92 353 q 90 592 90 449 l 90 674 q 110 724 90 706 q 157 742 129 742 q 208 723 186 742 q 229 671 229 704 l 229 629 q 286 686 244 663 q 411 721 343 721 q 490 704 463 721 q 518 644 518 688 q 501 598 518 617 q 453 579 485 579 q 292 547 336 579 q 248 507 267 531 q 229 461 229 483 l 232 288 l 233 69 q 213 19 233 38 q 164 0 192 0 l 164 0 m 174 -318 q 137 -336 158 -335 q 101 -325 115 -337 q 86 -290 88 -312 q 100 -251 85 -268 q 138 -193 113 -237 q 106 -179 118 -190 q 83 -156 92 -171 q 75 -122 75 -142 q 87 -86 75 -103 q 119 -60 99 -69 l 139 -51 q 164 -49 156 -49 q 185 -53 172 -50 q 238 -89 217 -58 q 253 -171 260 -121 q 226 -244 246 -210 q 174 -318 206 -287 l 174 -318 z "},"ś":{"ha":775,"x_min":69,"x_max":706,"o":"m 418 -15 q 253 -2 335 -24 q 125 72 171 19 q 93 128 106 93 q 86 147 93 129 q 81 160 83 156 q 80 213 69 186 q 116 252 90 240 q 169 253 142 264 q 208 218 196 243 q 217 193 213 207 q 220 186 218 193 q 224 176 222 179 l 228 164 q 297 130 247 143 q 406 124 346 117 q 500 149 465 129 q 542 193 535 169 q 518 267 551 233 q 388 342 482 300 q 336 364 376 347 l 269 392 q 219 417 242 404 q 111 569 108 479 q 132 649 113 614 q 183 705 151 685 q 245 737 214 725 q 311 753 276 749 q 442 754 375 763 q 553 725 508 746 q 591 703 574 715 q 623 677 608 692 q 644 653 638 663 l 667 625 q 683 603 679 607 q 697 551 700 579 q 670 505 693 522 q 619 491 647 488 q 572 517 590 494 q 553 544 564 529 l 536 565 q 525 578 532 571 q 511 590 518 586 l 494 600 q 426 617 469 611 q 332 615 382 622 q 250 567 253 604 q 288 538 257 556 q 328 518 306 528 l 386 493 l 443 469 q 614 367 561 418 q 675 160 706 278 q 617 63 661 103 q 523 7 572 24 q 418 -15 474 -10 l 418 -15 m 400 817 q 354 795 382 797 q 305 811 326 793 q 279 857 283 829 q 294 906 275 885 l 329 946 q 352 972 343 961 q 369 990 361 982 q 393 1017 376 999 l 428 1054 q 476 1071 447 1071 q 524 1051 504 1071 q 544 1004 544 1031 q 526 957 544 978 q 485 911 506 933 q 451 873 464 889 q 400 817 438 857 l 400 817 z "},"š":{"ha":769,"x_min":69,"x_max":700,"o":"m 424 -3 q 254 0 338 -17 q 122 72 169 18 q 88 144 97 100 q 82 171 88 146 q 78 185 81 181 q 83 238 69 213 q 123 273 96 264 q 176 269 150 282 q 211 229 201 256 q 218 197 215 215 q 220 188 218 196 q 222 175 222 181 l 225 164 q 292 134 243 144 q 401 133 340 124 q 498 167 463 143 q 538 214 533 190 q 518 278 546 257 q 389 321 485 301 q 348 330 378 324 q 300 340 318 336 q 257 350 282 343 l 213 363 q 83 507 92 407 q 158 665 75 610 q 310 707 215 704 q 462 694 383 711 q 585 647 540 676 q 607 631 594 642 q 628 610 619 619 q 643 592 636 601 l 650 583 q 671 535 671 564 q 651 485 671 506 q 601 465 631 465 q 553 486 572 465 q 535 506 542 496 l 524 517 l 518 525 q 510 531 515 528 q 428 558 486 546 q 315 568 371 571 q 235 550 260 567 q 222 518 221 540 q 260 493 222 507 q 418 457 282 486 q 599 390 542 432 q 674 186 700 317 q 619 88 663 129 q 526 25 575 46 q 424 -3 479 6 l 424 -3 m 364 801 q 304 821 333 800 q 269 854 289 832 l 172 963 q 157 1006 156 981 q 176 1047 158 1031 q 218 1063 193 1064 q 260 1043 243 1061 l 357 933 l 360 932 l 368 940 q 474 1042 433 1006 q 517 1055 493 1057 q 558 1035 542 1053 q 572 992 574 1017 q 553 950 571 968 q 453 856 515 918 q 418 825 431 833 q 364 801 392 804 l 364 801 z "},"ş":{"ha":688,"x_min":39,"x_max":654,"o":"m 329 -333 q 228 -307 268 -333 q 188 -242 188 -281 q 200 -209 188 -222 q 232 -196 213 -196 q 256 -202 246 -196 q 278 -221 265 -208 q 331 -243 300 -243 q 362 -231 349 -243 q 376 -199 375 -218 q 344 -158 376 -168 q 286 -151 318 -151 q 249 -137 264 -151 q 233 -104 233 -124 q 343 40 233 -51 q 417 7 376 31 q 359 -51 379 -26 q 338 -101 339 -75 l 301 -82 q 317 -76 310 -79 q 331 -72 325 -72 q 438 -108 396 -71 q 481 -194 481 -144 q 437 -293 481 -253 q 329 -333 393 -333 l 329 -333 m 239 0 q 90 83 136 18 q 58 161 68 113 l 53 192 q 47 214 50 206 q 53 265 39 240 q 94 297 67 290 q 147 292 122 304 q 181 251 172 279 q 189 217 185 236 q 191 203 190 210 q 196 182 192 197 q 215 151 200 164 q 265 132 232 136 q 385 135 321 121 q 482 175 447 149 q 503 221 507 197 q 454 279 499 260 q 310 313 426 292 q 139 374 189 336 q 79 576 47 442 q 159 691 99 654 q 293 732 219 728 q 420 717 356 735 q 531 669 485 700 q 563 643 546 658 q 595 610 579 628 q 614 590 611 592 q 635 542 635 569 q 615 495 635 515 q 566 475 594 475 q 517 494 538 475 q 489 521 503 507 l 469 544 q 450 558 461 551 q 382 587 424 575 q 300 597 340 599 q 215 546 226 593 q 224 481 203 496 q 336 444 249 463 q 513 401 465 422 q 642 236 626 350 q 572 75 654 143 q 414 4 510 24 q 239 0 322 -17 l 239 0 l 239 0 z "},"ŝ":{"ha":775,"x_min":69,"x_max":706,"o":"m 418 -14 q 253 -1 335 -22 q 125 74 171 21 q 93 129 106 94 q 86 149 93 131 q 81 161 83 157 q 80 215 69 188 q 116 253 90 242 q 169 255 142 265 q 208 219 196 244 q 217 194 213 208 q 220 188 218 194 q 224 178 222 181 l 228 165 q 297 131 247 144 q 406 125 346 118 q 500 151 465 131 q 542 194 535 171 q 518 268 551 235 q 388 343 482 301 q 336 365 376 349 l 268 394 q 219 418 242 406 q 111 571 108 481 q 132 651 113 615 q 183 706 151 686 q 245 738 214 726 q 311 754 276 750 q 442 756 375 764 q 553 726 508 747 q 591 705 574 717 q 623 678 608 693 q 646 654 638 664 l 665 626 q 683 604 679 608 q 697 552 700 581 q 670 506 693 524 q 619 492 647 489 q 572 518 590 496 q 551 546 564 531 l 536 567 q 525 580 532 572 q 511 592 518 588 l 494 601 q 426 618 469 613 q 332 617 382 624 q 250 568 253 606 q 288 539 257 557 q 328 519 306 529 l 443 471 q 614 368 561 419 q 675 161 706 279 q 617 65 661 104 q 523 8 572 25 q 418 -14 474 -8 l 418 -14 m 275 821 q 228 795 253 796 q 184 810 203 794 q 165 852 165 826 q 188 901 165 878 l 279 1001 q 314 1035 300 1022 q 368 1058 339 1058 q 429 1035 399 1058 q 479 982 456 1010 q 551 901 515 940 q 571 858 568 882 q 557 816 574 835 q 513 796 540 797 q 461 821 486 794 q 368 928 440 844 l 275 821 l 275 821 z "},"ș":{"ha":688,"x_min":39,"x_max":654,"o":"m 239 0 q 90 83 136 18 q 58 161 68 113 l 53 192 q 47 214 50 206 q 53 265 39 240 q 94 297 67 290 q 147 292 122 304 q 181 251 172 279 q 189 217 185 236 q 191 203 190 210 q 196 182 192 197 q 215 151 200 164 q 265 132 232 136 q 385 135 321 121 q 482 175 447 149 q 503 221 507 197 q 454 279 499 260 q 310 313 426 292 q 139 374 189 336 q 79 576 47 442 q 159 691 99 654 q 293 732 219 728 q 420 717 356 735 q 531 669 485 700 q 563 643 546 658 q 595 610 579 628 q 614 590 611 592 q 635 542 635 569 q 615 495 635 515 q 566 475 594 475 q 517 494 538 475 q 489 521 503 507 l 469 544 q 450 558 461 551 q 382 587 424 575 q 300 597 340 599 q 215 546 226 593 q 224 481 203 496 q 336 444 249 463 q 513 401 465 422 q 642 236 626 350 q 572 75 654 143 q 414 4 510 24 q 239 0 322 -17 l 239 0 m 339 -318 q 302 -336 324 -335 q 267 -325 281 -337 q 251 -290 253 -312 q 265 -251 250 -268 q 303 -193 278 -237 q 271 -179 283 -190 q 249 -156 257 -171 q 240 -122 240 -142 q 252 -86 240 -103 q 285 -60 264 -69 l 304 -51 q 329 -49 321 -49 q 350 -53 338 -50 q 403 -89 382 -58 q 418 -171 425 -121 q 392 -244 411 -210 q 339 -318 371 -287 l 339 -318 z "},"ŧ":{"ha":506,"x_min":14,"x_max":514,"o":"m 428 1 q 417 3 422 3 q 405 3 411 3 q 393 6 399 4 q 335 21 358 10 q 185 210 228 71 q 156 394 161 286 q 81 397 115 396 q 33 420 53 399 q 15 470 14 442 q 38 518 17 499 q 89 536 60 538 q 156 533 119 535 q 161 628 157 575 l 107 631 q 58 653 78 632 q 40 703 39 674 q 63 751 42 732 q 113 769 83 771 l 171 767 q 172 910 176 867 q 188 961 169 939 q 235 986 207 983 q 286 970 264 989 q 311 924 308 951 q 310 761 315 869 q 358 760 333 761 q 406 738 386 758 q 425 688 426 717 q 403 640 424 660 q 353 621 382 619 q 300 622 324 622 q 294 529 296 569 q 415 526 364 528 q 463 503 444 525 q 481 453 482 482 q 458 405 479 424 q 407 388 436 386 q 296 390 358 389 q 317 251 300 307 q 393 146 342 171 q 410 143 397 144 q 453 138 450 138 q 497 108 481 132 q 508 57 514 85 q 479 13 503 29 q 428 1 456 -4 l 428 1 z "}}}
